<?xml version="1.0" encoding="utf-8"?>
<!-- Generator: Adobe Illustrator 28.4.1, SVG Export Plug-In . SVG Version: 6.00 Build 0)  -->
<svg version="1.1" id="Layer_1" xmlns="http://www.w3.org/2000/svg" xmlns:xlink="http://www.w3.org/1999/xlink" x="0px" y="0px"
	 viewBox="0 0 1920 1080" style="enable-background:new 0 0 1920 1080;" xml:space="preserve">
<style type="text/css">
	.st0{fill:url(#SVGID_1_);}
	.st1{opacity:0.39;}
	.st2{opacity:0.69;fill:url(#SVGID_00000135686701033946097760000005340349273653927590_);enable-background:new    ;}
	.st3{fill:#F7F2B4;}
	.st4{fill:#EDDE9A;}
	.st5{fill:url(#SVGID_00000005253653335962997640000017066931000128959107_);}
	.st6{fill:#C68E53;}
	.st7{fill:#B17325;stroke:#C78B55;stroke-width:2;stroke-miterlimit:10;}
	.st8{fill:url(#SVGID_00000083805382991503170630000003525630599099361980_);}
</style>
<linearGradient id="SVGID_1_" gradientUnits="userSpaceOnUse" x1="957.257" y1="-2.873" x2="957.257" y2="911.116" gradientTransform="matrix(1 0 0 -1 0 1080)">
	<stop  offset="0.1038" style="stop-color:#E2DA92"/>
	<stop  offset="0.2507" style="stop-color:#F1EAB3"/>
	<stop  offset="0.9804" style="stop-color:#FF9917"/>
</linearGradient>
<polygon class="st0" points="-536.3,1082.9 2450.8,1082.9 2450.8,168.9 -386.9,168.9 -536.3,168.9 "/>
<g class="st1">
	
		<linearGradient id="SVGID_00000056416473426298684200000000657291976015056017_" gradientUnits="userSpaceOnUse" x1="-536.5297" y1="234.4875" x2="2451.0139" y2="234.4875" gradientTransform="matrix(1 0 0 -1 0 1080)">
		<stop  offset="0.2507" style="stop-color:#F2DF9D"/>
		<stop  offset="0.7184" style="stop-color:#CCA558"/>
		<stop  offset="0.9804" style="stop-color:#EFDB9C"/>
	</linearGradient>
	<path style="opacity:0.69;fill:url(#SVGID_00000056416473426298684200000000657291976015056017_);enable-background:new    ;" d="
		M-532.6,1077.2c-8.2-46.1-0.6-97.6-3.1-145.5c7.9-7.9,21.4,0.8,25.6-14.2c11.4-33.7,29.6-65.8,38.3-99.9c-12.4-8-53.2,4.1-63.9-6
		c0-28.2,0-56.4,0-84.6c3.5-4.1,7.7-5,12.7-4.3c27-0.5,54-0.3,81.2,0.5c6.2,0,10-3.6,12.3-9.7c9.6-25.5,20.7-50.2,30.3-75.7
		c5.7-10-1-13.2-9.5-11.9c-38.3-0.1-76.6,0-114.8-0.1c-4.3,0-8.9,0.8-12.2-3.7c0-1.1,0-2.3,0-3.4c2.5-3.6,6.2-3.7,9.9-3.7
		c43.8-0.1,87.6-1.3,131.3,0.4c31.2,2,62.9-1.3,93.8,2.5c5.1,3.7,3,8.7,1.2,12.8c-10.9,23.6-18.1,49-29.1,72.7
		c-3.5,6.7-8.1,21,3.1,19.7c76,1,150.9-0.8,226.7-1.1c12.6-30.8,25.3-61.5,36.6-92.1c-4.3-5.1-8.4-4-12.1-4
		c-41.1-0.5-82.4,0.8-123.5-0.5c-39.1-19,130.6-8.5,137.8-10c132.6,4.3,98.8-20.4,62,104c3,4.3,6.9,3.8,10.4,3.7
		c38.3-0.5,76.6,1.4,114.8-0.4c34.9-2.1,69.7,1.8,104.4-1.7c4.1-0.1,6.2-3.5,7.6-7.4c9.9-25.7,20.4-51.1,30.9-76.5
		c5.1-9.1-2.4-12.8-10-11.3c-37.3-0.1-74.6,0-111.9-0.1c-5.3-0.5-17.6,2.2-15.2-7.6c2.4-3.4,5.9-3.2,9.2-3.2
		c75.2-0.5,150.8-1,225.6,2.8c5.2,3.6,3.2,8.7,1.3,12.7c-11.4,29.1-24.7,58.9-33.6,88.6c6.1,9,30.1,2.1,39,1.5
		c62.2,6.7,124.8-0.6,187.2,1.4c17-0.3,31.4-68.5,42.6-85.5c5.5-8.9-2.4-12.1-9.4-10.7c-38.6-0.1-77.2-0.1-115.8-0.1
		c-16.5,2.9-23.2-11.2-3.9-10.8c75.2,0,151.4-1.8,226.1,3.3c12,6.1-32.6,87.4-31.1,101.7c2.9,4,6.8,3.3,10.3,3.1
		c72.3-0.5,144.7,0.5,217.1,0c9.8-0.3,12.4-2.9,12.5-13.8c0.2-27,0.2-54.1,0-81.1c-0.7-4.9,0.7-11.1,6.3-11.3
		c28.6-2.8,57.2-1.5,85.7,0.1c6.4,1.1,6.8,8.9,6.7,14.3c0.1,25.6,0,51.2,0.1,76.8c-0.8,8.7,1.3,16.3,10.4,14.9
		c38.9,0.2,77.7-0.7,116.6-0.1c36.1-1.2,73.8,3.6,109.2-1.6c2.2-3,1.7-5.7,0.6-8.4c-10.9-26.7-20.1-54.1-31.6-80.5
		c-5.8-10.1,0.1-17.6,10.9-15.8c75,2.4,152.7-7.9,226.4,1.1c4,9.9-10,7.9-15.1,8.1c-37.8,0-75.6,0-113.4,0.1
		c-4.9-0.8-14.7,0-11.3,7.8c11.5,25.5,19.9,52.5,31.4,78c9.5,19.3,32.6,9.1,48.8,10.5c44.3-1.2,89,3.4,133.5,0.8
		c9.9-3.4,66,9.5,54.9-10.3c-11.3-25.7-19.9-52.6-30.9-78.3c-2.2-5-5.7-10.8,0-16.2c53.5-3.1,108.1-2.7,161.9-3.3
		c20.4,0.4,40.9-0.1,61.3,0.1c4,0,8.4-0.8,11.8,2.8c4,9.6-9.4,7.9-14.3,8.1c-155.4,7-136.6-33.5-92.9,86.6
		c3.8,9.6,5.7,10.9,15.5,9.7c73.3-1.1,147.5,3.4,220.8-0.2c6.3-11.8-16.8-48.7-20.4-63.8c-4.1-10.6-6.8-21.8-12.6-31.7
		c-1.6-2.8-1.1-6,1.7-8.2c74.9-4,151-3.1,226.3-3.2c19.7-1.2,14.6,13.8-2.4,10.9c-38.1,0-76.1,0-114.2,0.1
		c-9.2-1.4-15.5,2.2-9.3,12.4c9.5,24.3,19.4,48.5,28.5,73c2.5,6.8,6.4,9.4,13.2,10.7c74.6,0.4,150.2,2.2,224.2,0.3
		c5.9-7.9-22.2-61.2-25.2-76.6c-2.1-8.6-12.8-19.6-5.1-27.5c73.2-3.8,147.4-3,221-3.2c6.8-2,18.4,6.2,7.2,10.2
		c-43.2,3.7-88.8-3.5-131.3,2.7c-2.1,3.6-0.7,6.6,0.6,9.2c11.8,24.4,19.7,50.7,31.1,75.3c4,8.7,7,10.7,15.9,9.7
		c28.4,1.1,59.2-3.1,86.7,3.2c4.4,25.1,0.3,51.8,1.6,77.6c0,10.4-1.6,12.1-11.4,12.4c-16.4,2.1-34.3-3.7-49.6,2.7
		c6.5,33.4,25.1,63.9,35.5,96.4c5.1,16.8,15.8,9,25.5,17.9c0.1,41.2,0.3,83.7-0.1,126.2c-2.3,3.4-5.5,3.2-8.3,1.8
		c-16.5-4.9-34.2,1.9-51.2-2c-17-4-13.3,8-20.3,19.2c-85,0-170,0-255,0c-5.7-7.1-4.4-20.7-16-19.8c-15.4,0.5-30.9,1.3-46.4,0.1
		c-16.1-2.6-9.9,10.4-16.9,19.8c-84.5,0-169,0-253.5,0c-6.5-5.9-7.5-20.3-18.4-17.6c-14,2-27.8-0.4-41.6-1
		c-18.7-2.4-12.6,5.8-20.8,18.6c-85,0-170,0-255,0c-7.6-8.5-4.5-19.1-19.2-16.4c-14.8,2.4-29.3,1-44-1.4
		c-11.5-2.8-10.9,10.9-16.1,17.8c-120.8,0-241.5,0-362.3,0c-2.6-2.5-4.5-5.3-4.9-9.2c-5.5-20.8-33.1-5.8-46.8-7
		c-11.6,0.1-19.8-5.7-31.7-0.7c-3.8,4.8,0.3,12.6-5.2,16.8c-122.8,0-245.7,0-368.5,0c-4.6-3.6-2.3-10.1-5.3-14.8
		c-8.6-4.6-17.8-4.1-27-2.7c-23.1,5.5-36.2-11.8-47,17.5c-85,0-170,0-255,0c-4.7-3.5-2.2-10.2-5.6-14.9c-14.9-7.3-31.9,1.5-47.6-3
		c-8-1-19.8-0.8-21.8,10.1c-0.5,3-2.1,5.7-4.3,7.8c-84.5,0-169,0-253.5,0c-5.7-7.1-7.1-20.8-18.5-17.7c-15.4,3.3-30.8,2-46.2,0.4
		c-10.4-1.3-10.7,13.5-19.2,17.2c-84,0-167.9,0-251.9,0c-3-2.6-2.6-6.5-3.1-10c-6.3-24-40-6.3-56.6-10
		C-530.2,1055.8-525.7,1066.9-532.6,1077.2z"/>
	<path class="st3" d="M2362.8,621.4c8,0,16,0,24,0c9.6-0.4,19.2-0.4,28.8,0c3,0.1,31.8-4.2,34.7-4.1c1.4,55.7,0.2,109,0.2,109
		c-10.5,0-19.3,0-28.1,0c-42.7,0-85.3,0-128.5,0c-8.6-34.1-17-67.4-25.8-102.3c3.5-0.5,5.6-1,7.6-1c26.9-0.1,53.8,0,80.7-0.1
		C2358.6,622.8,2360.7,621.9,2362.8,621.4z"/>
	<path class="st3" d="M-535.7,622.1c47.8,0,95.5,0,146.2,0c-7.9,20.1-14.6,37.5-21.4,54.8c-5.1,12.9-9.4,26.3-15.8,38.3
		c-2.9,5.4-10.1,11.1-15.6,11.3c-31.1,1.1-62.3,0.5-93.4,0.5C-535.7,692-535.7,657.1-535.7,622.1z"/>
	<path class="st3" d="M-535.7,811.6c23,0,46,0,71.8,0c-16.4,41-31.5,78.9-47.3,118.6c-7.7,0.5-16.1,1-24.4,1.5
		C-535.7,891.7-535.7,851.6-535.7,811.6z"/>
	<path class="st3" d="M912.3,811.6c0,39.6,0,78.3,0,118.6c-110.1,0-220.1,0-332.3,0c10.8-27.1,20.7-52.3,30.8-77.4
		c3.7-9.3,8.7-18.1,11.8-27.6c5.1-15.7,17.5-13.2,27.9-13.3c70.7-0.5,141.4-0.3,212.1-0.3C878.1,811.6,893.5,811.6,912.3,811.6z"/>
	<path class="st3" d="M1337,930.3c-112.2,0-221,0-331.5,0c0-38.9,0-78,0-119.6c18.7,0,36.6-0.1,54.6,0c63.9,0.3,127.8,0.6,191.7,0.9
		c7.2,0,15-1.9,21.5,0.6c7.7,2.9,17.5,7.8,20.8,14.9C1309,859.9,1322,893.7,1337,930.3z"/>
	<path class="st3" d="M-423.6,929.9c15-36.1,30.1-69.8,43-104.5c4.9-13.2,13.4-13.6,22.5-13.6c72.3-0.3,144.6-0.2,216.9-0.1
		c3.1,0,6.2,1.3,10.8,2.3c-11.1,27.5-24.5,52.5-31.1,79.5c-8.4,34.1-26.5,39.4-55.6,37.4c-41.5-2.8-83.2,0.3-124.9,0.7
		c-23,0.2-45.9,0.1-68.9,0C-414.3,931.6-417.7,930.7-423.6,929.9z"/>
	<path class="st3" d="M245.6,929.7c7-17.3,13.2-32,19-46.8c6.9-17.2,14.3-34.3,20-52c5.4-16.6,16.8-19.4,30.4-19.4
		c38.5,0,77.1,0,115.6,0c31.5,0,63.1,0,94.6,0.1c3.7,0,7.4,1,12.7,1.7c-10.2,25.5-19.7,49.4-29.2,73.2c-1.8,4.6-4.1,9.2-5,14.1
		c-5.4,30.9-26,31.8-48.8,31.2c-35.9-0.9-71.9-0.2-107.8-0.2c-29.2,0-58.3,0.1-87.5-0.1C256.2,931.6,252.5,930.7,245.6,929.7z"/>
	<path class="st3" d="M-87.8,930.5c4.5-12.4,8-23,12.2-33.3c9.7-24.1,20.2-47.9,29.5-72.1c4.7-12.2,13.5-13.3,23.2-13.4
		c28.8-0.2,57.7-0.2,86.5-0.2c42.3,0,84.6,0,126.9,0.2c3.9,0,7.8,1.1,13.3,1.9c-7.3,18.6-13.8,35.4-20.5,52.3
		c-5,12.6-11.9,24.8-14.7,38c-5.2,24.1-19.9,28.3-39.4,28.1c-46.2-0.6-92.4-0.2-138.5-0.2c-22.2,0-44.4,0-66.6,0
		C-78.9,931.6-81.9,931.1-87.8,930.5z"/>
	<path class="st3" d="M1669.8,930.3c-82.5,0-163.2,0-245.2,0c-15.3-38.9-30.4-77.2-46.2-117.3c5.9-0.7,9.1-1.3,12.3-1.3
		c71.2-0.1,142.3,0.1,213.5-0.1c14.2,0,22.6,6.2,28,21.1c10.4,29,22.6,57.3,34,85.9C1667.4,921.5,1668.1,924.7,1669.8,930.3z"/>
	<path class="st3" d="M1714.7,812.7c80.5,0,160.3,0,243,0c15.5,38.1,31,76.5,48.3,119c-17.1,0-31.1,0-45,0c-17.8,0-35.6,0.2-53.4,0
		c-46.6-0.5-93.2-0.9-139.8-1.9c-3.9-0.1-9.7-3.2-11.2-6.7c-14.3-34.9-27.9-70.1-41.7-105.3C1714.6,816.8,1714.9,815.6,1714.7,812.7
		z"/>
	<path class="st3" d="M2339.7,930.1c-83.1,0-163.4,0-246.5,0c-15-38.2-30.2-77-46.2-117.6c5.8-0.5,9.3-1,12.8-1
		c65.5-0.1,131.1,0.9,196.5-0.5c24.6-0.5,41.3,4.7,49.8,33.3C2314.5,872.8,2327.5,899.6,2339.7,930.1z"/>
	<path class="st3" d="M-299.3,620.9c4.7-0.1,9.3-0.1,14-0.2c14.5-0.4,28.9-0.4,43.4,0c13,0,26,0,39.1,0c3.3,0.5,6.5,1.5,9.8,1.5
		c41.7,0.1,83.4,0.1,125.1,0.1c3.2,0,6.5,0.5,12.4,1.1c-14.2,35.8-27.8,70-40.6,102.2c-82.2,0-161.6,0-245,0
		C-326.5,688.8-312.9,654.9-299.3,620.9z"/>
	<path class="st3" d="M1451.4,620.7c13,0,26.1,0,39.1,0c13.4-0.4,26.8-0.3,40.3-0.1c5.7,0.1,11.4,0.2,17.1,0.3
		c13.3,34.2,26.7,68.4,40.8,104.8c-16.8,0-30.9,0-48.4,0c-0.8,0.1-5.1,1.3-9.4,1.2c-41.1-0.4-82.1-1.2-123.2-1.5
		c-15.2-0.1-30.4,1.2-45.6,1.5c-10.2,0.2-18.4-1.5-23-14.5c-9.8-27.1-21.5-53.5-32.2-80.2c-1-2.4-0.9-5.3-1.5-9.1
		c4.1-0.4,7.3-0.9,10.5-0.9c42-0.1,83.9,0,125.9-0.1C1444.8,622.1,1448.1,621.2,1451.4,620.7z"/>
	<path class="st3" d="M1784.2,620.7c14.1,0,28.1,0,42.2,0c15-0.2,29.9-0.4,44.9,0c3.1,0.1,6.2,0.2,9.3,0.2
		c13.9,33.7,27.8,67.5,43.8,106.1c-15.5,0-25.5,0.1-35.5,0c-41-0.5-82.1-1.4-123.1-1.5c-25.9-0.1-51.9,1.2-77.9,1.3
		c-3.8,0-9.9-2.3-11.2-5.4c-12.6-29.8-24.5-60-36.3-90.2c-0.8-2-0.1-4.8-0.1-8c4.1-0.4,7.4-0.9,10.6-0.9c41.2-0.1,82.3,0,123.5-0.1
		C1777.6,622.1,1780.9,621.2,1784.2,620.7z"/>
	<path class="st3" d="M33.5,620.9c5.2-0.1,10.3-0.2,15.5-0.3c13.9-0.3,27.9-0.3,41.8,0c14,0,28.1,0,42.1,0c3.3,0.5,6.5,1.5,9.8,1.5
		c41.5,0.1,82.9,0.1,124.4,0.1c3,0,6.1,0.3,11.8,0.6c-7.2,18.5-13.8,35.4-20.5,52.2c-2.8,7-7.2,13.5-8.3,20.7
		c-4.8,29.7-24.2,31.8-46.2,31.4c-37.9-0.6-75.8-0.2-113.7-0.2c-26.3,0-52.7,0.1-79-0.1c-4.8,0-9.5-1.3-16.6-2.3
		C8,689,20.8,655,33.5,620.9z"/>
	<path class="st3" d="M369.4,620.9c6.7-0.1,13.5-0.2,20.2-0.2c5.7-0.3,11.3-0.3,17,0c1.1,0,2.2,0,3.2,0c5.1-0.2,10.3-0.3,15.4,0.1
		c13,0,26,0,39.1,0c3.3,0.5,6.5,1.4,9.8,1.5c42.5,0.1,84.9,0.1,127.4,0.1c3,0,6.1,0.3,11.5,0.5c-6.7,17.4-12.7,33.6-19,49.5
		c-6.2,15.7-11.3,32.4-20,46.3c-3.6,5.8-15.1,7.7-23.2,8c-24.1,1-48.3,0.4-72.4,0.4c-29.6,0-59.3,0.1-88.9-0.1
		c-5.3,0-10.5-1.3-11.7-1.4c-18.1,0-32.2,0-49.9,0C342.4,688.9,355.9,654.9,369.4,620.9z"/>
	<path class="st3" d="M2120,620.6c12.5,0,25,0,37.5,0c15-0.4,30-0.4,44.9,0c4.7,0.1,9.3,0.2,14,0.3c13.4,34.5,26.8,69,40.6,104.7
		c-16.4,0-30.1,0-43.8,0c-66.6,0-133.2,0-200.6,0c-13.4-34.1-26.5-67.4-40.2-102.3c5.5-0.5,8.7-1,11.9-1c42-0.1,83.9,0,125.9-0.1
		C2113.5,622.1,2116.8,621.1,2120,620.6z"/>
	<path class="st3" d="M759.5,620.6c34.8,0,69.6,0,104.3,0c1.5-0.2,3-0.2,4.5,0c2.6,0,5.3,0,7.9,0c6.7-0.3,13.4-0.3,20.1,0
		c5.2,0,10.4,0,15.6,0.1c0,35.1,0,70.3,0,105.6c-84.2,0-164.7,0-249.3,0c13.7-36.5,26.6-70.9,39.5-105.4c7.2-0.1,14.5-0.2,21.7-0.3
		C735.7,620.4,747.6,620.3,759.5,620.6z"/>
	<path class="st3" d="M1072,620.7c29.1,0,58.2,0,87.2,0c11.9-0.4,23.7-0.3,35.6,0c6.2,0.1,12.4,0.2,18.6,0.3
		c13.2,33.7,26.3,67.4,40.6,103.9c-60.1,0-117.6,0-175.2,0c0,0.3,0,0.6,0,0.9c-23.9,0-47.7,0-73.6,0c0-35,0-70,0-105
		c7.3,0,14.5-0.1,21.8-0.1c4.6-0.3,9.2-0.3,13.8,0c1.1,0,2.2,0,3.3,0C1053.5,620.3,1062.7,620.3,1072,620.7z"/>
	<path class="st3" d="M1009.8,1040.8c0.5-0.5-1.2,1.1-3.8,3.5c0-8.1,0-15.4,0-23.7c117.7,0,235.3,0,355.1,0
		c0.3,5.9,0.5,11.9,0.9,20.2C1243.8,1040.8,1128,1040.8,1009.8,1040.8z"/>
	<path class="st3" d="M553.8,1038.6c0.9-8.4,1.4-13.1,1.9-17.9c120.2,0,239.2,0,359.1,0c-0.6,6.6-1.1,12-1.7,18.5
		c-44.2,0-88.2,0-136.2,0c1.4,0.9-1-0.7-0.9-0.6C700.8,1038.6,628.2,1038.6,553.8,1038.6z"/>
	<path class="st3" d="M-196.7,1020.5c-2.3,7.6-4.1,13.6-6.2,20.6c-82.6,0-163.3,0-244.6,0c0-8.1,0-13.9,0-20.6
		C-364.3,1020.5-282.1,1020.5-196.7,1020.5z"/>
	<path class="st3" d="M136.2,1020.6c2.1,22.4-14.3,17.6-20.1,20.2c-78.7,0-153.6,0-229.5,0c0-6.4,0-12.8,0-20.2
		C-29.9,1020.6,53.1,1020.6,136.2,1020.6z"/>
	<path class="st3" d="M1694.9,1020.4c0,6.8,0,12.3,0,20.3c-80.8,0-160.8,0-242.8,0c-2.4-6.6-4.7-12.8-7.5-20.3
		C1529.1,1020.4,1611.5,1020.4,1694.9,1020.4z"/>
	<path class="st3" d="M469.7,1020.4c0.2,4.8,0.3,8.3,0.5,11.7c-2.8,2.5-5.2,4.6-9.1,8c-78.9,0-159.2,0-241.1,0
		c0.4-7.7,0.6-13.5,0.9-19.7C304.6,1020.4,386.5,1020.4,469.7,1020.4z"/>
	<path class="st3" d="M2029.1,1020.8c0.6,5.4,1.2,10.3,2.2,18.9c-12,0-23.3-0.1-34.5,0c-24.7,0.2-49.3,0.6-74,0.6
		c-22.4,0-44.8-0.6-67.3-0.8c-15.9-0.1-31.8,0-47.7,0c-16-0.1-30.2-0.9-26.9-18.7C1863.3,1020.8,1945.8,1020.8,2029.1,1020.8z"/>
	<path class="st3" d="M2363.3,1020.4c0,6.6,0,12.5,0,16.9c-44.7,0-88.3-0.3-131.9,0.1c-30.4,0.3-60.7,0.8-91,2.5
		c-16.4,0.9-27.1-5.7-25.2-19.5C2197.7,1020.4,2280.3,1020.4,2363.3,1020.4z"/>
</g>
<path class="st4" d="M2202.2,663.5c-14.9,0-29.9,0-44.8,0C2172.3,663.5,2187.2,663.5,2202.2,663.5z"/>
<path class="st4" d="M1871.6,663.5c-14.9,0-29.9,0-44.8,0C1841.7,663.5,1856.6,663.5,1871.6,663.5z"/>
<path class="st4" d="M-237.8,663.5c-14.4,0-28.9,0-43.3,0C-266.6,663.5-252.2,663.5-237.8,663.5z"/>
<path class="st4" d="M94.4,663.5c-13.9,0-27.8,0-41.8,0C66.6,663.5,80.5,663.5,94.4,663.5z"/>
<path class="st4" d="M1531.7,663.5c-13.4,0-26.8,0-40.2,0.1C1504.9,663.5,1518.3,663.5,1531.7,663.5z"/>
<path class="st4" d="M761.8,663.5c-11.9,0-23.7,0-35.6,0C738.1,663.5,750,663.5,761.8,663.5z"/>
<path class="st4" d="M1196.4,663.5c-11.8,0-23.7,0-35.5,0C1172.7,663.5,1184.6,663.5,1196.4,663.5z"/>
<path class="st4" d="M1073.8,663.5c-9.3,0-18.5,0-27.8,0C1055.3,663.5,1064.5,663.5,1073.8,663.5z"/>
<path class="st4" d="M898.4,663.5c-6.7,0-13.3,0-20,0C885,663.5,891.7,663.5,898.4,663.5z"/>
<path class="st4" d="M409.5,663.5c-5.6,0-11.3,0-16.9,0C398.2,663.5,403.8,663.5,409.5,663.5z"/>
<path class="st4" d="M428.1,663.5c-5.1,0-10.3,0-15.4-0.1C417.8,663.5,423,663.5,428.1,663.5z"/>
<path class="st4" d="M1042.8,663.5c-4.6,0-9.2,0-13.8,0C1033.5,663.5,1038.1,663.5,1042.8,663.5z"/>
<path class="st4" d="M870.5,663.5c-1.5,0-3,0-4.5,0C867.5,663.5,869,663.5,870.5,663.5z"/>
<linearGradient id="SVGID_00000001655787723541882530000018143502583621566628_" gradientUnits="userSpaceOnUse" x1="955.807" y1="439.072" x2="955.807" y2="570.127" gradientTransform="matrix(1 0 0 -1 0 1080)">
	<stop  offset="0.1257" style="stop-color:#BF9849"/>
	<stop  offset="1" style="stop-color:#CDA857"/>
</linearGradient>
<rect x="-536.5" y="509.9" style="fill:url(#SVGID_00000001655787723541882530000018143502583621566628_);" width="2984.7" height="131.1"/>
<rect x="-534.4" y="-2.9" class="st6" width="2985.4" height="464.1"/>
<rect x="-532.8" y="385.4" class="st7" width="2982.2" height="128.2"/>
<linearGradient id="SVGID_00000072987029166097108850000010216602292147023546_" gradientUnits="userSpaceOnUse" x1="957.5099" y1="582.5718" x2="957.5099" y2="604.4598" gradientTransform="matrix(1 0 0 1 0 478.4132)">
	<stop  offset="0.9195" style="stop-color:#EBCB8B;stop-opacity:0.69"/>
	<stop  offset="1" style="stop-color:#F7F2B4"/>
</linearGradient>
<rect x="-534.8" y="1061" style="fill:url(#SVGID_00000072987029166097108850000010216602292147023546_);" width="2984.7" height="21.9"/>
<image style="overflow:visible;enable-background:new    ;" width="634" height="320" xlink:href="BC83CA7F.jpeg"  transform="matrix(3.4114 0 0 3.4114 2492.5552 0)">
</image>
</svg>
