<?xml version="1.0" encoding="utf-8"?>
<!-- Generator: Adobe Illustrator 28.4.1, SVG Export Plug-In . SVG Version: 6.00 Build 0)  -->
<svg version="1.1" id="Layer_1" xmlns="http://www.w3.org/2000/svg" xmlns:xlink="http://www.w3.org/1999/xlink" x="0px" y="0px"
	 viewBox="0 0 94.5 94.5" enable-background="new 0 0 94.5 94.5" xml:space="preserve">
<g>
	<path fill="none" stroke="#FFFFFF" stroke-width="3" stroke-miterlimit="10" d="M2.8,47.3c0-24.6,19.9-44.5,44.5-44.5
		s44.5,19.9,44.5,44.5S71.8,91.8,47.3,91.8S2.8,71.8,2.8,47.3L2.8,47.3z"/>
	<path fill="#FFFFFF" d="M17.8,27.6c-1-1.3,0-4.5,2.8-7c2.8-2.5,6.2-4.4,8.1-2.2c0.6,0.7,0.9,1.8,0.8,2.9s-0.5,2-1.2,2.7
		c-1.4,1.3-2.9,1.9-5.2,3S19,29.1,17.8,27.6L17.8,27.6z"/>
	<path fill="#FFFFFF" d="M13.9,32.6c-0.3-0.4,0-1.3,0.8-2.1c0.8-0.7,1.8-1.3,2.4-0.7c0.2,0.2,0.3,0.5,0.2,0.9c0,0.3-0.1,0.6-0.4,0.8
		c-0.4,0.4-0.9,0.6-1.5,0.9C14.8,32.7,14.2,33,13.9,32.6z"/>
	<path fill="#FFFFFF" d="M72.2,71.9c1,1.3,0,4.5-2.8,7c-2.8,2.5-6.2,4.4-8.1,2.2c-0.6-0.7-0.9-1.8-0.8-2.9s0.5-2,1.2-2.7
		c1.4-1.3,2.9-1.9,5.2-3S71,70.4,72.2,71.9L72.2,71.9z"/>
</g>
</svg>
