<?xml version="1.0" encoding="utf-8"?>
<!-- Generator: Adobe Illustrator 28.4.1, SVG Export Plug-In . SVG Version: 6.00 Build 0)  -->
<!DOCTYPE svg PUBLIC "-//W3C//DTD SVG 1.1//EN" "http://www.w3.org/Graphics/SVG/1.1/DTD/svg11.dtd" [
	<!ENTITY ns_extend "http://ns.adobe.com/Extensibility/1.0/">
	<!ENTITY ns_ai "http://ns.adobe.com/AdobeIllustrator/10.0/">
	<!ENTITY ns_graphs "http://ns.adobe.com/Graphs/1.0/">
	<!ENTITY ns_vars "http://ns.adobe.com/Variables/1.0/">
	<!ENTITY ns_imrep "http://ns.adobe.com/ImageReplacement/1.0/">
	<!ENTITY ns_sfw "http://ns.adobe.com/SaveForWeb/1.0/">
	<!ENTITY ns_custom "http://ns.adobe.com/GenericCustomNamespace/1.0/">
	<!ENTITY ns_adobe_xpath "http://ns.adobe.com/XPath/1.0/">
]>
<svg version="1.1" id="Layer_1" xmlns:x="&ns_extend;" xmlns:i="&ns_ai;" xmlns:graph="&ns_graphs;"
	 xmlns="http://www.w3.org/2000/svg" xmlns:xlink="http://www.w3.org/1999/xlink" x="0px" y="0px" viewBox="0 0 466.137 466.137"
	 enable-background="new 0 0 466.137 466.137" xml:space="preserve">
<metadata>
	<sfw  xmlns="&ns_sfw;">
		<slices></slices>
		<sliceSourceBounds  bottomLeftOrigin="true" height="1860.713" width="2201.936" x="-920.789" y="-2081.878"></sliceSourceBounds>
	</sfw>
</metadata>
<g>
	<path fill="#D36264" d="M233.068,466.137c-62.255,0-120.784-24.243-164.804-68.264C24.243,353.852,0,295.323,0,233.068
		S24.243,112.285,68.264,68.264C112.285,24.243,170.813,0,233.068,0s120.783,24.243,164.804,68.264
		c44.021,44.021,68.264,102.55,68.264,164.805s-24.243,120.783-68.264,164.805C353.852,441.894,295.323,466.137,233.068,466.137z
		 M233.068,41C127.162,41,41,127.161,41,233.068s86.162,192.068,192.068,192.068s192.068-86.161,192.068-192.068
		S338.975,41,233.068,41z"/>
	<g>
		<path fill="#EBBCB7" d="M193.207,453.321c-2.891-0.376-5.781-0.751-8.672-1.127c-1.109-1.467-2.629-1.058-4.095-0.895
			c-1.97-0.659-3.941-1.319-5.911-1.978c-1.685-2.019-4.417-0.803-6.35-2.057c-1.267-0.238-2.534-0.476-3.802-0.714
			c-1.051-2.319-3.637-1.14-5.204-2.283c-1.576-0.31-3.152-0.621-4.728-0.931c-0.996-2.44-3.564-2.077-5.396-3.027l-0.264,0.132
			l-0.281-0.091c-1.39-2.634-4.388-1.853-6.459-3.04l-0.257,0.137l-0.275-0.093c-1.248-1.795-2.963-2.424-5.085-2.034
			c-1.301-0.675-2.602-1.351-3.903-2.026c-0.445-0.897-1.193-1.105-2.11-0.928c-1.326-0.67-2.652-1.339-3.979-2.009
			c-0.379-0.899-1.087-1.162-1.998-1.032c-0.968-0.691-1.936-1.383-2.903-2.074c-0.721-1.176-2.081-1.422-3.115-2.141
			c-0.628-0.299-1.255-0.598-1.883-0.897c-1.223-1.858-3.172-2.481-5.162-3.033c-0.611-0.363-1.223-0.726-1.834-1.09
			c-0.584-0.54-0.416-1.656-1.429-1.868c-0.522-0.051-1.045-0.101-1.567-0.152c-0.746-1.328-1.672-2.455-3.234-2.86
			c-0.958-0.614-1.916-1.227-2.874-1.841c-0.54-0.966-1.25-1.742-2.344-2.086c-0.557-0.291-1.114-0.582-1.671-0.873
			c-0.512-1.368-1.933-1.54-2.95-2.244l0.01,0.011c-0.525-1.502-1.801-2.219-3.073-2.939l-0.001,0.005
			c-8.11-6.454-8.09-14.395-5.039-23.476c2.698-8.032,3.836-16.505,4.755-24.957c0.424-3.9,2.833-6.153,6.654-6.14
			c23.941,0.084,47.98-1.92,71.71,3.091c1.316,0.278,2.548,0.759,3.759,1.324c5.215,2.434,10.656,3.58,16.457,3.443
			c5.48-0.13,10.949,0.141,16.445,0.63c12.113,1.077,21.643,8.256,32.23,12.884c3.301,1.443,6.42,2.47,10.002,2.456
			c13.16-0.053,26.32,0,39.479-0.037c3.937-0.011,7.62,0.55,10.781,3.141c1.757,1.44,3.889,1.8,6.101,1.84
			c2.499,0.045,4.997,0.023,7.496,0.034c9,0.04,9.086,0.037,11.411,8.785c1.098,4.131,3.521,6.245,7.837,6.185
			c1.831-0.026,3.734,0.35,5.485-0.024c9.587-2.049,16.038,3.383,22.352,9.159c2.857,2.613,2.793,5.709,0.483,8.475
			c-4.754,5.692-9.056,11.953-16.827,14.176c-3.061,0.876-4.643,3.636-6.336,6.115c-1.581,0.637-3.163,1.274-4.744,1.911
			c-0.791,0.349-1.898,0.13-2.253,1.259c-1.674,0.909-3.349,1.817-5.023,2.726c-2.215-0.019-4.444-0.08-5.93,2.029l-0.011-0.021
			c-4.674,2.046-9.788,2.886-14.415,4.955c-7.027,3.142-14.715,2.539-21.954,4.395c-2.426,0.622-4.108,2.01-5.763,3.642
			c-1.633,0.35-3.266,0.701-4.899,1.051c-6.515-0.063-13.145-0.921-19.115,2.77c-1.627,0.077-3.255,0.155-4.882,0.232
			c-7.072-0.311-14.143-0.309-21.215-0.001c-4.968-0.339-9.936-0.678-14.904-1.017C205.083,453.381,199.317,452.342,193.207,453.321
			z"/>
		<path fill="#EEB7B2" d="M335.641,432.347c-0.093-4.796,2.687-6.746,6.908-8.407c3.54-1.393,8.168-1.915,9.481-7.084
			c0.438-1.723,3.089-2.821,4.576-4.353c4.127-4.25,3.595-6.944-1.689-9.448c-1.169-0.554-2.856-1.11-3.222-2.075
			c-1.914-5.044-5.888-5.127-10.245-4.908c-3.489,0.175-6.994,0.042-10.491,0.034c-7.382-0.017-10.001-2.151-10.288-9.683
			c-0.16-4.214-1.628-5.633-5.664-5.366c-3.648,0.241-7.384,0.453-10.97-0.076c-2.875-0.425-5.559-2.051-8.373-3.01
			c-2.14-0.729-4.346-1.755-6.532-1.78c-13.989-0.161-28.008-0.602-41.959,0.134c-7.093,0.374-11.55-4.386-17.395-6.284
			c-4.359-1.416-8.056-4.92-12.426-6.24c-6.101-1.843-12.518-2.816-18.868-3.617c-7.836-0.988-16.278,0.137-23.52-2.366
			c-25.734-8.893-52.173-4.52-78.304-5.691c-3.203-0.143-4.701,1.466-5.174,4.725c-1.09,7.498-2.329,14.986-3.879,22.401
			c-0.913,4.367-3.085,8.52-3.602,12.898c-0.249,2.104,2.015,4.511,3.159,6.772c1.069,2.113,2.162,4.214,3.243,6.321
			c-5.324-4.642-10.646-9.286-15.968-13.93c-2.43-4.776-6.715-8.002-10.043-12.028l-0.034-0.037
			c-1.306-3.502-3.571-6.263-6.31-8.782c-5.592-5.143-8.906-11.912-12.654-18.356c-0.862-1.483-1.18-3.097-0.962-4.814
			c0.485-6.097,0.75-6.544,6.721-6.74c3.339-0.11,5.51-1.237,7.253-4.182c4.188-7.08,9.823-12.074,18.78-11.874
			c2.643,0.059,5.365-0.492,7.821-1.514c15.284-6.364,31.367-6.704,47.534-6.493c1.333,0.017,2.72-0.109,3.977,0.292
			c15.177,4.843,31.063,4.98,46.647,7.119c10.65,1.462,20.418,5.728,30.125,10.029c3.371,1.494,6.723,2.796,10.315,3.645
			c17.94,4.24,36.104,5.697,54.504,4.949c6.797-0.276,13.654-0.574,20.147,2.432c1.931,0.894,4.27,0.515,6.437,0.517
			c11.662,0.011,23.323,0.023,34.985-0.008c3.907-0.01,7.279,0.818,9.337,4.511c0.896,1.608,2.492,2.026,4.101,2.562
			c6.148,2.048,12.47,3.525,18.472,6.075c5.429,2.307,11.257,2.825,17.139,2.904c6.734,0.091,12.194,2.919,16.331,8.236
			c1.02,1.31,2.083,2.655,1.586,4.52c-0.372,0.609-0.743,1.217-1.115,1.826c-3.777,2.997-6.457,6.906-9.056,10.883
			c-0.897,0.749-1.793,1.498-2.69,2.247c-5.099,3.582-9.726,7.652-13.271,12.84l-0.01,0.01c-5.669,3.914-11.588,7.522-15.978,13.008
			c-0.235,0.104-0.48,0.153-0.737,0.15c-1.347,0.636-2.554,1.434-3.262,2.812c-0.248,0.106-0.508,0.161-0.778,0.165
			c-0.871,0.486-1.534,1.208-2.187,1.94C350.256,424.221,342.948,428.284,335.641,432.347z"/>
		<path fill="#F2AFA8" d="M45.536,348.108c3.569,9.031,8.154,17.447,15.902,23.579c2.701,2.137,3.639,4.383,2.926,7.56
			c-3.014-3.145-6.488-5.97-8.946-9.502c-5.647-8.113-10.762-16.595-16.186-24.866c-0.951-1.45-2.356-2.603-3.551-3.893
			c-0.209-0.138-0.418-0.276-0.63-0.412c-1.732-4.102-4.307-7.867-4.999-12.391c-5.003-11.379-8.935-23.104-11.747-35.223
			c-0.547-2.359-1.156-4.85-2.768-6.853c-0.051-1.972-0.102-3.944-0.153-5.915c0.481-7.16,1.84-8.528,9.202-8.666
			c3.276-0.061,6.184-0.33,8.323-3.375c1.541-2.193,4.193-2.531,6.75-2.615c3.66-0.12,7.325-0.134,10.983-0.036
			c4.708,0.126,9.305-0.225,13.692-2.124c1.065-0.461,2.21-0.805,3.358-0.949c8.164-1.024,16.484-1.157,24.254-4.384
			c1.706,0.237,3.369,0.614,4.793,1.664c3.602,7.122,10.263,8.671,17.245,8.776c12.62,0.191,25.236,1.74,37.877,0.143
			c4.511-0.57,8.43,0.84,11.77,4.211c4.574,4.616,10.946,5.907,16.855,6.998c8.473,1.564,14.055,6.238,18.629,12.966
			c1.546,2.274,3.191,4.87,6.743,3.79c0.71-0.296,1.45-0.44,2.213-0.434c0.482,0.028,0.954,0.139,1.409,0.3
			c1.865,1.325,3.678,1.672,5.362-0.316c0.796-0.611,1.678-0.94,2.697-0.836c0.498,0.095,0.951,0.293,1.374,0.57
			c1.086,1.079,2.051,2.303,3.54,2.907c6.696,3.011,13.813,1.612,20.687,1.644c15.658,0.072,31.465-1.291,46.944,0.364
			c16.492,1.763,32.893,1.162,49.33,1.606c4.714,0.127,8.322,2.257,11.405,5.427c2.355,2.421,5.055,3.388,8.358,3.804
			c10.973,1.382,21.969,0.519,32.951,0.719c3.323,0.061,4.656-1.67,5.209-4.755c1.11-6.188,2.528-7.508,8.803-7.98
			c5.648-0.425,11.333-0.607,16.9,0.858c3.757,0.989,7.601,0.829,11.422,1.034c3.016,0.162,5.641,0.969,6.273,4.501
			c0.087,0.859,0.026,1.707-0.257,2.527c-0.566,1.443-1.762,2.683-1.443,4.426c-0.276,5.797-2.387,11.108-4.341,16.46
			c-4.79,8.841-9.476,17.741-14.424,26.492c-1.858,3.286-4.325,6.228-6.515,9.327c-8.028-2.107-13.908-6.121-13.871-15.477
			c0.013-3.233-1.676-4.825-4.915-5.013c-8.455-0.491-14.82-4.638-19.377-11.592c-1.672-2.552-3.923-3.118-6.726-3.457
			c-21.205-2.567-42.501-1.931-63.775-1.946c-4.221-0.003-7.939-0.776-10.63-4.321c-1.963-2.586-4.788-2.705-7.674-2.707
			c-9.995-0.006-19.99-0.073-29.984,0.03c-4.47,0.046-8.516-0.76-12.223-3.468c-5.315-3.882-11.549-2.611-17.451-2.406
			c-9.99,0.348-19.828-2.023-29.813-1.375c-0.488,0.032-1.039-0.051-1.46-0.294c-11.306-6.547-24.64-5.969-36.546-10.403
			c-1.09-0.406-2.262-0.762-3.409-0.733c-7.429,0.187-13.282-2.449-17.101-9.085c-0.892-1.549-2.594-2.213-4.311-2.105
			c-11.876,0.748-23.53-1.959-35.344-2.199c-4.553-0.092-8.163,0.763-9.821,5.694c-1.098,3.267-4.066,4.158-7.207,4.457
			c-10.106,0.961-20.201,1.759-29.839,5.526c-3.426,1.339-5.808,3.025-6.745,6.586c-0.254,0.964-0.483,1.984-1.013,2.815
			c-6.837,10.713-5.803,21.362,0.165,32C45.096,346.494,45.202,347.345,45.536,348.108z"/>
		<path fill="#F0B4AD" d="M45.536,348.108c-1.793-2.625-3.602-5.238-5.374-7.877c-2.621-3.903-2.066-18.904,0.443-22.882
			c1.643-2.606,2.848-5.564,3.801-8.51c1.095-3.384,3.239-4.672,6.556-5.889c10.886-3.993,22.203-4.831,33.532-6.06
			c1.467-0.159,3.34-2.608,3.847-4.34c1.117-3.817,3.214-5.638,7.136-5.443c13.574,0.675,27.155,1.244,40.713,2.157
			c1.576,0.106,3.609,1.794,4.425,3.296c2.932,5.393,7.066,7.271,13.267,7.825c7.639,0.683,15.089,3.431,22.637,5.221
			c2.544,0.603,5.125,1.351,7.706,1.42c3.743,0.099,7.286-0.057,9.675,3.707c0.545,0.858,2.299,1.209,3.54,1.323
			c7.89,0.726,15.783,1.583,23.694,1.864c5.271,0.187,10.585-0.845,15.859-0.678c2.833,0.09,6.213,0.843,8.299,2.566
			c3.424,2.827,6.965,3.391,11.081,3.343c10.823-0.126,21.65,0.027,32.473-0.087c3.078-0.033,5.113,0.843,7.158,3.406
			c1.495,1.873,4.553,3.388,6.973,3.478c10.145,0.378,20.319-0.096,30.468,0.224c12.881,0.406,25.752,1.212,38.614,2.048
			c1.405,0.091,3.342,1.181,3.981,2.372c4.384,8.16,10.926,12.576,20.289,12.511c3.871-0.027,5.111,2.032,5.296,5.658
			c0.149,2.924,0.672,5.968,1.776,8.652c0.634,1.54,2.705,2.539,4.225,3.651c1.993,1.458,4.08,2.788,6.129,4.174
			c-2.369,3.013-4.739,6.026-7.109,9.039c-5.099-7.994-12.119-11.434-21.848-11.465c-6.005-0.019-12.008-2.912-18-4.56
			c-4.902-1.349-9.829-2.635-14.654-4.223c-1.668-0.549-3.962-1.627-4.411-2.98c-1.166-3.519-3.481-3.976-6.551-3.963
			c-12.993,0.056-25.988,0.102-38.98-0.048c-2.373-0.027-4.729-1.017-7.103-1.512c-2.417-0.504-4.838-1.298-7.271-1.352
			c-7.826-0.174-15.675-0.399-23.484,0.006c-15.779,0.817-30.876-3.067-46.082-6.193c-2.336-0.48-4.323-2.467-6.643-3.251
			c-9.266-3.13-18.426-6.918-27.953-8.838c-10.781-2.172-21.922-2.527-32.886-3.835c-3.245-0.387-6.571-0.937-9.608-2.08
			c-9.888-3.72-20.013-1.489-30.027-1.475c-4.422,0.006-8.889,0.809-13.247,1.688c-2.64,0.533-5.045,2.159-7.672,2.846
			c-5.231,1.368-10.558,3.452-15.817,3.371c-7.687-0.119-11.487,5.075-14.062,10.075c-2.756,5.351-6.093,6.108-10.976,5.644
			c-0.967-0.092-1.962,0.107-2.873,0.168C46.154,344.374,45.845,346.241,45.536,348.108z"/>
		<path fill="#F4ADA6" d="M439.546,307.113c-1.106-1.328-2.105-3.691-3.336-3.819c-9.382-0.975-18.804-1.586-28.225-2.126
			c-1.934-0.111-4.135,0.125-5.8,0.992c-1.359,0.708-2.954,2.584-2.975,3.965c-0.108,7.186-0.706,8.096-7.85,7.955
			c-11.794-0.233-23.59-0.543-35.373-1.087c-1.65-0.076-3.536-1.364-4.784-2.617c-3.716-3.73-7.402-6.355-13.279-6.424
			c-26.553-0.312-53.098-1.238-79.649-1.813c-9.329-0.202-18.676,0.223-27.992-0.17c-3.282-0.138-6.497-1.862-9.743-2.861
			c0.092-2.638,1.994-2.656,3.894-2.696c0.551,0.081,1.08,0.227,1.601,0.41c1.212,0.088,2.34-0.126,3.275-0.939
			c2.642-2.295,5.554-2.116,8.395-0.652c3.018,1.556,5.967,1.245,9.196,0.805c9.606-1.309,19.296-0.481,28.949-0.549
			c8.01-0.056,16.018,0.526,22.898-4.947c1.841-1.465,4.478-1.077,6.809-1.085c10.497-0.033,20.994-0.038,31.49,0.002
			c3.563,0.014,6.95-0.438,10.099-2.257c2.687-1.553,5.691-1.746,8.719-1.751c9.664-0.015,19.327,0.011,28.991-0.012
			c4.644-0.011,9.32,0.391,13.663-2.016c1.802-0.999,3.916-0.415,5.907-0.233c8.106,0.741,15.704,0.252,22.817-4.915
			c5.092-3.699,11.632-1.573,17.563-1.606c3.074,0.386,5.411,1.993,7.274,4.392c0.661,1.461,0.516,2.809-0.584,4.016l-0.396-0.069
			c-3.151,1.974-2.353,5.561-3.423,8.385c-0.052,0.904-0.104,1.809-0.156,2.713c-2.486,2.406-1.779,6.233-3.921,8.801
			C442.53,306.189,441.998,308.395,439.546,307.113z"/>
		<path fill="#EEB7B2" d="M275.546,453.242c0.414-3.808,2.429-5.291,6.338-5.267c2.274,0.014,4.56-1.287,6.833-2.017
			c0.611-0.196,1.355-0.837,1.771-0.657c7.491,3.238,12.949-1.702,19.09-4.367c2.355-1.022,5.379-0.502,8.099-0.684
			c-0.321,0.543-0.541,1.451-0.981,1.574C302.992,445.677,289.268,449.454,275.546,453.242z"/>
		<path fill="#F8A79E" d="M439.546,307.113c1.669-2.594,3.274-5.233,5.034-7.763c0.827-1.188,1.952-2.169,2.941-3.244
			c-3.854,10.846-7.7,21.695-11.599,32.525c-0.13,0.361-0.806,0.527-1.226,0.786c0.951-5.766,1.901-11.535,2.851-17.303
			c1.023-0.764,0.969-2.243,1.996-3.005C439.542,308.443,439.544,307.778,439.546,307.113z"/>
		<path fill="#EEB7B2" d="M193.207,453.321c4.919-3.137,15.222-1.381,17.324,2.955C204.756,455.292,198.982,454.306,193.207,453.321
			z"/>
		<path fill="#EEB7B2" d="M251.532,457.064c0.889-1.083,1.754-3.075,2.671-3.099c5.474-0.143,10.96,0.168,16.444,0.327
			C264.275,455.217,257.903,456.14,251.532,457.064z"/>
		<path fill="#F4AAA2" d="M364.527,415.09c3.213-3.329,6.255-6.854,9.713-9.905c1.688-1.489,4.153-2.096,6.266-3.103
			C375.179,406.418,369.853,410.754,364.527,415.09z"/>
		<path fill="#F4AAA2" d="M380.515,402.073c1.858-6.93,6.729-10.748,13.269-12.841C389.362,393.512,384.939,397.792,380.515,402.073
			z"/>
		<path fill="#EEB7B2" d="M225.435,457.294c7.071,0,14.142-0.001,21.214,0C239.578,457.295,232.506,457.295,225.435,457.294z"/>
		<path fill="#F8A79E" d="M396.476,386.985c0.569-4.758,4.863-9.918,9.056-10.883C402.513,379.73,399.495,383.357,396.476,386.985z"
			/>
		<path fill="#F2AFA8" d="M64.396,379.286c3.367,0.777,9.582,8.218,10.044,12.026C71.091,387.304,67.743,383.295,64.396,379.286z"/>
		<path fill="#F8A79E" d="M447.676,293.392c-0.417-3.433-2.812-7.676,3.427-8.384c-0.218,1.359-0.432,2.718-0.646,4.077
			C449.529,290.521,448.603,291.956,447.676,293.392z"/>
		<path fill="#EEB7B2" d="M317.689,440.272c0.772-4.193,3.093-3.863,5.929-2.03C321.643,438.919,319.666,439.596,317.689,440.272z"
			/>
		<path fill="#EEB7B2" d="M142.045,437.31c2.433,0.417,6.32-2.26,6.459,3.038C146.351,439.337,144.198,438.323,142.045,437.31z"/>
		<path fill="#EEB7B2" d="M149.049,440.309c2.296,0.121,5.643-1.635,5.396,3.025C152.646,442.326,150.848,441.317,149.049,440.309z"
			/>
		<path fill="#EEB7B2" d="M136.428,435.32c2.842-2.197,4.5-1.428,5.085,2.032C139.818,436.676,138.123,435.998,136.428,435.32z"/>
		<path fill="#EEB7B2" d="M168.179,447.263c2.205,0.411,5.267-1.829,6.35,2.055C172.412,448.635,170.296,447.949,168.179,447.263z"
			/>
		<path fill="#EEB7B2" d="M159.173,444.266c1.941,0.287,4.851-1.642,5.204,2.279C162.643,445.788,160.908,445.027,159.173,444.266z"
			/>
		<path fill="#EEB7B2" d="M111.374,421.179c2.371-0.097,4.873-0.417,5.162,3.032C114.816,423.201,113.095,422.19,111.374,421.179z"
			/>
		<path fill="#EEB7B2" d="M180.44,451.299c1.782-1.614,3.309-2.058,4.095,0.895C183.17,451.895,181.805,451.597,180.44,451.299z"/>
		<path fill="#F4AAA2" d="M360.528,418.052c1.086-0.938,2.172-1.876,3.26-2.813C362.702,416.177,361.615,417.115,360.528,418.052z"
			/>
		<path fill="#EEB7B2" d="M90.406,405.239c1.025,0.979,2.049,1.959,3.074,2.938C92.455,407.198,91.431,406.219,90.406,405.239z"/>
		<path fill="#EEB7B2" d="M103.31,415.21c1.078,0.953,2.156,1.907,3.234,2.86C105.466,417.116,104.388,416.163,103.31,415.21z"/>
		<path fill="#EEB7B2" d="M118.42,425.11c1.038,0.713,2.077,1.425,3.115,2.139C120.496,426.537,119.458,425.823,118.42,425.11z"/>
		<path fill="#EEB7B2" d="M93.47,408.167c0.984,0.746,1.967,1.492,2.951,2.241C95.436,409.662,94.453,408.915,93.47,408.167z"/>
		<path fill="#EEB7B2" d="M124.438,429.324c0.667,0.343,1.333,0.686,1.999,1.03C125.77,430.013,125.104,429.668,124.438,429.324z"/>
		<path fill="#EEB7B2" d="M98.091,411.283c0.782,0.694,1.564,1.388,2.345,2.084C99.654,412.674,98.872,411.978,98.091,411.283z"/>
		<path fill="#EEB7B2" d="M130.415,432.366c0.703,0.308,1.407,0.616,2.11,0.926C131.822,432.984,131.119,432.675,130.415,432.366z"
			/>
		<path fill="#F4AAA2" d="M357.563,420.157c0.728-0.647,1.456-1.295,2.185-1.941C359.021,418.864,358.292,419.511,357.563,420.157z"
			/>
		<path fill="#EEB7B2" d="M108.111,418.221c0.476,0.623,0.953,1.246,1.429,1.869C109.064,419.467,108.588,418.844,108.111,418.221z"
			/>
		<path fill="#EEB7B2" d="M328.643,435.517c0.749-0.42,1.498-0.84,2.25-1.259C330.145,434.678,329.394,435.098,328.643,435.517z"/>
		<path fill="#FA9B91" d="M267.553,14.137c1.63,0.04,3.26,0.079,4.891,0.119c0.953,0.798,2.243,0.936,3.235,1.656
			c0.292,0.014,0.578,0.062,0.859,0.144c2.345,2.832-1.353,4.802-1.097,7.439c2.176,1.764,4.834,1.333,7.151,1.015
			c7.327-1.006,12.703,2.183,15.534,8.327c3.785,8.214,11.345,10.242,18.534,12.722c4.517,1.558,7.769,3.58,10.366,7.742
			c3.759,6.024,10.394,9.158,15.882,13.384c3.139,2.417,6.033,4.6,6.917,8.687c0.353,1.631,1.128,3.217,2.432,4.295
			c4.3,3.553,8.029,7.453,9.655,13.016c0.489,1.675,2.129,2.486,3.693,3.158c1.713,0.736,3.396,1.611,4.114,3.43
			c0.881,2.231,2.003,3.477,4.762,3.27c2.105-0.159,3.267,1.834,3.262,3.757c-0.019,7.21,0.845,14.164,3.996,20.796
			c0.888,1.868,0.306,4.28,0.307,6.444c0.003,10.494,0.054,20.988-0.019,31.482c-0.046,6.597-0.671,7.428-6.906,8.86
			c-3.896,0.895-6.447,2.646-7.481,6.911c-1.388,5.729-5.536,9.786-10.022,13.337c-2.956,2.339-4.43,5.141-4.623,8.943
			c-0.328,6.454-5.647,12.453-12.013,13.31c-4.524,0.609-8.707,2.158-12.984,3.514c-0.804,0.14-1.579,0.057-2.32-0.297
			c-0.663-0.456-1.059-1.108-1.345-1.838c-1.473-3.78-4.443-6.367-7.261-9.074c-1.513-1.453-3.495-2.665-2.683-5.301
			c2.411-4.651,5.999-8.085,10.114-11.37c8.364-6.676,15.313-14.768,20.874-23.983c0.971-1.61,1.741-3.323,1.578-5.176
			c-0.891-10.135,0.776-20.168,1.105-30.252c0.232-7.112-1.864-13.812-3.543-20.57c-0.853-3.434-2.981-6.272-5.482-8.809
			c-7.009-7.108-13.902-14.282-18.49-23.351c-3.25-6.423-10.014-6.879-15.889-7.825c-5.057-0.814-8.06-2.919-11.208-6.948
			c-4.129-5.284-10.087-9.006-15.882-12.567c-1.446-0.888-3.252-0.8-4.876-0.284c-6.843,2.174-13.874,1.151-20.834,1.292
			c-2.034,0.041-4.199-0.211-5.391-2.042c-2.35-3.61-5.772-4.117-9.603-3.911c-1.659,0.089-3.331,0.075-4.992-0.039
			c-5.263-0.36-6.959-3.26-4.658-8.127c0.922-1.949,1.882-4.031,3.6-5.348c2.496-1.913,3.376-4.404,3.534-7.343
			c5.81-8.625,13.571-13.562,24.319-12.749C261.627,14.206,264.591,14.016,267.553,14.137z"/>
		<path fill="#FA9D94" d="M84.399,69.055c8.623-6.952,16.797-14.572,25.955-20.729C135.426,31.469,163,20.386,192.807,15.16
			c7.482-1.312,15.085-1.936,22.632-2.876c4.841,2.354,5.128,3.152,2.694,7.452c-4.644,1.372-7.761,4.317-9.233,8.97
			c-0.2,0.633,0.269,0.059-0.187,0.443c-6.779,5.71-10.773,15.073-21.025,16.235c-5.943,0.674-11.7,2.417-17.718,2.742
			c-5.561,0.301-10.561,2.611-13.806,7.124c-4.257,5.92-10.665,8.558-16.784,11.043c-4.824,1.96-9.577,4.57-14.941,5.312
			c-5.912,0.818-7.634,2.781-8.502,8.622c-1.253,8.439-4.038,16.106-10.775,21.898c-5.127,4.408-7.498,10.175-10.188,16.439
			c-3.215,7.486-2.426,14.484-2.874,21.762c-0.184,2.984,1.188,5.293,4.172,6.049c8.216,2.083,12.303,8.231,15.067,15.438
			c4.228,11.023,12.213,16.408,23.813,16.847c1.167,0.044,2.402-0.022,3.45,0.472c10.525,4.968,21.863,8.13,31.855,14.264
			c1.866,1.145,3.652,2.62,1.904,5.231c-1.807,1.156-3.89,1.333-5.78,0.783c-5.784-1.685-11.816-1.752-17.66-2.976
			c-1.47-0.308-3.104-0.495-4.205-1.459c-5.41-4.736-12.281-5.227-18.742-7.235c-7.124-2.214-14.143-3.29-21.476-3.192
			c-6.052-0.675-11.803-2.052-16.175-6.772c-1.595-1.722-3.767-1.949-5.957-2.103c-4.509-0.316-8.848-1.442-13.158-2.749
			c-3.27-0.991-5.103-3.047-5.152-6.487c-0.181-12.806-0.27-25.614,0.056-38.419c0.056-2.211,0.729-4.377,2.28-5.95
			c3.077-3.12,4.158-6.921,3.477-10.996c-1.643-9.834,3.224-15.502,11.726-18.694c4.176-1.568,5.558-4.318,5.358-8.409
			c-0.065-1.326-0.191-2.774,0.328-3.957C89.252,75.531,87.797,72.065,84.399,69.055z"/>
		<path fill="#FA9D94" d="M327.522,219.115c3.641-1.334,7.191-3.367,10.942-3.858c8.073-1.055,12.475-5.562,13.254-13.537
			c0.273-2.801,1.989-6.054,4.083-7.966c5.061-4.621,9.902-8.813,11.271-16.301c0.407-2.224,5.464-4.575,8.666-5.066
			c4.05-0.622,4.889-2.214,4.852-5.79c-0.129-12.329-0.032-24.66-0.073-36.99c-0.005-1.475,0.208-3.385-0.584-4.352
			c-4.382-5.346-3.236-11.599-3.458-17.677c-0.049-1.352-0.888-2.675-1.363-4.012c-1.302,0.618-2.604,1.237-4.534,2.153
			c-0.434-1.314-0.634-2.953-1.46-4.165c-1.114-1.635-2.685-2.966-4.105-4.382c-1.753-1.748-3.755-3.288-5.286-5.208
			c-2.505-3.14-4.683-6.538-7.064-9.78c-1.247-1.698-3.529-3.166-3.786-4.962c-0.758-5.295-4.777-7.234-8.224-10.297
			c-5.791-5.145-14.185-7.7-16.876-16.136c-0.261-0.817-1.235-1.686-2.076-1.994c-5.446-1.996-10.973-3.77-16.41-5.789
			c-1.461-0.543-2.959-1.456-3.976-2.608c-1.298-1.471-2.121-3.359-3.157-5.063c-3.56-5.858-7.509-10.954-15.627-9.288
			c-1.918,0.394-4.021,0.278-5.974-0.024c-1.304-0.202-2.877-0.878-3.578-1.872c-0.374-0.53,0.836-2.191,1.354-3.332
			c0.723-1.593,1.468-3.177,2.203-4.766c2.995,0.394,5.99,0.788,8.985,1.182c0.839,0.831,1.916,0.889,3.001,0.921
			c0.665,0.06,1.33,0.12,1.995,0.18c8.136,3.823,16.99,5.669,25.242,9.177c1.981,0.842,4.181,1.16,5.962,2.489
			c0.602,0.064,1.204,0.128,1.807,0.192c0.741,0.597,1.364,1.339,2.221,1.792c1.263,0.388,2.525,0.776,3.788,1.164
			c0.718,0.637,1.348,1.381,2.224,1.826c2.589,1.071,5.179,2.141,7.768,3.212c0.722,0.607,1.363,1.308,2.143,1.849
			c10.779,7.006,22.389,13.03,32.12,21.273c11.577,9.807,21.308,21.763,32.321,32.282c4.188,3.999,7.612,8.121,9.579,13.495
			c-1.335,1.158-1.852,2.54-1.841,4.379c0.031,5.373-2.016,8.546-6.916,10.142c-3.46,1.127-4.615,2.886-4.24,6.598
			c1.375,13.628-0.682,27.229-1.05,40.84c-0.15,5.55-2.658,11.151-3.183,16.97c-0.279,3.09-3.033,5.08-5.515,6.797
			c-10.011,6.924-17.27,16.022-21.494,27.424c-1.257,3.393-3.302,4.885-6.856,5.488c-5.86,0.994-11.835,1.583-17.377,4.147
			c-3.987,1.844-8.156-0.161-12.095-0.279c-2.931,3.884-0.227,10.832-7.198,12.026c-1.154-0.416-1.7-1.344-2.058-2.432
			c-0.172-0.822-0.104-1.626,0.202-2.406c2.683-4.315,2.674-8.912,1.214-13.57C326.821,221.729,326.408,220.426,327.522,219.115z"/>
		<path fill="#F8A79E" d="M451.506,281.11c-1.988-1.003-3.976-2.005-5.964-3.008c-1.065-1.679,0.095-2.56,1.346-3.048
			c2.509-0.978,2.644-2.798,2.748-5.175c0.379-8.683-1.628-17.183-1.703-25.812c-0.033-3.792-1.901-5.55-5.585-5.293
			c-4.807,0.335-9.593,0.926-14.409,1.194c-1.718,0.096-3.279,0.931-4.304,2.291c-7.116,9.441-18.024,11.376-28.384,14.253
			c-4.321,1.2-8.709,2.183-12.988,3.551c-2.076,0.664-4.171,1.454-5.572,3.177c-6.536,8.039-15.606,8.18-24.65,7.606
			c-6.337-0.402-12.625-0.026-18.933-0.01c-3.54,0.009-6.267,2.129-8.844,4.232c-4.207,3.433-8.969,4.32-14.322,4.744
			c-22.313,1.769-44.473-1.715-66.727-1.452c-3.822,0.045-7.672-0.557-10.403,3.21c-1.033,1.424-2.756,1.816-4.48,0.782
			c-1.708-2.19-1.34-4.687-0.799-7.07c0.417-1.836,0.502-3.545-0.172-5.29c-0.431-2.806-0.742-5.61,0.36-8.347
			c1.314-2.39,4.197-1.434,5.989-2.807c0.598-0.321,1.245-0.494,1.912-0.57c1.066-0.043,1.918-0.551,2.668-1.288
			c0.762-0.57,1.61-0.776,2.55-0.649c0.476,0.087,0.931,0.223,1.38,0.387c0.646,0.124,1.357,0.462,1.928,0.056
			c10.042-7.14,21.363-3.595,32.195-3.71c4.047-0.043,5.948,4.518,9.482,5.948c9.402,5.405,18.686,3.461,27.99-0.348
			c1.28-0.524,2.064-0.879,1.195-2.324c-0.033-0.464,0.046-0.9,0.246-1.317c3.106-0.798,6.313-1.425,7.829-4.822
			c0.891-0.486,1.859-1.006,2.831-0.908c9.24,0.934,17.485-3.218,26.211-4.884c7.832-1.495,15.796-2.261,23.472-4.617
			c3.824-1.173,7.722-2.127,11.29-3.986c2.222-1.159,4.767-2.366,5.436-4.9c1.934-7.325,7.867-9.015,14.007-10.142
			c6.577-1.206,6.616-0.97,6.668-7.829c0.02-2.664-0.125-5.336,0.222-7.989c0.464-3.541,1.82-6.401,5.665-7.38
			c3.449-0.878,4.491-3.501,3.877-6.544c-1.018-5.042,0.629-9.544,2.13-14.128c0.469-1.433,0.883-3.294,2.173-3.833
			c5.866-2.453,6.268-8.09,8.01-12.973c1.01-2.831,2.354-5.246,6.002-4.749c3.492,1.632,3.13,5.293,3.997,8.149
			c1.876,6.182,4.514,12.147,5.535,18.583c1.285,6.003,2.569,12.006,3.854,18.01c0.078,0.992,0.064,1.989,0.16,2.981
			c0.048,1.02,0.096,2.04,0.145,3.06c0.937,1.176,0.712,2.598,0.832,3.946c0.066,2.015,0.132,4.031,0.199,6.046
			c0.431,0.602,0.747,1.243,0.687,2.012c0.006,10.321,0.013,20.642,0.019,30.963c0.12,6.075,0.05,12.141-0.469,18.203
			c-0.216,2.523-0.749,4.863-2.45,6.819c-0.036,0.654-0.071,1.307-0.107,1.961C452.991,277.817,454.96,280.526,451.506,281.11z"/>
		<path fill="#FAA197" d="M84.399,69.055c6.506,2.147,6.702,2.956,4.65,9.59c-0.805,2.602-0.343,5.586-0.523,8.393
			c-0.204,3.177-0.947,5.442-4.917,6.224c-8.294,1.633-12.047,6.788-12.076,15.116c-0.02,5.524,1.152,11.289-4.556,15.344
			c-1.194,0.848-1.358,3.655-1.377,5.566c-0.117,12.138,0.025,24.28-0.114,36.418c-0.038,3.332,0.698,5.285,4.429,5.749
			c5.058,0.63,10.065,1.699,15.069,2.702c1.413,0.283,3.414,0.595,3.996,1.576c3.588,6.051,9.859,6.039,15.56,7.374
			c3.13,3.785,4.367,7.747,0.752,11.727c1.667,2.137,3.609,1.707,5.346,1.832c2.984,0.215,5.952,0.596,8.611,1.992
			c2.417,1.269,4.146,3.005,1.674,5.816c-0.656,0.46-1.39,0.683-2.182,0.741c-0.783,0.023-1.533-0.129-2.254-0.42
			c-1.661-1.257-3.574-1.405-5.559-1.23c-2.488,0.143-4.975,0.068-7.457,0.051c-2.236-0.421-3.985,0.645-5.673,1.883
			c-0.634,0.25-1.277,0.276-1.889,0.048c-0.317,0.275-0.614-1.532-0.999,0.02c-0.222,0.788-0.623,1.441-1.186,2.012
			c-0.354,0.301-0.732,0.547-1.14,0.759c-3.118,1.259-4.792,4.852-8.455,5.22c-2.381,0.2-3.471,3.179-6.19,2.985
			c-1.929-2.07-1.92-4.961-4.091-7.152c-7.381-7.447-17.003-7.462-26.12-8.572c-6.339-0.771-12.122-3.405-18.419-4.097
			c-2.245-0.246-3.534-2.32-4.036-4.623c-0.951-4.365-2.491-8.668-0.839-13.228c0.448-1.235,0.455-2.63-0.341-3.919
			c-1.597-1.218-4.016-0.162-5.505-1.833c8.463-29.241,21.818-55.976,41.666-79.153C67.761,85.198,76.319,77.332,84.399,69.055z"/>
		<path fill="#FAA197" d="M441.691,156.089c-7.162,0.068-5.252,6.686-6.842,10.338c-1.218,2.799-1.174,5.548-4.98,6.218
			c-1.148,0.202-2.635,1.811-2.915,3.019c-1.124,4.85-4.125,9.203-2.617,14.794c1.141,4.229,0.098,8.081-5.798,8.988
			c-1.615,0.248-3.407,3.995-3.817,6.361c-0.642,3.713-0.32,7.623-0.143,11.438c0.163,3.519-1.661,4.505-4.772,4.928
			c-3.371,0.458-6.666,1.482-9.99,2.28c-3.434,0.824-4.426,3.174-5.783,6.391c-1.319,3.128-5.257,6.202-8.661,7.202
			c-9.939,2.921-20.196,4.754-30.309,7.097c-5.085,1.178-10.09,2.722-15.201,3.758c-4.093,0.829-8.289,1.151-12.442,1.677
			c-1.624,0.206-3.254,0.355-4.882,0.53c-0.147-0.18-0.294-0.36-0.443-0.539c-0.626-3.021,1.949-5.137,2.223-7.908
			c0.208-0.712,0.544-1.346,1.109-1.842c0.728-0.329,1.413-0.303,2.035,0.246c4.877-0.82,3.661-5.327,4.872-8.293
			c0.59-1.446,0.339-3.235,0.515-5.458c1.443,0.152,2.754,0.02,3.839,0.452c4.546,1.814,8.443,1.694,13.144-0.785
			c4.159-2.193,9.545-2.278,14.442-2.773c2.938-0.297,4.415-0.76,5.602-4.064c4.18-11.636,11.275-21.267,21.801-28.153
			c3.739-2.446,6.384-5.416,6.026-10.583c-0.203-2.93,1.228-5.976,1.944-8.965c0.265-1.108,0.819-2.194,0.853-3.303
			c0.39-12.607,0.705-25.217,1.035-37.826c0.017-0.665,0.033-1.336-0.036-1.996c-0.721-6.984-0.6-6.668,6.456-9.488
			c2.217-0.886,3.56-3.962,5.478-6.244c-0.976-1.217-1.845-2.299-3.236-4.033c2.108-0.945,3.801-1.705,5.495-2.464
			c7,11.673,13.999,23.346,20.998,35.019c0.543,0.77,1.306,1.364,1.75,2.212c0.061,0.598,0.122,1.196,0.183,1.794
			c1.432,1.787,1.046,4.447,2.899,6.031c0.095,0.651,0.191,1.301,0.286,1.952C442.22,154.787,442.155,155.45,441.691,156.089z"/>
		<path fill="#F8A79E" d="M18.588,173.117c8.876-0.699,8.554-0.658,7.13,8.135c-0.638,3.939,0.631,8.231,1.349,12.307
			c0.144,0.818,1.627,1.793,2.636,2.002c6.243,1.292,12.515,2.451,18.799,3.528c6.639,1.138,13.326,2.015,19.933,3.309
			c1.161,0.227,2.057,1.921,3.024,2.985c0.742,0.817,1.262,2.253,2.123,2.476c4.147,1.075,5.507,3.671,4.48,7.423
			c2.299-1.125,4.393-2.149,6.487-3.173c1.581,1.872,0.358,3.273-0.726,4.777c-5.015,6.954-5.171,15.396-0.461,22.846
			c0.921,1.229,1.433,2.614,1.601,4.133c0.009,2.714,3.396,4.924,1.198,7.973c-3.293,1.992-5.061,0.693-6.497-2.565
			c-4.467-10.139-7.489-11.566-18.182-8.745c-2.937,0.775-5.861,1.195-8.878,1.146c-5.33-0.086-10.55-0.18-15.466,2.786
			c-3.2,1.93-7.164,1.356-10.804,1.167c-5.484-0.285-9.942,0.887-11.927,6.702c-0.215,0.63-0.845,1.007-1.458,1.306
			c-0.88,0.237-1.669,0.076-2.354-0.535c-0.046-1.317-0.093-2.635-0.139-3.952c0.002-1.71,0.471-3.48-0.653-5.044
			c-0.014-3.331-0.027-6.662-0.041-9.993c1.406-2.233,0.582-4.686,0.697-7.047c0.069-2.318,0.139-4.635,0.208-6.953
			c1.653-2.534,0.578-5.349,0.826-8.027c0.035-0.657,0.069-1.314,0.104-1.971c1.716-2.169,0.67-4.684,0.884-7.042
			c0.372-2.987,0.743-5.973,1.115-8.96c0.906-0.833,0.971-1.91,0.877-3.033c0.049-0.656,0.098-1.312,0.148-1.968
			c1.159-1.852,1.491-3.951,1.804-6.056C17.147,179.742,17.868,176.43,18.588,173.117z"/>
		<path fill="#F4ADA6" d="M12.54,253.108c3.759-9.001,3.759-8.998,13.986-9.003c4.959-0.002,10.064,0.657,14.115-3.319
			c0.419-0.411,1.21-0.562,1.847-0.616c8.372-0.711,16.737-1.68,25.125-1.985c9.614-0.35,9.859,0.07,13.114,9.144
			c0.498,1.389,0.908,2.809,1.387,4.299c1.55-0.193,3.007-0.374,4.464-0.555c0.566-0.615,1.281-0.884,2.102-0.911
			c1.115,0.07,1.985,0.553,2.567,1.522c0.35,0.667,0.551,1.383,0.666,2.123c-0.313,1.823,2.097,3.337,0.624,5.3
			c-7.152,4.024-15.492,2.711-22.834,4.853c-9.841,2.871-19.541,3.234-29.475,3.123c-3.36-0.037-6.088,0.399-7.785,4.005
			c-0.553,1.175-3.244,2.047-4.849,1.897c-5.965-0.557-10.815,0.246-12.211,7.207c-0.963-4.685-1.924-9.37-2.886-14.056
			c0.071-1.112,0.009-2.189-0.815-3.063c-0.062-1.646-0.125-3.292-0.187-4.938C11.697,256.43,11.109,254.559,12.54,253.108z"/>
		<path fill="#FA948A" d="M321.722,30.004c-9.731-3.257-19.471-6.489-29.177-9.82c-0.794-0.272-1.357-1.218-2.027-1.849
			c9.883,3.293,19.773,6.562,29.632,9.924C320.797,28.48,321.204,29.406,321.722,30.004z"/>
		<path fill="#FAA197" d="M11.495,212.083c1.23,2.831,2.571,5.674-0.828,8.028C10.945,217.435,11.22,214.759,11.495,212.083z"/>
		<path fill="#FAA197" d="M12.483,203.07c1.363,2.556,2.376,5.067-0.884,7.042C11.894,207.765,12.188,205.417,12.483,203.07z"/>
		<path fill="#FAA197" d="M10.461,227.064c1.423,2.514,2.254,4.969-0.699,7.047C9.996,231.761,10.228,229.412,10.461,227.064z"/>
		<path fill="#FAA197" d="M16.426,183.054c-0.602,2.019-1.204,4.037-1.805,6.056C15.224,187.091,15.825,185.072,16.426,183.054z"/>
		<path fill="#FAA197" d="M9.804,244.104c0.218,1.681,0.436,3.362,0.653,5.044C10.24,247.466,10.022,245.785,9.804,244.104z"/>
		<path fill="#FAA197" d="M12.54,253.108c-0.348,1.676-0.696,3.352-1.044,5.028c-0.3-1.679-0.601-3.357-0.9-5.036
			C11.244,253.103,11.892,253.105,12.54,253.108z"/>
		<path fill="#F67F74" d="M275.679,15.911c-1.078-0.553-2.156-1.106-3.234-1.657C273.522,14.807,274.6,15.359,275.679,15.911z"/>
		<path fill="#FA948A" d="M288.523,18.159c-1-0.308-2-0.616-3.001-0.922C286.523,17.545,287.523,17.852,288.523,18.159z"/>
		<path fill="#FAA197" d="M14.475,191.077c-0.293,1.011-0.585,2.022-0.877,3.033C13.89,193.099,14.182,192.088,14.475,191.077z"/>
		<path fill="#FAA197" d="M11.683,263.074c0.272,1.021,0.543,2.041,0.815,3.062C12.226,265.116,11.954,264.095,11.683,263.074z"/>
		<path fill="#FA948A" d="M341.673,40.038c-0.714-0.617-1.428-1.234-2.143-1.85C340.244,38.806,340.959,39.422,341.673,40.038z"/>
		<path fill="#FA948A" d="M331.762,34.978c-0.741-0.609-1.483-1.218-2.224-1.826C330.279,33.761,331.021,34.369,331.762,34.978z"/>
		<path fill="#FA948A" d="M325.75,31.988c-0.74-0.598-1.481-1.196-2.221-1.793C324.269,30.794,325.01,31.391,325.75,31.988z"/>
		<path fill="#F4AAA2" d="M228.438,282.09c1.087-0.292,2.966-0.344,3.14-0.914c1.974-6.476,7.524-4.548,11.588-4.517
			c11.755,0.088,23.5,1.106,35.258,1.392c10.899,0.265,21.816-0.155,32.713,0.156c4.673,0.133,8.558-1.136,11.843-4.15
			c4.172-3.827,8.834-5.328,14.528-5.046c7.83,0.387,15.693,0.062,23.542,0.109c5.846,0.035,10.537-1.945,14.129-6.813
			c1.161-1.572,3.409-2.664,5.377-3.263c8.221-2.502,16.545-4.662,24.79-7.087c6.594-1.939,12.836-4.403,16.843-10.659
			c0.945-1.476,3.147-2.77,4.911-2.982c5.745-0.691,11.561-1.146,17.334-1.013c1.704,0.039,4.688,2.197,4.824,3.602
			c1.097,11.382,1.655,22.816,2.34,33.631c-2.429,1.431-4.242,2.5-6.056,3.569c-2.662,0.002-5.327,0.075-7.987-0.011
			c-4.672-0.151-8.717,0.324-12.831,3.636c-6.246,5.029-14.188,3.429-21.648,3.122c-1.939-0.08-3.916,0.656-5.869,1.049
			c-1.896,0.382-3.78,1.138-5.674,1.155c-12.313,0.106-24.627,0.026-36.941,0.086c-1.793,0.009-4.096-0.191-5.287,0.78
			c-4.779,3.897-10.284,3.166-15.715,3.184c-6.656,0.022-13.312-0.018-19.968,0.011c-7.159,0.032-14.427-0.944-20.695,4.232
			c-1.67,1.379-4.606,1.651-6.972,1.688c-10.814,0.169-21.632-0.016-32.447,0.131c-3.106,0.042-6.204,0.766-9.303,1.197
			c-0.321,0.045-0.697,0.411-0.923,0.32c-5.965-2.405-11.909-4.017-17.832,0.103c-0.303-0.559-0.606-1.118-0.909-1.677
			c0.933-0.928,1.867-1.856,2.789-2.796c-0.93,0.932-1.863,1.861-2.79,2.796c-1.333,0.667-2.666,1.334-4,2.001
			c-0.684-1.039-1.368-2.077-2.052-3.116c-0.522-0.562-0.632-1.221-0.467-1.948c1.259-2.483,3.573-4.132,5.073-6.427
			C225.278,286.167,224.986,282.312,228.438,282.09z"/>
		<path fill="#F4AAA2" d="M206.544,297.074c-2.656,2.835-5.405,1.751-8.442-2.723c-3.203-4.718-6.122-9.882-12.26-11.567
			c-4.277-1.174-8.698-2.019-12.768-3.702c-4.122-1.704-7.889-4.267-11.821-6.437c-1.552-0.856-3.104-2.317-4.697-2.376
			c-4.443-0.165-8.908,0.438-13.363,0.419c-13.336-0.056-26.781,0.855-39.816-2.859c-3.569-1.017-7.528-2.535-6.838-7.72
			c1.724-1.744,3.646-0.571,5.46-0.296c2.046,0.31,4.023,1.228,6.152,0.541c0.492-0.069,0.987-0.071,1.481-0.032
			c1.858,0.483,3.836,0.289,5.662,0.945c2.801,0.438,4.436-3.509,7.401-1.647c0.972-2.118-0.216-3.864,0.09-5.621
			c1.341-3.312,3.592-5.901,6.391-8.057c2.442-0.942,3.392-3.524,5.475-4.927c2.981-2.007,5.668-2.212,7.641,1.023
			c2.428,3.98,6.074,5.081,10.224,4.575c9.503-1.157,16.873,3.43,24.085,8.52c1.413,0.997,2.686,1.932,4.503,1.374
			c0.753-0.16,1.497-0.15,2.232,0.092c0.464,0.22,0.849,0.539,1.164,0.942c0.78,2.246,2.704,2.024,4.527,2.175
			c5.345,0.444,5.878,1.108,5.999,6.301c0.077,3.31,0.469,6.595,2.059,9.598c0.787,1.498,1.272,3.083,1.336,4.781
			c-0.202,1.998,0.206,3.823,1.56,5.376c0.335,0.545,0.584,1.13,0.808,1.724c0.225,0.835,0.836,1.378,1.47,1.903
			c0.624,0.563,1.064,1.252,1.403,2.01c0.273,0.761,0.759,1.363,1.413,1.84c0.476,0.395,0.87,0.856,1.167,1.401
			C206.619,295.423,206.676,296.237,206.544,297.074z"/>
		<path fill="#9C2527" d="M197.632,281.115c-0.441-1.649-0.882-3.298-1.323-4.947c-0.895-3.814-2.169-7.571-1.622-11.593
			c0.417-3.074-0.733-4.616-4.066-4.532c-2.666,0.067-5.316-0.377-6.749-3.165l-0.128-0.097c-5.208-3.668-3.892-8.614-2.659-13.544
			c0.068-0.963,0.255-1.901,0.619-2.798c0.278-0.654,0.695-1.214,1.197-1.713c0.871-0.756,1.65-1.61,2.453-2.447
			c0.555-0.52,1.193-0.89,1.928-1.098c3.416-0.357,5.643,0.887,6.089,4.525c-0.167,1.592-1.215,2.696-2.146,3.862
			c-1.435,1.806-3.253,3.918-1.39,6.019c1.923,2.168,4.79,1.222,7.308,0.549c1.882-0.719,3.792-1.361,5.672-2.085
			c1.127-0.32,1.945-1.156,2.907-1.761c0.426-0.253,0.873-0.443,1.345-0.586c2.681-1.085,5.446-1.17,8.259-0.744
			c3.419,1.281,6.477,3.396,10.035,4.354c2.233,1.709,4.706,1.754,7.285,1.014c0.377-0.194,0.76-0.37,1.132-0.564
			c1.233-0.658,1.108-1.641,0.647-2.698c-0.765-1.622-1.827-3.11-2.204-4.906c-0.382-1.896-1.22-3.765-0.333-5.736
			c0.256-0.462,0.62-0.811,1.085-1.061c1.511-0.648,3.028-0.574,4.549-0.043c3.025,1.301,4.46,3.824,5.241,6.845
			c0.151,1.195,0.961,2.087,1.473,3.119c0.452,1.126,0.479,2.283,0.256,3.459c-0.179,0.912-0.519,1.789-0.589,2.728
			c-0.24,1.664-0.604,3.282-1.741,4.607c-0.562,0.499-1.238,0.701-1.972,0.746c-0.589,0.382-1.178,0.765-1.768,1.147
			c-0.404,0.768-1.056,1.082-1.902,1.046c-0.632,0.091-1.263,0.182-1.895,0.274c-1.6,1.593-4.333-0.151-5.758,1.956
			c-0.096,2.951-0.191,5.901-0.287,8.852c-0.149,6.405-1.315,12.539-4.825,18.046c-1.707,2.093-3.415,4.185-5.122,6.278
			c-0.784,0.097-0.446,1.446-1.45,1.298c-0.608,0.377-1.216,0.755-1.824,1.132c-1.85,1.706-3.812,1.512-5.831,0.343
			c-0.239-0.169-0.505-0.267-0.796-0.295c-1.151-0.43-2.368-0.755-3.046-1.929c-0.327-0.336-0.655-0.672-0.982-1.008
			c-0.813-0.568-1.668-1.101-1.79-2.224c-0.43-0.568-0.86-1.136-1.29-1.705c-0.709-0.664-1.625-1.179-1.674-2.32
			c-0.191-0.518-0.383-1.035-0.574-1.553C198.31,284.645,197.608,283.006,197.632,281.115z"/>
		<path fill="#F8A79E" d="M108.539,261.106c-4-0.333-7.999-0.665-11.999-0.998c-1.334-0.334-2.668-0.667-4.003-1.001
			c-0.667-1.664-1.333-3.328-2-4.993C96.671,256.103,103.188,257.101,108.539,261.106z"/>
		<path fill="#F4ADA6" d="M439.541,309.108c-0.665,1.002-1.33,2.003-1.996,3.005C438.21,311.111,438.875,310.11,439.541,309.108z"/>
		<path fill="#FA978D" d="M210.524,64.1c5.82-12.947,10.974-26.314,22.352-35.778c0.726-0.604,1.746-0.856,2.629-1.272
			c2.089,6.062-4.946,7.34-6.13,11.688c-0.537,1.975-1.09,3.946-1.636,5.919c1.786,0.483,3.549,1.235,5.362,1.388
			c2.812,0.237,5.696-0.212,8.474,0.173c1.614,0.224,3.856,1.135,4.461,2.39c1.526,3.168,3.781,3.808,6.864,3.514
			c6.897-0.659,13.801-1.651,20.703-1.656c3.005-0.002,6.233,1.714,8.96,3.326c3.392,2.005,6.377,4.701,9.525,7.115
			c0.778,0.596,1.937,1.115,2.194,1.905c1.862,5.732,5.71,7.67,11.648,7.797c3.819,0.082,7.991,1.495,11.27,3.507
			c2.727,1.674,4.425,5.06,6.506,7.745c4.328,5.587,7.849,12.083,13.071,16.632c9.783,8.522,11.713,19.731,12.585,31.336
			c0.424,5.639-1.132,11.411-1.553,17.14c-0.141,1.926,0.423,3.911,0.722,5.86c1.395,9.069-0.902,17.131-7.134,23.799
			c-5.991,6.411-12.375,12.454-18.543,18.7c-2.849,2.885-5.596,5.87-8.389,8.81c-3.844,0.777-7.22-1.568-11.047-1.536
			c-5.904,0.049-11.534,0.294-15.868,5.02c-0.469,0.569-1.033,1.015-1.684,1.356c-2.515,0.689-4.359,2.053-5.315,4.63
			c-0.562,1.515-1.387,3.071-3.501,2.862c-0.818-0.128-1.661-0.382-2.432,0.091c-3.628,2.222-4.699-0.083-5.422-3.032
			c-1.487-6.071-1.488-6.06-7.505-5.949c-7.132,0.131-14.349,0.869-20.539-4.066c-1.399-1.115-3.448-1.192-5.259-1.427
			c-13.703-1.778-26.978-5.517-40.378-8.695c-3.566-0.846-5.451-4.21-8.928-5.29c-7.289-2.264-14.13-5.135-20.369-10.088
			c-4.464-3.544-10.749-5.24-16.684-6.062c-4.633-0.642-7.252-2.361-7.784-7.3c-0.407-3.778-2.374-7.234-3.285-10.966
			c-0.748-3.067-3.23-4.569-6.306-4.845c-4.162-0.373-8.584-0.292-11.183-4.304c-3.769-5.817-8.364-11.331-7.892-18.968
			c0.69-11.156,3.673-21.306,12.368-29.036c2.824-2.511,4.237-5.935,5.896-9.184c2.759-5.403,6.793-8.397,13.172-7.793
			c6.03,0.572,11.114-1.523,15.094-6.162c0.432-0.504,0.995-0.896,1.415-1.407c5.49-6.687,12.411-9.744,21.1-8.408
			c0.65,0.1,1.329,0.017,1.995,0.012c6.17-0.052,6.17-0.052,7.068-6.177c1.061-7.235,5.257-10.397,12.41-9.352
			c0.794,1.032,0.644,2.041-0.07,3.036c-0.346,1.334-0.692,2.668-1.038,4.001c-1.019,1.157-1.937,2.364-1.969,4.006
			c-0.007,0.665-0.014,1.329-0.022,1.994c-0.5,0.572-1.095,1.021-1.766,1.369c-0.726,0.315-1.193,0.812-1.161,1.659
			c-0.334,1-0.668,2-1.003,3c-2.125,3.572-3.889,7.301-5.11,11.29c-0.869,2.838-2.405,5.241-5.515,5.922
			c-11.121,2.437-19.956,8.922-28.474,15.961c-3.091,2.555-6.318,4.825-9.866,6.741c-4.443,2.399-5.984,8.014-3.85,12.507
			c0.977,2.058,2.705,2.725,4.815,3.017c6.96,0.963,12.38,5.368,12.087,11.917c-0.618,13.811,9.229,18.383,18.863,23.47
			c1.462,0.772,3.098,1.326,4.724,1.596c4.728,0.785,7.866,2.732,8.342,8.151c0.278,3.16,3.08,4.714,6.188,4.778
			c5.213,0.108,10.118,2.052,15.295,2.318c2.456,0.126,4.38,1.559,6.179,3.046c8.079,6.678,17.16,9.144,27.535,7.108
			c4.418-0.867,9.072,0.342,13.45-0.529c10.081-2.005,20.216-1.319,30.354-1.516c5.308-0.103,8.974-3.705,12.214-7.672
			c6.886-8.431,9.311-19.036,14.059-28.506c0.819-1.633,1.437-3.367,2.275-5.001c1.914-3.73,4.76-5.436,9.003-4.32
			c2.922,0.769,5.814,1.008,7.074-2.531c0.873-2.451-1.662-6.311-5.15-6.921c-6.522-1.141-8.901-5.131-9.083-11.182
			c-0.035-1.166-0.183-2.398-0.83-3.37c-6.272-9.44-12.874-18.425-22.451-25.105c-6.061-4.228-13.721-4.825-19.304-9.937
			c-2.008-1.838-5.359-1.619-8.119-0.278c-2.283,1.11-4.472,1.102-6.627-0.333c-3.759-2.502-7.996-3.237-12.4-3.145
			c-4.735,0.099-8.906-1.211-12.199-4.702c-1.918-2.033-4.307-2.301-6.86-2.309c-5.664-0.016-11.33,0.112-16.99-0.068
			C213.773,67.447,210.95,67.662,210.524,64.1z"/>
		<path fill="#F67F74" d="M325.249,217.546c-1.551-1.469-3.257-2.807-4.627-4.429c-9.065-10.731-19.693-12.949-32.23-6.647
			c-0.576,0.289-1.238,0.406-1.86,0.603c4.353-6.146,10.83-5.856,17.261-5.684c1.809,0.048,3.617,0.153,6.318,0.271
			c0.843,0.479,2.6,1.479,4.356,2.478c2.926,3.069,5.945,6.056,8.728,9.249C324.177,214.514,324.581,216.145,325.249,217.546z"/>
		<path fill="#F67F74" d="M327.193,237.189c-0.488-6.034-0.975-12.069-1.463-18.103c0.598,0.01,1.195,0.019,1.792,0.029
			c0.657,4.127,1.632,8.24,1.827,12.389C329.436,233.361,327.96,235.292,327.193,237.189z"/>
		<path fill="#FA9B91" d="M203.535,48.105c-7.507,1.243-11.97,4.855-11.209,13.293c0.1,1.107-2.74,3.698-3.88,3.513
			c-13.072-2.116-22.78,2.888-31.274,12.584c-2.25,2.568-7.647,3.707-11.396,3.354c-7.597-0.716-11.198,3.039-14.23,9.006
			c-1.682,3.31-3.895,6.545-6.533,9.137c-8.54,8.39-11.175,19.075-10.035,30.102c0.579,5.597,5.068,10.956,8.432,15.994
			c0.963,1.443,4.148,1.828,6.353,1.94c7.756,0.395,9.399,1.786,10.872,9.27c0.79,4.011,1.887,7.991,3.27,11.833
			c0.346,0.96,2.265,1.608,3.575,1.924c8.391,2.019,16.612,3.708,23.706,9.699c4.334,3.66,10.739,4.874,16.234,7.14
			c0.753,0.31,1.844,0.083,2.396,0.554c8.856,7.546,20.063,7.677,30.629,9.818c6.452,1.307,12.909,2.586,19.358,3.907
			c0.804,0.165,1.791,0.285,2.32,0.805c6.535,6.412,14.701,4.143,22.258,3.796c4.422-0.203,5.604,1.611,6.147,5.105
			c0.304,1.954,0.537,3.919,0.802,5.879c0.446,0.002,0.892,0.005,1.338,0.007c0.506-1.376,1.012-2.753,1.648-4.48
			c1.234,1.467,2.246,2.669,3.258,3.872c1.174,3.328-1.173,6.237-1.094,9.49c0.116,4.716,0.077,9.429,0.781,14.107
			c-2.269,3.401-4.486,1.894-6.452-0.238c-2.135-2.316-2.503-5.326-2.789-8.343c-0.773-8.166-2.198-9.411-10.124-9.554
			c-4.553-0.082-8.766,0.265-12.702,3.21c-3.336,2.496-8.675,0.952-11.345-2.918c-3.605-5.223-8.591-7.984-14.598-9.508
			c-7.063-1.792-13.953-4.394-21.423-3.952c-0.327,0.019-0.731,0.011-0.971-0.173c-5.713-4.39-12.826-4.848-19.338-7.007
			c-1.809-0.6-3.718-1.486-4.979-3.163c-0.942-1.266-1.611-3.114-2.87-3.706c-10.147-4.77-20.401-9.31-30.636-13.89
			c-0.587-0.263-1.344-0.489-1.932-0.352c-9.392,2.198-15.459-4.35-22.387-8.543c-0.981-0.594-1.66-1.88-2.197-2.983
			c-2.173-4.465-3.628-9.436-6.533-13.338c-2.285-3.071-6.027-5.529-9.635-7.016c-3.922-1.616-6.173-3.36-5.871-7.873
			c0.277-4.144,0.04-8.322,0.065-12.484c0.018-3.068-0.799-6.409,3.058-8.155c0.588-0.266,0.942-1.758,0.876-2.644
			c-0.377-5.128,1.842-8.939,5.642-12.114c8.771-7.327,14.226-16.21,14.69-28.11c0.152-3.909,4.177-5.696,8.166-6.896
			c6.619-1.991,12.866-5.281,19.527-7.057c7.098-1.893,10.613-7.835,15.819-11.856c2.508-1.936,5.808-3.248,8.945-3.89
			c8.057-1.648,16.233-2.702,24.339-4.121c3.112-0.545,5.449-1.949,6.175-5.577c0.269-1.341,2.06-2.845,3.494-3.392
			c3.506-1.337,5.553-3.169,6.693-7.127c1.22-4.238,4.086-8.082,9.6-7.859c-3.439,6.979-6.944,13.925-10.272,20.956
			c-0.887,1.875-1.23,4.008-1.823,6.023c-0.563,0.521-0.851,1.26-1.411,1.785C203.888,47.959,203.711,48.032,203.535,48.105z"/>
		<path fill="#F69D94" d="M172.539,198.106c4.171,1.226,8.284,2.737,12.529,3.588c3.539,0.709,7.169,0.438,9.53,4.158
			c0.63,0.992,3.008,1.141,4.604,1.209c11.351,0.488,22.158,2.826,31.716,9.293c1.485,1.005,2.812,2.586,3.607,4.199
			c1.812,3.678,7.592,5.4,10.731,2.577c5.969-5.365,13.006-3.099,19.455-2.453c3.884,0.389,4.531,5.115,4.862,8.903
			c0.228,2.613,0.384,5.365,1.344,7.743c0.881,2.182,2.478,4.634,5.711,2.751c3.124,1.315,2.296,5.255,4.687,7.056
			c0.231,0.205,0.357,0.462,0.378,0.771c0.449,0.819,1.094,1.492,1.65,2.232c0.396,0.375,0.791,0.749,1.187,1.124
			c1.077,0.881,1.998,1.939,3.13,2.757c0.35,0.261,0.7,0.522,1.05,0.783c0.296,0.837,1.394,1.278,1.177,2.372
			c-0.661,2.144-2.56,2.456-4.345,2.938c-1.601-0.943-3.229-1.844-4.795-2.842c-1.496-0.954-2.91-2.85-4.39-2.88
			c-8.259-0.169-16.539-0.101-24.784,0.375c-1.934,0.112-3.733,2.158-5.64,3.232c-1.68,0.946-3.956,4.341-4.4-0.902
			c-0.377-0.41-0.474-0.878-0.291-1.405c0.632-1.505,1.264-3.011,1.896-4.516c0.268-0.679,0.383-1.372,0.192-2.093
			c-0.069-1.146-0.138-2.292-0.208-3.438c0.04-1.114-0.888-1.721-1.346-2.574c-1.463-2.266-2.925-4.532-4.388-6.798
			c-1.558-1.638-3.123-1.614-4.695-0.021l-0.02,0.02c-3.055,2.495,0.017,3.928,0.992,5.725c0.651,1.704,1.302,3.408,1.953,5.112
			c-0.048,1.425-0.226,2.82-0.957,4.085c-0.307,0.136-0.613,0.272-0.92,0.408c-2.899,0.176-5.745-0.212-8.571-0.811
			c-3.236-1.516-6.472-3.031-9.708-4.547c-3.062-1.183-6.166-2.677-8.554,1.151c-0.322,0.154-0.643,0.308-0.965,0.463
			c-1.13-0.288-1.681,0.687-2.473,1.135c-1.976,0.738-3.952,1.476-5.928,2.214c-0.662,0.075,0.174-0.086-0.487-0.005
			c-8.702,1.073-9.767-0.211-6.998-8.438c0.773-0.913,1.546-1.825,2.32-2.738c1.831-3.606-1.887-4.032-3.317-5.77
			c-0.474-0.613-0.663-1.408-1.277-1.961c-0.891,0.511-0.329,1.354-0.452,2.038c-0.005,0.722-0.271,1.336-0.742,1.867
			c-0.32,0.326-0.641,0.651-0.961,0.977c-0.726,0.653-1.573,1.213-1.769,2.278c-0.359,0.334-0.718,0.668-1.077,1.002
			c-2.419-0.822-2.338-2.953-2.511-4.903c-0.37-4.173-2.347-6.426-6.727-7.168c-6.199-1.051-12.445-1.668-18.649-2.616
			c-7.615-1.163-14.318,1.424-20.833,4.888c-0.544,0.077-1.067,0.002-1.571-0.216c-1.717-1.583-2.037-3.63-1.938-5.815
			c0.636-6.394-1.94-11.421-6.482-15.724c-1.424-1.349-4.065-1.94-3.53-4.78c1.738-2.869-0.254-4.108-2.43-4.57
			c-3.511-0.746-7.156-0.844-10.689-1.511c-1.483-0.28-3.05-1.086-4.093-2.137c-0.312-0.315,1.19-2.213,1.556-3.475
			c0.433-1.495,0.782-3.096,0.715-4.631c-0.068-1.573-0.683-3.123-1.058-4.683c7.262,0.025,14.62-0.732,21.338,3.176
			c1.078,0.627,2.549,0.627,3.853,0.809c5.097,0.712,9.898,1.543,14.064,5.393c2.142,1.979,6.028,2.319,9.218,2.866
			C159.489,196.461,166.027,197.209,172.539,198.106z"/>
		<path fill="#F67F74" d="M325.664,241.12c0.341-0.651,0.682-1.302,1.023-1.952c0.259,0.633,0.518,1.265,0.776,1.897
			C326.863,241.083,326.264,241.102,325.664,241.12z"/>
		<path fill="#FAA197" d="M285.542,260.107c1.352-1.012,2.703-2.023,4.055-3.035c0.714-0.641,1.475-0.546,2.264-0.157
			c6.929,3.425,13.734,3.149,20.454-0.629c0.969-0.545,2.051-1.184,3.189-0.243c1.275,0.866,2.549,1.733,4.633,3.149
			c-7.249,1.439-13.648,2.231-19.737,4.054C294.6,264.983,290.124,262.869,285.542,260.107z"/>
		<path fill="#F67F74" d="M315.503,256.043c-2.216,0.99-4.525,1.815-6.631,3c-6.931,3.897-13.059,0.684-19.276-1.97
			c-0.295-0.758-0.591-1.516-0.887-2.275c9.05,4.369,17.992,4.061,26.833-0.62c0.251,0.183,0.351,0.384,0.301,0.604
			c-0.052,0.228-0.115,0.342-0.188,0.342C315.589,255.427,315.538,255.734,315.503,256.043z"/>
		<path fill="#FAA197" d="M315.655,255.123c-0.031-0.316-0.068-0.632-0.113-0.946c0.393-0.331,0.787-0.663,1.18-0.995
			c0.342-0.734,1.547-0.432,1.69-1.405c0.281-0.286,0.561-0.571,0.842-0.857c1.071-0.593,2.133-0.794,3.172,0.069l0.112,0.117
			c-0.246,1.726-0.492,3.453-0.753,5.283C319.899,256,317.777,255.562,315.655,255.123z"/>
		<path fill="#F67F74" d="M228.866,261.245c0.737-4.13,3.788-1.451,5.757-1.957C232.704,259.941,230.785,260.593,228.866,261.245z"
			/>
		<path fill="#F67F74" d="M236.518,259.015c0.634-0.348,1.269-0.697,1.903-1.046C237.786,258.318,237.152,258.667,236.518,259.015z"
			/>
		<path fill="#F67F74" d="M241.242,255.686c0.097,0.468,0.194,0.937,0.291,1.405c-0.447-0.089-0.894-0.178-1.343-0.268
			C240.539,256.444,240.891,256.065,241.242,255.686z"/>
		<path fill="#FA9287" d="M92.821,207.27c-0.357,0.55-0.601,1.241-1.087,1.63c-10.324,8.249-12.77,18.855-9.423,31.22
			c-1.007-2.546-2.091-5.066-2.977-7.653c-0.301-0.878,0.152-2.023-0.171-2.884c-2.139-5.709,0.789-9.832,4.052-13.966
			c0.739-0.937,0.904-2.327,1.334-3.508C87.307,210.496,90.064,208.883,92.821,207.27z"/>
		<path fill="#FA9287" d="M131.868,223.964c-2.27-8.211-6.841-14.788-13.914-19.588c0.86-0.087,1.722-0.175,2.584-0.263
			c4.991,4.12,10.006,8.245,11.147,15.165C131.938,220.809,131.817,222.401,131.868,223.964z"/>
		<path fill="#FA9287" d="M116.546,203.976c-1.828-0.557-3.655-1.114-5.485-1.67C112.887,202.863,114.716,203.42,116.546,203.976z"
			/>
		<path fill="#FA9287" d="M103.039,202.324c-1.834,0.718-3.669,1.436-5.502,2.153C99.371,203.758,101.205,203.041,103.039,202.324z"
			/>
		<path fill="#F69D94" d="M94.528,205.08c-0.557-0.701-1.114-1.402-1.671-2.102c0.373-0.275,0.747-0.549,1.12-0.824
			c0.572,1.034,1.144,2.068,1.717,3.103c0.001,0,0.006,0.013,0.006,0.013C95.257,205.532,94.863,205.484,94.528,205.08z"/>
		<path fill="#FA9287" d="M94.528,205.08c0.39,0.063,0.78,0.125,1.171,0.189c-0.72,0.539-1.44,1.077-2.161,1.614
			C93.869,206.281,94.198,205.681,94.528,205.08z"/>
		<path fill="#F67F74" d="M322.427,250.989c-1.057-0.022-2.113-0.044-3.171-0.068c1.977-2.768,3.956-5.535,5.933-8.304
			C324.268,245.407,323.347,248.198,322.427,250.989z"/>
		<path fill="#FA9287" d="M83.779,243.607c1.747,2.402,3.494,4.803,5.242,7.204c-0.814,0.087-1.629,0.175-2.444,0.263
			C85.645,248.585,84.712,246.096,83.779,243.607z"/>
		<path fill="#FA9287" d="M90.494,252.294c2.296,1.285,4.481,2.853,6.906,3.81c15.373,6.061,29.992-2.645,33.379-19.752
			c0.418-2.11,0.915-4.204,1.374-6.305c0.442,0.027,0.886,0.054,1.329,0.081c2.232,6.489-0.652,11.774-3.99,16.952
			c-1.993,2.328-3.986,4.655-5.979,6.983c-0.822,3.411-3.871,3.996-6.488,5.134c-2.367,1.155-4.788,2.102-7.501,1.876
			c-0.329,0.01-0.658,0.021-0.986,0.033c-6-2.33-12-4.661-18.001-6.991C90.523,253.508,90.509,252.901,90.494,252.294z"/>
		<path fill="#FA948A" d="M210.524,64.1c1.766,0.669,3.514,1.853,5.302,1.915c6.656,0.231,13.329-0.033,19.986,0.185
			c1.59,0.052,3.652,0.827,4.616,1.996c2.902,3.521,6.435,5.022,10.887,4.929c5.365-0.111,10.619,0.147,15.008,4.018
			c0.679,0.599,2.52,0.475,3.518,0.019c5.581-2.554,9.288-1.988,13.64,2.267c0.815,0.797,1.789,1.749,2.825,1.956
			c17.382,3.475,26.062,17.32,35.655,29.988c1.173,1.549,1.382,4.03,1.527,6.115c0.449,6.45,1.343,7.504,7.79,8.655
			c4.439,0.792,6.622,4.166,6.81,8.065c0.081,1.673-2.512,3.862-4.372,5.086c-1.011,0.665-3.169,0.133-4.568-0.444
			c-3.48-1.435-5.935-0.467-7.351,2.811c-3.271,7.575-6.339,15.238-9.559,22.836c-3.642,8.594-9.394,15.419-17.497,20.116
			c-0.825,0.478-2.212-0.088-3.331-0.032c-5.559,0.278-11.114,0.767-16.674,0.824c-2.073,0.021-4.156-0.93-4.991-1.133
			c-4.83,0.711-8.631,1.406-12.463,1.801c-4.61,0.475-9.245,0.711-13.871,1.023c-8.48,0.572-16.237-1.402-22.599-7.211
			c-5.515-5.035-12.646-4.538-19.109-5.556c-9.462-1.491-10.313-1.6-11.386-10.005c-7.942-4.084-15.424-7.47-22.412-11.678
			c-5.208-3.136-9.436-7.683-8.294-14.582c0.875-5.287-2.5-8.785-4.834-12.613c-0.689-1.131-3.575-1.335-5.425-1.259
			c-3.59,0.149-6.699-0.737-7.286-4.45c-0.643-4.066-2.505-9.01,1.747-12.06c9.901-7.102,20.032-13.897,30.284-20.484
			c2.99-1.921,6.611-3.382,10.104-3.854c3.769-0.509,4.748-2.668,6.077-5.535c1.73-3.733,4.167-7.138,6.299-10.684
			c-0.01,1.328-0.02,2.655-0.03,3.982c-1.918,8.72-3.388,17.377-2.399,26.476c0.772,7.097,1.746,14.698-4.57,21.137
			c4.94,3.609,4.304,8.867,4.661,14.02c0.901,13.009,0.761,11.402,12.303,12.581c7.266,0.742,14.659-0.179,21.961,0.257
			c11.851,0.708,23.456,0.259,35.132-2.529c7.55-1.802,15.592-0.387,23.411-0.544c6.424-0.13,6.428-0.375,6.968-6.791
			c0.641-7.609,1.821-15.161,0.873-22.839c-0.528-4.278-1.087-8.228-6.118-9.772c-2.771-0.851-3.245-4.068-4.943-6.07
			c-1.291-1.522-2.161-3.375-3.552-4.819c-3.399-3.529-6.222-3.169-8.314,1.192c-1.11,2.314-2.504,3.955-5.26,3.728
			c-2.555-0.21-3.617-2.02-4.34-4.212c-2.219-6.727-4.205-8.507-11.502-7.89c-8.156,0.69-16.294,0.569-24.443,0.697
			c-2.996,0.047-5.349,1.37-7.76,2.983c-3.065,2.051-5.774,1.062-6.249-2.534c-0.757-5.729-0.398-11.62-3.647-16.832
			c-0.617-0.989,0.126-2.258,0.766-3.268C209.857,65.421,210.19,64.76,210.524,64.1z"/>
		<path fill="#FA9287" d="M209.523,66.081c0.003,0.167-0.048,0.358,0.016,0.496c3.005,6.455,4.746,13.096,4.326,20.363
			c-0.118,2.04,1.683,2.421,3.953,0.904c2.688-1.797,6.006-3.267,9.183-3.592c7.574-0.774,15.223-0.95,22.846-1.04
			c3.274-0.038,6.864,0.071,9.728,1.384c1.865,0.855,2.684,3.997,3.964,6.118c1.072,1.777,1.784,4.626,3.275,5.117
			c3.065,1.009,3.401-1.736,3.949-4.207c0.336-1.516,2.219-3.974,3.089-3.846c2.638,0.388,5.741,1.215,7.517,3.007
			c2.596,2.619,4.181,6.235,6.23,9.404c0.414,0.64,0.947,1.669,1.473,1.7c7.645,0.452,7.263,6.482,7.332,11.361
			c0.128,9.03-0.379,18.084-1.055,27.096c-0.101,1.342-2.43,3.358-3.948,3.583c-3.585,0.533-7.332,0.48-10.96,0.121
			c-11.435-1.132-22.373,2.162-33.546,3.34c-4.202,0.443-8.514-0.238-12.777-0.266c-8.659-0.057-17.321,0.095-25.978-0.069
			c-3.793-0.072-7.637-0.425-11.328-1.24c-1.289-0.285-2.577-2.181-3.164-3.626c-0.728-1.79-0.847-3.866-1.019-5.837
			c-0.577-6.611,2.236-14.238-4.943-17.394c1.712-2.288,4.271-4.191,4.55-6.384c0.655-5.141,0.223-10.421,0.221-15.644
			c-0.001-2.738-0.265-5.501,0.016-8.208c0.528-5.095,1.288-10.171,2.147-15.222c0.15-0.881,1.258-1.599,1.923-2.392
			c-0.331,5.579-0.806,11.156-0.897,16.739c-0.024,1.474,1.135,2.968,1.751,4.452c0.469-0.159,0.938-0.317,1.407-0.476
			c2.593-7.335,5.111-14.699,7.843-21.982C207.178,68.427,208.543,67.326,209.523,66.081z"/>
		<path fill="#FA9287" d="M200.527,59.103c0.657-1.335,1.313-2.671,1.97-4.006C201.84,56.433,201.183,57.768,200.527,59.103z"/>
		<path fill="#FA9287" d="M203.534,51.096c0-0.997,0.001-1.994,0.001-2.991c0,0,0.003-0.003,0.003-0.003
			c0.656-0.585,1.314-0.587,1.973-0.004C204.852,49.097,204.193,50.096,203.534,51.096z"/>
		<path fill="#FA9287" d="M198.537,62.106c0.656-0.336,1.313-0.672,1.969-1.008c-0.651,0.681-1.301,1.362-1.951,2.043
			c-0.26-0.226-0.349-0.454-0.268-0.685C198.369,62.222,198.452,62.106,198.537,62.106z"/>
		<path fill="#FA948A" d="M198.537,62.106c0.006,0.345,0.012,0.689,0.018,1.034c-0.326,0.328-0.652,0.657-0.977,0.985
			C197.898,63.452,198.217,62.779,198.537,62.106z"/>
		<path fill="#FA978D" d="M205.511,48.098c-0.658,0.001-1.315,0.003-1.973,0.004c0.646-0.667,1.292-1.335,1.938-2.002
			C205.487,46.766,205.499,47.432,205.511,48.098z"/>
		<path fill="#F4ADA6" d="M224.539,297.107c1.161-1.68,2.322-3.359,3.483-5.039c0.519,0.519,1.038,1.037,1.556,1.556
			C227.899,294.785,226.22,295.946,224.539,297.107L224.539,297.107z"/>
		<path fill="#F8A79E" d="M129.492,247.079c1.331-5.651,2.661-11.302,3.991-16.952c6.774-6.182,14.936-6.784,23.447-5.694
			c6.022,0.771,12,1.883,18.024,2.636c4.28,0.534,7.19,3.873,7.059,8.217c-0.052,1.711,0.492,3.44,0.765,5.162
			c-0.214,0.859-0.429,1.717-0.645,2.575c-1.987,3.279-2.378,6.665-0.913,10.285c0.453,1.119,1.466,2.311,0.4,3.65
			c-1.998,4.456-3.946,0.986-5.601-0.194c-6.089-4.34-11.895-9.2-20.083-8.672c-1.656,0.107-3.325,0.009-4.988,0.016
			c-4.194,0.019-7.939-0.658-9.652-5.3c-0.363-0.983-1.494-1.682-2.594-2.855C135.534,242.404,132.513,244.742,129.492,247.079z"/>
		<path fill="#F4ADA6" d="M116.531,258.096c2.328-1.344,4.655-2.689,6.983-4.033c0.592,2.492,1.184,4.985,1.983,8.345
			c-2.496-0.965-4.081-1.578-5.64-2.181c-2.312,3.863-2.312,3.863-4.315,1.882C115.119,260.586,115.68,259.306,116.531,258.096z"/>
		<path fill="#F8A79E" d="M116.531,258.096c-0.33,1.338-0.66,2.675-0.99,4.013c-2.005-0.345-4.011-0.691-6.016-1.036
			C111.86,260.081,114.196,259.088,116.531,258.096z"/>
		<path fill="#F2E8F1" d="M201.33,260.74c-0.937-5.065,6.148-4.71,9.175-7.849c0.608-0.63,3.525,1.001,5.391,1.543
			c7.665,2.228,7.382,8.057,5.878,13.924c-1.63,6.358-3.388,12.792-6.112,18.724c-2.032,4.424-4.465,4.239-7.39,0.21
			C202.942,279.949,202.489,271.213,201.33,260.74z"/>
		<path fill="#F67F74" d="M243.33,249.077c-0.066,0.698-0.131,1.396-0.195,2.093C243.202,250.473,243.266,249.775,243.33,249.077z"
			/>
		<path fill="#F67F74" d="M241.776,243.065c0.451,0.857,0.901,1.713,1.349,2.572C242.673,244.782,242.225,243.923,241.776,243.065z"
			/>
		<path fill="#F67F74" d="M281.316,247.13c-1.563-2.352-3.126-4.704-4.688-7.056c-1.524-8.046-1.836-16.045,0.944-23.921
			c2.541-2.754,2.382-8.094,7.773-8.121C274.352,220.071,275.678,233.379,281.316,247.13z"/>
		<path fill="#F67F74" d="M287.66,254.013c-1.044-0.92-2.087-1.839-3.13-2.758C285.574,252.175,286.617,253.094,287.66,254.013z"/>
		<path fill="#F67F74" d="M283.344,250.132c-0.55-0.744-1.101-1.487-1.65-2.231C282.244,248.645,282.794,249.389,283.344,250.132z"
			/>
		<path fill="#F67F74" d="M318.413,251.777c-0.564,0.468-1.128,0.937-1.691,1.405C317.286,252.714,317.849,252.246,318.413,251.777z
			"/>
		<path fill="#F8A79E" d="M189.538,234.126c-0.973,0.018-1.945,0.037-2.917,0.056c-0.159-1.303-0.417-2.61-0.381-3.909
			c0.006-0.21,1.909-0.608,1.934-0.541C188.715,231.164,189.113,232.65,189.538,234.126z"/>
		<path fill="#9F1217" d="M285.344,208.033c27.917-21.977,58.082,21.974,33.822,44.74
			C290.022,276.951,259.319,229.477,285.344,208.033z"/>
		<path fill="#9F1217" d="M131.868,223.964c7.698,33.191-38.787,49.381-49.559,16.152
			C66.89,206.217,126.595,184.961,131.868,223.964z"/>
		<path fill="#F2E8F1" d="M14.551,137.324c-0.349,0.529-0.588,0.891-0.828,1.253c-0.324-0.267-0.869-0.502-0.913-0.809
			c-0.05-0.352,0.345-0.768,0.546-1.155C13.713,136.825,14.07,137.038,14.551,137.324z"/>
		<path fill="#F67F74" d="M217.57,19.121c3.284-3.523-1.219-4.623-2.13-6.84c17.224-2.318,35.45-1.355,52.113,1.855
			c-12.32,0.685-24.626,1.852-32.048,12.914c-16.912,16.184-25.015,38.734-33.404,59.945c-1.009,2.212-1.217,5.979-4.482,5.745
			c-2.19-0.229-3.034-1.864-3.357-3.769c-0.685-7.063,1.137-14.101,1.179-21.171c0.308-3.046,2.799-4.761,3.922-7.314
			c1.051-3.16,2.34-6.247,3.44-9.4C206.668,40.082,209.458,28.23,217.57,19.121z"/>
	</g>
</g>
</svg>
