<?xml version="1.0" encoding="utf-8"?>
<!-- Generator: Adobe Illustrator 28.4.1, SVG Export Plug-In . SVG Version: 6.00 Build 0)  -->
<svg version="1.1" baseProfile="basic" id="Layer_1"
	 xmlns="http://www.w3.org/2000/svg" xmlns:xlink="http://www.w3.org/1999/xlink" x="0px" y="0px" viewBox="0 0 393.935 395.808"
	 xml:space="preserve">
<path fill="#2D8700" d="M192.003,395.808c-6.039-0.532-16.834-0.626-27.262-2.629c-11.991-2.303-23.731-6.049-35.444-9.62
	c-12.667-3.863-24.282-10.124-35.522-17.035c-15.461-9.506-29.463-20.772-41.719-34.243c-8.212-9.026-15.809-18.474-22.137-28.899
	c-9.658-15.913-17.406-32.62-22.592-50.618c-7.159-24.847-8.643-50.003-6.298-75.578c1.832-19.975,7.402-38.94,15.205-57.301
	c7.783-18.311,18.388-34.881,31.354-49.964c11.046-12.847,23.447-24.264,37.447-33.735c16.843-11.394,34.921-20.511,54.524-26.244
	c22.894-6.696,46.259-9.678,70.123-8.103c13.185,0.87,26.118,3.205,38.883,6.621c26.718,7.15,50.543,19.93,72.281,36.828
	c0.707,0.55,1.393,1.143,2.013,1.789c1.268,1.326,2.618,1.41,3.963,0.241c2.857-2.484,5.869-4.836,8.437-7.595
	c3.429-3.684,3.523-8.558,3.663-13.247c0.024-0.811-0.962-2.016-1.786-2.426c-3.879-1.926-7.954-2.509-12.184-1.115
	c-1.989,0.656-3.971,1.492-6.019,1.759c-1.317,0.172-3.114-0.15-4.013-0.985c-0.702-0.651-0.793-2.591-0.402-3.69
	c4.446-12.5,15.16-16.948,26.729-15.932c0.493,0.044,1.095,0.052,1.445,0.331c3.704,2.949,6.499,1.136,9.98-1.015
	c10.156-6.276,23.276-3.616,30.53,5.871c0.882,1.154,1.168,3.56,0.555,4.81c-0.484,0.987-2.85,1.663-4.247,1.476
	c-4.534-0.609-8.959-1.303-12.801,2.038c-0.664,0.578-1.493,1.228-1.722,2c-2.124,7.138-5.952,13.76-6.268,21.452
	c-0.391,9.525-4.971,16.805-12.504,22.387c-3.15,2.335-3.294,2.855-0.64,5.863c13.448,15.244,23.914,32.397,32.053,50.933
	c6.56,14.94,10.73,30.611,13.593,46.714c3.48,19.579,3.436,39.144,0.867,58.71c-2.084,15.872-6.472,31.219-12.278,46.163
	c-6.624,17.047-15.919,32.573-26.863,47.109c-10.072,13.378-22.092,24.895-35.18,35.328c-12.558,10.009-26.466,17.768-40.936,24.531
	c-10.955,5.119-22.492,8.634-34.251,11.459C227.468,393.878,212.172,395.82,192.003,395.808z"/>
<g>
	<circle fill="#94D21A" cx="198.066" cy="198.956" r="187.865"/>
	<path fill="#D2FF8F" d="M324.118,90.776L324.118,90.776c0.926-1.114,1.431-1.72,2.357-2.833l3.339-0.255
		c5.366,0.464,7.736-3.115,9.791-7.1c0.347-0.673,0.61-1.391,1.162-2.666c2.692,3.354,5.375,6.191,7.486,9.412
		c9.552,14.575,17.918,29.745,23.725,46.351c7.57,21.648,11.298,43.881,10.832,66.777c-0.23,11.322-1.456,22.575-3.741,33.743
		c-2.882,14.081-7.146,27.65-12.867,40.76c-1.504,3.448-3.681,6.596-5.55,9.88c-1.787-5.458-7.274-9.455-13.061-9.489
		c-3.314-0.019-6.632-0.096-9.941,0.029c-2.124,0.08,39.76-6.102,37.932-5.225c-6.824,3.272-30.687,37.455-34.921,43.559
		c-3.333,4.806-32.006,28.221-32.96,34.319c-0.52,3.324-1.93-34.154-1.483-30.955c0.919,6.579,3.551,12.651,7.498,18.099
		c1.526,2.106,4.155,3.067,6.066,1.364c3.538-3.152-29.074,12.605-25.927,9.069c4.248-4.775,44.469-28.695,48.269-33.843
		c4.473-6.058,8.559-12.407,12.893-18.572c0.683-0.971,1.79-1.636,2.7-2.442c-1.161,2.367-2.012,4.966-3.536,7.063
		c-6.498,8.948-12.52,18.385-19.961,26.465c-14.679,15.938-31.622,29.084-50.833,39.238c-15.942,8.426-32.684,14.186-50.202,18.003
		c-16.157,3.52-32.427,3.704-48.841,3.027c-15.257-0.631-29.894-4.237-44.315-8.707c-11.347-3.517-22.403-8.053-32.585-14.412
		c-4.36-2.723-8.654-5.555-12.958-8.369c0.634-1.275,0.428-0.86,1.062-2.135c2.582,0.955,5.081,2.226,7.726,2.948
		c4.328,1.181,8.727,2.096,13.104,3.089c1.216,0.276,2.73,0.046,3.645,0.706c4.134,2.987,9.335,1.995,13.769,4.04
		c2.025,0.933,4.807,0.177,7.246,0.187c7.37,0.434,14.736,0.939,22.111,1.255c2.096,0.089,4.215-0.372,6.323-0.582
		c3.878-0.181,7.753-0.425,11.632-0.525c4.834-0.124,9.673-0.202,14.508-0.148c1.84,0.019,2.484-0.713,2.321-2.439
		c0.95-0.149,1.98-0.108,2.838-0.478c8.539-3.68,17.243-7.037,25.517-11.259c9.15-4.669,17.302-10.961,24.679-18.224
		c0.894-0.88,2.129-1.403,3.041-2.27c7.059-6.712,14.115-13.431,21.043-20.282c2.739-2.709,5.356-5.54,7.84-8.484
		c5.957-7.058,11.786-14.231,17.551-21.452c1.292-1.618,2.001-3.708,3.029-5.551c0.303-0.543,0.821-0.957,1.172-1.478
		c1.278-1.898,2.511-3.828,3.79-5.724c0.903-1.338,1.928-2.594,2.768-3.97c2.509-4.105,5.032-8.206,7.391-12.4
		c1.375-2.443,2.419-5.077,3.664-7.598c1.515-3.065,3.232-6.036,4.59-9.17c1.381-3.185,2.439-6.516,3.625-9.788
		c1.218-3.36,2.421-6.726,3.627-10.089c2.57-1.354,1.672-3.893,1.993-6.015c0.008-0.547,0.014-1.094,0.022-1.642
		c2.701-1.75,2.23-4.587,2.404-7.202c0.063-1.545,0.124-3.09,0.187-4.635c0.722-2.923,1.618-5.816,2.112-8.778
		c0.4-2.403,0.316-4.889,0.447-7.338c0.059-7.64,0.163-15.28,0.152-22.92c-0.004-2.65-0.249-6.976-0.576-9.606
		c-0.544-4.373-1.256-8.726-1.886-13.089c-0.172-4.306,0.149-8.714-0.688-12.884c-0.567-2.826-2.568-5.367-2.335-8.536
		c0.021-0.28-0.457-0.583-0.671-0.898c-0.61-0.894-1.258-1.768-1.788-2.71c-0.503-0.895-0.876-1.866-1.306-2.803
		c-0.585-1.03-1.17-2.062-1.755-3.092"/>
	<path fill="#E1EC28" d="M320.099,183.973c-1.821-3.9-0.465-7.754-0.241-11.663c0.331-5.771,0.442-11.57,0.29-17.347
		c-0.121-4.622-1.215-9.247-1.055-13.843c0.136-3.91-2.213-6.116-4.42-8.406c-2.928-3.038-5.848-5.985-9.891-8.011
		c-4.006-2.007-7.246-5.547-10.727-8.523c-5.339-4.565-10.85-8.972-15.817-13.907c-5.385-5.352-10.098-11.356-15.362-16.836
		c-3.126-3.255-6.168-6.53-7.477-10.852c-1.502-4.958-3.207-9.99-3.667-15.091c-0.713-7.906-0.431-15.892,1.768-23.671
		c0.251-0.886,0.033-1.9,0.033-3.003c-7.637,1.876-13.496,5.846-19.01,10.474c-3.024,2.538-6.186,4.918-9.336,7.306
		c-2.403,1.821-3.031,3.813-1.983,6.821c2.187,6.276,4.908,12.45,5.211,19.237c0.181,4.043,0.377,8.12-4.026,10.378
		c-1.088,0.558-2.379,0.948-3.597,1.004c-5.984,0.275-11.977,0.36-17.961,0.645c-1.063,0.051-2.095,0.732-3.141,1.122
		c0.423,0.814,0.791,1.661,1.277,2.436c4.058,6.484,8.394,12.861,9.982,20.478c0.377,1.809-0.226,3.804-0.275,5.716
		c-0.146,5.751-3.433,9.551-7.87,12.743c-3.917,2.818-8.296,3.205-12.891,2.747c-5.256-0.525-10.574-0.734-15.749-1.688
		c-5.612-1.035-11.394-1.993-15.741-6.327c-7.44-7.416-14.722-15.008-22.479-22.088c-6.286-5.736-13.016-11.036-19.864-16.118
		c-3.352-2.487-7.311-4.278-11.19-5.943c-3.661-1.571-7.61,0.438-9.019,4.538c-2.919,8.496-5.693,17.047-8.3,25.641
		c-1.205,3.972-1.749,8.138-2.869,12.14c-0.418,1.493-1.29,3.308-2.528,4.058c-6.153,3.73-12.481,7.182-18.778,10.678
		c-4.486,2.491-9.035,4.872-13.527,7.353c-2.459,1.358-4.856,2.828-7.286,4.238c-6.431,3.731-9.085,12.475-7.763,19.323
		c1.024,5.298,1.402,10.715,2.163,16.066c0.254,1.794,0.935,3.528,1.19,5.321c0.46,3.229,1.21,6.527,0.892,9.704
		c-0.139,1.385-2.41,3.034-4.069,3.71c-5.53,2.257-11.219,4.137-16.854,6.142c-2.132,0.759-4.252,1.608-6.45,2.095
		c-0.503,0.112-1.311-1.096-1.968-1.709c-0.05-0.046-0.004-0.188-0.011-0.284c-0.343-5.404,1.618-7.244,8.528-9.003
		c3.261-0.83,6.471-2.16,9.427-3.763c2.511-1.362,1.527-4.145,1.504-6.4c-0.011-1.049-0.406-2.089-0.476-3.143
		c-0.196-2.911-1.293-3.561-4.238-2.682c-4.021,1.2-8.07,2.32-12.134,3.369c-2.964,0.766-3.665,0.139-3.683-2.968
		c-0.001-0.097,0.002-0.195,0.002-0.291c0.004-5.61,0.036-5.27,5.564-5.774c3.492-0.319,6.894-1.778,10.283-2.882
		c0.549-0.179,1.173-1.175,1.173-1.792c-0.005-4.715,0.414-9.4-1.84-13.955c-2.709-5.474-4.827-11.234-7.153-16.89
		c-0.285-0.694-0.271-1.506-0.395-2.264c0.208-0.778,0.415-1.557,0.623-2.334c0.216-0.592,0.432-1.182,0.648-1.774
		c0.194-0.757,0.388-1.513,0.583-2.27c1.044-0.646,2.028-1.424,3.141-1.916c4.823-2.128,9.615-4.405,15.14-4.019
		c0.559,0.039,1.134-0.33,1.713-0.388c2.327-0.234,2.831-1.489,1.966-3.435c-1.358-3.052-2.947-6.014-4.139-9.125
		c-1.804-4.708-5.836-9.267-1.527-14.629c0.08-0.1-0.053-0.368-0.086-0.558c0.041-0.177,0.11-0.342,0.209-0.494
		c0.143-0.197,0.286-0.393,0.429-0.591c0.239-0.382,0.478-0.763,0.718-1.144c0.224-0.353,0.448-0.706,0.672-1.059
		c0,0,0.023-0.04,0.022-0.04c0.156-0.215,0.313-0.428,0.469-0.643c0.846-1.13,1.692-2.26,2.538-3.39
		c1.842-1.239,3.763-2.381,5.507-3.742c2.146-1.675,3.609-4.346,7.016-4.042c0.455,0.041,1.46-1.339,1.496-2.094
		c0.143-2.976,0.002-5.965-0.033-8.95c0.076-0.136,0.157-0.267,0.245-0.395c0.376-0.544,0.752-1.089,1.129-1.633
		c0.344-0.289,0.689-0.578,1.033-0.868c0.247-0.311,0.494-0.623,0.741-0.935l0.065-0.073c1.724-0.874,2.806-0.312,3.226,1.488
		c0.463,1.984,0.847,3.985,1.265,5.979c2.324-2.78,4.434-5.39,3.239-9.137c-0.492-1.541-0.56-3.215-0.82-4.828
		c0.176-0.224,0.353-0.448,0.53-0.672c0.989-0.963,1.978-1.927,2.967-2.891c0.285-0.332,0.571-0.663,0.855-0.995
		c0.576-0.542,1.154-1.082,1.73-1.623c0.309-0.114,0.618-0.229,0.927-0.342c3.379,1.132,1.161,3.675,1.09,5.368
		c-0.138,3.307,0.563,4.635,4.049,4.608c3.513-0.027,7.026-0.289,10.532-0.539c1.014-0.073,2.005-0.457,3.006-0.699
		c-0.335-1.028-0.595-2.088-1.017-3.08c-2.13-5.01-4.304-10.003-6.462-15.001c0.033-0.156,0.087-0.305,0.161-0.447
		c0.214-0.159,0.429-0.317,0.643-0.475c0.954-0.835,1.907-1.669,2.862-2.504c1.679-0.095,2.932,0.316,3.643,2.088
		c2.31,5.757,4.711,11.481,7.178,17.175c0.374,0.863,1.163,1.774,1.993,2.121c0.375,0.157,1.51-0.898,1.974-1.609
		c2.102-3.222,4.068-6.53,6.119-9.784c1.508-2.393,3.072-4.752,4.503-6.96c-3.985-2.564-7.435-4.926-11.034-7.042
		c-1.827-1.074-2.127-2.294-1.321-4.036c0.144-0.099,0.298-0.18,0.463-0.241c1.063-0.414,2.094-0.972,3.197-1.207
		c1.354-0.289,3.023-0.839,4.106-0.336c2.45,1.14,4.785,2.666,6.872,4.383c3.599,2.96,7.408,3.877,11.996,2.709
		c3.193-0.813,3.544-0.909,1.536-3.485c-3.152-4.045-4.693-8.525-4.59-13.593c2.544-1.01,5.087-2.02,7.631-3.029
		c0.88-0.39,1.759-0.782,2.638-1.173c0.359-0.039,0.716-0.078,1.075-0.119c1.87,1.329,0.067,2.163-0.348,3.285
		c-0.556,1.503-1.3,3.291-0.936,4.697c0.762,2.945,2.138,5.747,3.407,8.544c0.249,0.548,1.124,1.031,1.768,1.115
		c0.389,0.051,1-0.653,1.323-1.139c4.405-6.633,8.761-13.296,13.173-19.923c0.639-0.96,1.506-1.773,2.267-2.654
		c3.621-0.496,7.241-0.992,10.86-1.486c-0.372,1.069-0.536,2.27-1.146,3.179c-3.022,4.496-6.2,8.89-9.204,13.397
		c-0.325,0.488,0.04,2.108,0.208,2.127c3.136,0.348,6.478,1.282,9.395,0.572c4.089-0.997,7.995-2.468,12.324-2.161
		c2.343,0.165,4.718,0.145,7.062-0.021c3.295-0.233,3.747-1.123,3.24-4.277c-0.794-4.943-1.355-9.922-2.014-14.884
		c2.728-0.29,5.456-0.579,8.184-0.871c0.494,0.194,0.986,0.389,1.48,0.585c0.53,0.094,1.059,0.188,1.589,0.282
		c0.005,3.747,0.061,7.495-0.01,11.24c-0.033,1.734,0.539,2.561,2.385,2.961c5.45,1.18,10.907,2.401,16.239,4.005
		c2.768,0.833,3.351-0.154,3.874-2.471c1.08-4.785,2.434-9.51,3.676-14.26c1.333,0.092,2.664,0.184,3.996,0.277
		c0.806,0.157,1.613,0.314,2.418,0.47c1.143,0.254,2.286,0.509,3.429,0.764c-1.244,5.846-2.49,11.694-3.734,17.541
		c1.214,0.035,1.674-0.25,2.14-0.524c4.067-2.4,8.089-4.878,12.219-7.168c2.927-1.623,6-2.988,9.007-4.468
		c5.143,1.838,10.286,3.675,15.429,5.514c-0.647,1.273-1.521,2.484-1.895,3.83c-1.058,3.805-2.463,7.629-2.724,11.51
		c-0.471,7.007-0.261,14.061-0.222,21.095c0.012,2.26,1.24,2.993,3.557,2.329c3.383-0.969,6.853-1.641,10.261-2.528
		c1.693-0.441,2.441-1.415,1.644-3.265c-0.444-1.033-0.583-2.228-0.682-3.365c-0.612-7.015-1.241-14.032-1.703-21.058
		c-0.102-1.559,0.442-3.16,0.689-4.742c0.535,0.135,1.069,0.269,1.604,0.404c0.23,0.135,0.46,0.27,0.69,0.405
		c0.954,0.456,1.907,0.913,2.861,1.368c0.212,0.146,0.425,0.29,0.638,0.436c0.379,0.24,0.758,0.481,1.136,0.721
		c0.211,0.147,0.423,0.296,0.634,0.444c0.574,0.43,1.148,0.86,1.721,1.29c0.38,8.369,0.751,16.739,1.146,25.107
		c0.099,2.08-0.506,4.916,0.616,6.036c1.322,1.32,4.171,1.153,6.356,1.63c0.096,0.306,0.192,0.612,0.287,0.92
		c0.958,1.382,1.917,2.763,2.875,4.145c0.341,0.063,0.682,0.127,1.024,0.19c0,0-0.021-0.024-0.02-0.024
		c0.612,0.766,1.223,1.531,1.835,2.298c0,0-0.005-0.004-0.004-0.004c0.584,0.813,1.169,1.627,1.753,2.439
		c0.838,1.211,1.723,2.394,2.501,3.64c0.726,1.162,2.132,2.606,1.869,3.556c-1.213,4.383-2.838,8.663-4.455,12.928
		c-0.765,2.019-0.264,2.988,1.911,3.045c2.355,0.06,4.745-0.158,7.059,0.166c5.206,0.728,7.808-0.932,8.95-6.137
		c0.37-1.69,1.124-2.887,3.087-2.864c4.327,0.071,4.327,0.071,5.467,5.529c1.857-0.044,3.411,0.247,2.179,2.687
		c-3.635-0.439-3.611,3.018-5.537,4.398c0.078,0.293,0.157,0.585,0.234,0.878c2.301,0.46,4.601,0.921,7.075,1.416
		c0-1.765,0-2.709,0-3.652c0.434,0.921,0.81,1.876,1.319,2.756c0.535,0.926,1.189,1.785,1.805,2.664
		c0.216,0.309,0.698,0.608,0.677,0.883c-0.235,3.115,1.785,5.614,2.358,8.392c0.845,4.1,0.52,8.434,0.695,12.668
		c-2.248,0.953-4.697,1.621-6.676,2.962c-1.246,0.845-2.347,2.633-2.522,4.113c-0.267,2.251,0.472,4.599,0.528,6.911
		c0.193,7.853,0.341,15.709,0.367,23.564c0.011,3.578-0.334,7.155-0.46,10.735c-0.068,1.932,0.559,2.474,2.706,1.82
		c3.349-1.02,6.204-2.548,8.387-5.255c-0.132,2.408-0.048,4.852-0.451,7.215c-0.498,2.913-1.403,5.757-2.134,8.632
		c-0.498-1.039,0.546-3.139-1.861-2.86c-2.545,0.295-3.639,3.147-2.146,5.183c0.601,0.818,0.972,1.801,1.487,2.786
		c0.83-0.197,1.581-0.374,2.332-0.552c-0.176,2.572,0.299,5.361-2.428,7.082c-0.115-0.346-0.366-0.711-0.323-1.037
		c0.526-3.95,2.433,8.83-1.711,8.565c-1.604-0.103-6.285-14.511-7.794-15.062c-0.614-0.225-0.975-1.199-1.386-1.871
		c-0.424-0.692-0.697-1.998-1.16-2.055 M279.442,69.923c-3.184,0.955-5.933,1.872-8.732,2.596c-3.448,0.891-3.848,2.057-1.472,4.664
		c3.255,3.571,6.443,7.202,9.735,10.739c3.039,3.266,6.133,6.485,9.288,9.643c2.071,2.073,3.574,2.014,4.304-0.168
		c1.76-5.264,3.448-10.56,4.882-15.915c0.23-0.856-0.738-2.617-1.614-3.052c-2.242-1.113-4.692-1.988-7.157-2.454
		c-3.229-0.611-5.36-2.607-7.526-4.712C280.569,70.698,279.868,70.254,279.442,69.923z M162.422,70.341
		c-0.013-0.111-0.028-0.221-0.041-0.333c-1.773,0-3.551-0.084-5.316,0.032c-0.999,0.066-1.975,0.46-2.962,0.706
		c0.312,1.17,0.336,2.538,0.994,3.469c1.508,2.136,3.512,3.935,4.972,6.096c2.343,3.467,5.327,4.566,9.459,3.79
		c4.414-0.83,9.002-0.859,13.344-1.918c2.51-0.611,4.934-2.298,6.863-4.068c0.617-0.565-0.499-2.946-0.788-4.501
		c-0.544-2.926-4.926-5.893-7.89-5.507C174.854,68.915,168.635,69.604,162.422,70.341z M169.624,51.779
		c-0.074,0.007-0.147,0.013-0.221,0.021c0,1.648,0.077,3.301-0.019,4.944c-0.118,2.022,0.762,2.838,2.784,2.706
		c5.465-0.358,10.761-0.969,14.268-5.978c1.217-1.738,2.872-3.171,4.208-4.836c2.339-2.914,1.995-6.174,0.767-9.343
		c-0.288-0.743-1.655-1.621-2.438-1.546c-5.62,0.534-11.209,1.381-16.826,1.954c-2.65,0.27-3.609,1.496-3.304,4.019
		C169.167,46.398,169.369,49.092,169.624,51.779z M61.203,97.967c-0.017,3.761,0.22,3.881,3.879,3.106
		c3.522-0.748,7.108-1.21,10.615-2.016c2.025-0.466,4.447-0.033,5.455-2.967c1.878-5.469,4.213-10.784,6.316-16.179
		c0.583-1.493,0.447-2.866-1.597-2.829c-3.722,0.067-7.451,0.203-11.153,0.56c-0.97,0.094-2.196,0.894-2.703,1.727
		c-1.396,2.293-2.381,4.826-3.704,7.167c-1.112,1.969-2.101,4.273-3.811,5.576C62.346,93.754,60.956,95.348,61.203,97.967z
		 M163.726,114.304c2.348,3.225,4.875,4.62,7.816,5.171c5.663,1.061,11.333,2.136,17.045,2.875
		c7.304,0.946,11.537-1.122,10.941-8.159c-0.353-4.164-0.961-4.618-5.092-4.026c-6.765,0.97-13.578,1.604-20.358,2.47
		C170.823,113.051,167.595,113.673,163.726,114.304z M159.293,105.98c0.706,0,1.553,0.077,2.382-0.013
		c4.761-0.52,9.51-1.154,14.278-1.607c5.066-0.481,10.149-0.78,15.22-1.221c0.719-0.062,1.704-0.297,2.015-0.79
		c0.255-0.405-0.187-1.38-0.533-1.983c-0.773-1.343-1.717-2.589-2.523-3.915c-2.962-4.866-4.767-5.597-10.473-4.294
		c-2.188,0.5-4.421,0.808-6.602,1.331c-2.046,0.491-4.717,0.545-5.939,1.856C164.203,98.467,161.983,102.218,159.293,105.98z
		 M54.828,95.412c-0.289-0.623-0.708-1.527-1.128-2.432c-0.824,0.4-1.759,0.665-2.449,1.227c-1.418,1.154-2.743,2.426-4.038,3.718
		c-4.161,4.155-7.838,8.382-4.335,14.828c2.015,3.709,3.601,7.645,5.446,11.448c0.204,0.419,0.867,0.899,1.279,0.868
		c0.474-0.036,1.195-0.533,1.31-0.96c0.543-2.017,1.001-4.066,1.324-6.128c0.268-1.709,0.249-3.458,0.453-5.179
		C53.361,107.15,54.076,101.506,54.828,95.412z M159.865,52.703c0.06-0.006,0.12-0.01,0.18-0.016
		c-0.242-2.883-0.407-5.776-0.782-8.643c-0.091-0.693-0.809-1.789-1.353-1.86c-3-0.394-6.038-0.737-9.056-0.686
		c-2.568,0.043-4.973,4.109-3.926,6.283c1.724,3.578,3.51,7.081,3.293,11.255c-0.108,2.074,1.132,2.961,3.422,2.81
		c7.74-0.509,8.222-0.932,8.221-8.561C159.865,53.091,159.865,52.897,159.865,52.703z M309.677,111.393
		c-0.032-0.263-0.063-0.526-0.095-0.789c-0.763,0.299-1.718,0.428-2.209,0.968c-0.242,0.267,0.163,1.526,0.633,1.936
		c5.344,4.659,10.734,9.27,16.19,13.801c0.587,0.488,1.977,0.827,2.479,0.49c2.665-1.794,5.272-3.707,7.69-5.811
		c2.177-1.896,1.389-4.62-1.374-5.482c-2.227-0.696-4.453-1.399-6.656-2.162c-2.735-0.948-5.377-2.337-8.187-2.842
		C315.41,111.009,312.508,111.393,309.677,111.393z M127.168,79.877c4.948,3.893,9.952,7.829,15.61,12.281
		c0-6.95-0.088-12.938,0.043-18.922c0.052-2.367-0.71-3.22-3.171-3.305c-2.155-0.074-4.331-0.731-6.412-1.393
		c-2.174-0.692-3.365,0.48-3.861,2.069C128.421,73.669,127.864,76.853,127.168,79.877z M56.342,130.962
		c1.442-0.559,2.279-0.765,2.993-1.18c4.041-2.351,7.887-5.109,12.131-7.006c2.664-1.191,3.722-2.982,4.335-5.355
		c0.554-2.145,0.851-4.356,1.252-6.54c0.294-1.598-0.431-2.588-2.036-2.396c-2.408,0.288-4.763,1.004-7.17,1.287
		c-2.889,0.34-4.152,2.23-5.137,4.562c-1.886,4.468-3.824,8.916-5.68,13.397C56.697,128.536,56.652,129.458,56.342,130.962z
		 M214.447,76.976c0.147,0.257,0.296,0.514,0.443,0.771c0.738-0.818,2.234-1.808,2.089-2.426c-0.869-3.716-1.994-7.389-3.32-10.973
		c-0.305-0.826-1.777-1.827-2.632-1.759c-4.482,0.354-8.935,1.044-13.403,1.579c-2.064,0.247-1.852,1.259-1.026,2.601
		c1.647,2.676,3.094,5.496,4.972,8.001c0.799,1.066,2.426,1.97,3.766,2.109C208.342,77.19,211.406,76.976,214.447,76.976z
		 M196.728,56.246c3.733-0.785,7.121-1.433,10.47-2.242c1.028-0.249,2.674-0.804,2.795-1.448c0.725-3.829,2.966-6.641,5.623-9.259
		c1.423-1.403,1.544-3.23-0.304-3.769c-4.199-1.226-8.552-1.996-12.885-2.693c-1.988-0.319-2.529,0.969-2.01,2.803
		c0.392,1.387,0.618,2.821,0.905,4.236C202.285,48.62,198.159,51.461,196.728,56.246z M124.092,64.362
		c-0.562-0.829-1.013-1.794-1.731-2.489c-1.815-1.757-3.965-3.217-5.578-5.127c-1.639-1.941-2.629-1.052-3.656,0.316
		c-1.96,2.61-3.835,5.283-5.733,7.939c-1.834,2.566-1.209,3.938,1.776,5.152c3.063,1.246,5.934,2.945,8.954,4.302
		c0.683,0.307,2.257,0.263,2.373-0.027C121.785,71.206,122.864,67.906,124.092,64.362z M152.454,83.024
		c-0.352,0.205-0.703,0.41-1.055,0.614c-0.921,3.079-1.568,6.274-2.838,9.206c-1.444,3.335-1.326,4.929,1.588,7.311
		c0.511,0.418,1.064,0.85,1.407,1.392c1.141,1.802,2.026,1.305,2.953-0.177c1.427-2.281,2.946-4.508,4.33-6.813
		c0.416-0.693,0.98-1.894,0.682-2.313C157.277,89.094,154.835,86.08,152.454,83.024z M132.282,50.836
		c-1.374,0-2.775-0.161-4.108,0.066c-0.688,0.117-1.535,0.805-1.817,1.447c-0.564,1.282,2.569,8.056,3.821,8.658
		c0.172,0.082,0.372,0.133,0.563,0.149c2.528,0.214,5.058,0.407,7.586,0.628c1.532,0.134,2.002-0.563,2.084-2.033
		C140.764,53.42,138.425,50.791,132.282,50.836z M25.23,142.997c0.673,2.18,1.002,3.594,1.556,4.917
		c0.351,0.84,1.036,1.544,1.571,2.31c0.829-0.581,1.748-1.072,2.473-1.76c2.599-2.467,3.899-6.32,8.028-7.186
		c0.408-0.086,0.633-1.019,0.943-1.558c-0.542-0.302-1.096-0.883-1.624-0.86c-2.827,0.117-5.755,0.006-8.432,0.738
		C28.023,140.068,26.672,141.858,25.23,142.997z"/>
	<path fill="#E1EC28" d="M140.928,362.287c-2.433-0.01-5.208,0.733-7.228-0.184c-4.424-2.01-9.612-1.035-13.736-3.972
		c-0.912-0.649-2.422-0.423-3.636-0.695c-4.366-0.975-8.755-1.876-13.073-3.038c-2.427-0.653-4.73-1.763-7.088-2.667
		c-0.8-4.367-5.03-5.678-7.569-8.918c-1.167,1.108-2.112,2.005-2.84,2.696c-1.568-0.857-3.17-1.43-4.387-2.457
		c-3.266-2.756-6.459-5.618-9.465-8.649c-0.656-0.661-0.23-2.277-0.617-3.337c-1.616-4.425-3.482-8.761-5.007-13.215
		c-1.338-3.909-2.33-7.936-3.509-11.901c-0.271-0.912-0.439-2.052-1.074-2.629c-6.717-6.127-13.443-12.248-20.348-18.161
		c-1.782-1.526-4.157-2.783-6.44-0.225c-0.196,0.219-1.681-0.162-1.792-0.508c-0.468-1.471-1.281-3.335-0.741-4.479
		c0.527-1.117,2.47-1.885,3.922-2.193c4.692-0.996,8.544,1.294,11.991,3.973c4.474,3.476,8.623,7.366,12.961,11.021
		c4.913,4.138,9.901,8.185,14.813,12.323c2.368,1.994,4.688,4.053,6.943,6.174c2.809,2.643,6.201,3.091,9.88,3.296
		c6.922,0.385,13.932,0.602,20.699,1.932c5.69,1.118,11.093,3.708,16.61,5.684c0.411,0.147,0.936,0.549,1.028,0.925
		c1.104,4.488,5.086,6.443,8.026,9.346c3.1,3.062,5.826,6.5,8.914,9.577c1.652,1.645,3.389,2.907,6.33,2.518
		c3.906-0.517,8.133-2.177,11.913,0.353c2.086,1.396,4.179,3.067,5.619,5.078c2.704,3.78,6.606,4.222,10.5,4.099
		c5.216-0.164,9.762,1.098,13.764,4.381c0.516,0.423,0.93,0.971,1.391,1.459c0.163,1.696-0.48,2.416-2.31,2.396
		c-4.824-0.053-9.65,0.024-14.473,0.146c-3.87,0.098-7.737,0.338-11.607,0.516c-1.665-2.97-2.987-6.232-5.158-8.77
		c-0.886-1.035-3.608-0.531-5.5-0.669c-0.965-0.071-1.943-0.067-2.91-0.003c-3.681,0.246-7.353,0.443-10.001,3.663
		c-0.532,0.647-1.665,0.843-2.556,1.146C141.214,358.986,139.841,359.93,140.928,362.287z M116.84,326.504
		c-2.367,0.773-2.481,2.078-1.601,3.51c2.866,4.661,5.845,9.252,8.741,13.896c1.311,2.102,2.595,4.226,3.768,6.406
		c1.062,1.975,4.701,4.273,6.083,3.584c2.326-1.159,4.595-2.431,6.901-3.632c1.839-0.957,2.043-2.209,0.676-3.708
		c-1.42-1.556-2.846-3.11-4.343-4.59c-3.932-3.888-7.679-8.01-11.948-11.49C122.759,328.555,119.499,327.732,116.84,326.504z
		 M118.443,354.291c0.421-0.267,2.037-0.93,1.974-1.323c-0.26-1.62,0.219-3.819-2.487-4.248c-0.879-0.139-1.827-1.12-2.359-1.958
		c-3.241-5.1-6.364-10.273-9.543-15.413c-1.418-2.293-2.573-2.439-4.515-0.438c-1.814,1.87-3.682,3.736-5.158,5.859
		c-0.59,0.848-0.724,2.872-0.139,3.501c1.398,1.501,3.355,2.479,5.071,3.69c3.366,2.373,7.146,4.357,9.941,7.278
		C113.239,353.339,115.27,353.894,118.443,354.291z M75.766,316.246c-0.216,0.146-0.432,0.294-0.648,0.44
		c0.99,2.548,2.104,5.055,2.935,7.653c0.876,2.74,1.476,5.568,2.215,8.353c0.097,0.369,0.25,0.742,0.458,1.059
		c1.3,1.982,4.72,2.077,6.339,0.362c1.525-1.616,3.13-3.222,4.941-4.489c2.707-1.895,5.625-3.491,9.368-5.771
		c-1.936-0.515-3.237-1.067-4.575-1.181c-5.649-0.484-11.43-0.237-16.404-3.743C78.943,317.907,77.314,317.134,75.766,316.246z"/>
</g>
<path fill="#2A7D00" d="M139.602,174.936c0.314,12.286-10.677,21.909-21.792,20.784c-3.116-0.316-6.602-1.571-9.006-3.52
	c-9.594-7.781-10.604-25.605,0.068-33.681c5.771-4.367,11.959-3.343,18.004-1.504C135.245,159.56,139.995,166.733,139.602,174.936z"
	/>
<path fill="#2A7D00" d="M250.149,174.271c-0.299-9.103,6.915-16.039,15.788-18.175c5.503-1.324,10.184-0.845,14.545,2.332
	c5.851,4.262,8.391,10.459,8.007,17.448c-0.46,8.351-3.833,15.371-12.066,18.889c-7.255,3.1-17.541-0.354-21.814-7.026
	C251.899,183.507,249.811,179.096,250.149,174.271z"/>
<path fill="#2A7D00" d="M210.14,229.886c-4.194-0.212-9.162-2.358-12.941-6.845c-1.638-1.945-2.519-2.129-4.48-0.059
	c-6.005,6.341-13.308,8.988-21.733,5.322c-2.396-1.043-4.477-3.226-6.186-5.31c-1.551-1.892,0.488-5.08,2.985-4.919
	c1.19,0.077,2.471,0.452,3.498,1.055c5.88,3.459,13.636,0.56,16.494-5.381c1.325-2.755,3.335-5.179,5.012-7.768
	c1.262-1.948,2.714-1.829,3.929-0.135c1.917,2.671,3.715,5.437,5.407,8.256c3.549,5.912,8.462,7.743,14.989,5.442
	c1.069-0.377,2.137-1.067,3.204-1.064c1.477,0.004,3.807,0.099,4.224,0.931c0.607,1.21,0.364,3.476-0.445,4.654
	C221.196,228.29,216.802,229.86,210.14,229.886z"/>
<path fill="#E1EC28" d="M343.537,208.788c-0.339,2.208,0.61,4.848-2.104,6.258C342.003,212.915,340.65,210.142,343.537,208.788z"/>
</svg>
