<?xml version="1.0" encoding="utf-8"?>
<!-- Generator: Adobe Illustrator 28.4.1, SVG Export Plug-In . SVG Version: 6.00 Build 0)  -->
<svg version="1.1" id="Layer_1" xmlns="http://www.w3.org/2000/svg" xmlns:xlink="http://www.w3.org/1999/xlink" x="0px" y="0px"
	 viewBox="0 0 668.7 801.3" style="enable-background:new 0 0 668.7 801.3;" xml:space="preserve">
<style type="text/css">
	.st0{fill:#D4D4D4;fill-opacity:0.2742;}
	.st1{opacity:0.73;fill:#F5FFD0;fill-opacity:0.2742;enable-background:new    ;}
	.st2{fill:#FFD0F6;fill-opacity:0.1329;}
	.st3{opacity:0.16;fill:#FFFFFF;enable-background:new    ;}
	.st4{fill:#EDEDED;}
	.st5{fill:none;stroke:#EDEDED;stroke-width:16;stroke-linecap:round;stroke-miterlimit:10;}
</style>
<path class="st0" d="M12.7,789.4l47.6-68.5h539.8l58.6,66.4"/>
<g>
	<path class="st1" d="M60.3,720.9L57.4,10h538.4l1.3,710.9H60.3L60.3,720.9z"/>
	<path class="st2" d="M12.7,789.4l-3-691.7L57.4,10l2.8,710.9L12.7,789.4z"/>
	<path class="st2" d="M597.2,720.9l-1.3-709.8L657,91.8l6.8,701L597.2,720.9z"/>
	<g>
		<path class="st3" d="M15.3,795.3c-7,0-16.4-1.8-16.4-17.7V102.1c0-7.7,9-14.1,20.1-14.1c28.7,0,129.7-0.1,246.6-0.3
			c145.6-0.2,310.7-0.5,369-0.5c9.4,0,17,6.7,17,14.9c0,26.5-0.3,131.5-0.6,253.2c-0.5,168.1-1,358.6-1,424.6c0,10.8-9.3,13-17,13
			c-21.8,0-111.7,0.4-215.8,0.9C267.3,794.5,80.7,795.3,15.3,795.3z"/>
		<path class="st4" d="M644.7,95.2c5.4,0,9,3.6,9,6.9c0,26.4-0.3,131.5-0.6,253.2c-0.5,168.1-1,358.6-1,424.6c0,2.4-0.6,2.9-1.1,3.2
			c-1.2,0.9-3.9,1.8-8,1.8c-21.8,0-111.7,0.4-215.8,0.9c-149.9,0.7-336.5,1.5-402,1.5c-1.8,0-5-0.2-6.4-1.7c-1.2-1.3-2-4.3-2-8
			V102.1c0-2.4,4.8-6.1,12.1-6.1c28.7,0,129.7-0.1,246.6-0.3C421.4,95.5,586.4,95.2,644.7,95.2 M644.7,79.2
			C540.4,79.2,94.2,80,29.1,80C13.6,80,1,89.6,1,102.1C1,164,1,658.6,1,777.6c0,16.4,8.8,25.7,24.4,25.7
			c110.8,0,564.5-2.3,617.8-2.3c13.1,0,25-6.1,25-21c0-114.7,1.6-615.5,1.6-677.8C669.7,89.6,658.7,79.2,644.7,79.2L644.7,79.2z"/>
	</g>
	<path class="st5" d="M9.7,97.7c0,0,34.8-72.8,41-83.1c1.5-2.4,4.3-4.6,6.7-4.6c26.6,0,477.3,0,533.4,0c3.7,0,7.3,1.7,9.1,3.8
		c8.2,9.2,57.1,78,57.1,78"/>
</g>
</svg>
