<?xml version="1.0" encoding="utf-8"?>
<!-- Generator: Adobe Illustrator 28.4.1, SVG Export Plug-In . SVG Version: 6.00 Build 0)  -->
<!DOCTYPE svg PUBLIC "-//W3C//DTD SVG 1.1//EN" "http://www.w3.org/Graphics/SVG/1.1/DTD/svg11.dtd" [
	<!ENTITY ns_extend "http://ns.adobe.com/Extensibility/1.0/">
	<!ENTITY ns_ai "http://ns.adobe.com/AdobeIllustrator/10.0/">
	<!ENTITY ns_graphs "http://ns.adobe.com/Graphs/1.0/">
	<!ENTITY ns_vars "http://ns.adobe.com/Variables/1.0/">
	<!ENTITY ns_imrep "http://ns.adobe.com/ImageReplacement/1.0/">
	<!ENTITY ns_sfw "http://ns.adobe.com/SaveForWeb/1.0/">
	<!ENTITY ns_custom "http://ns.adobe.com/GenericCustomNamespace/1.0/">
	<!ENTITY ns_adobe_xpath "http://ns.adobe.com/XPath/1.0/">
]>
<svg version="1.1" id="Layer_1" xmlns:x="&ns_extend;" xmlns:i="&ns_ai;" xmlns:graph="&ns_graphs;"
	 xmlns="http://www.w3.org/2000/svg" xmlns:xlink="http://www.w3.org/1999/xlink" x="0px" y="0px" viewBox="0 0 192.178 246.365"
	 enable-background="new 0 0 192.178 246.365" xml:space="preserve">
<metadata>
	<sfw  xmlns="&ns_sfw;">
		<slices></slices>
		<sliceSourceBounds  bottomLeftOrigin="true" height="1860.713" width="2201.936" x="-920.789" y="-2081.878"></sliceSourceBounds>
	</sfw>
</metadata>
<g>
	
		<ellipse transform="matrix(0.9999 -0.0118 0.0118 0.9999 -1.7825 1.1436)" fill="#7A1516" cx="96.089" cy="151.73" rx="96.089" ry="94.635"/>
	<path fill="#E21D12" d="M161.641,88.22c30.182,20.379,35.82,84.243,7.442,121.727c-27.604,36.461-86.967,43.949-126.613,16.779
		C5.109,201.122-5.614,143.03,17.178,105.317c0.203-0.336,0.634-0.532,0.96-0.794c23.284-14.652,43.364-3.018,65.191,5.879
		C122.151,126.226,148.202,117.62,161.641,88.22z M35.34,146.692 M35.103,144.727 M94.66,140.434 M120.095,140.591 M176.804,146.507
		 M175.227,148.777c0.805,0.06,1.626-0.115,2.44-0.18 M109.077,157.41 M108.128,165.795"/>
	<path fill="#F65850" d="M161.867,87.997c0.052,0.044,2.844,2.434,2.815,2.496c-13.798,29.317-41.542,37.344-81.317,21.537
		c-22.21-8.826-42.656-20.346-66.298-6.223c-0.15,0.09-0.326-0.075-0.239-0.225C30.847,81.599,52.19,67.706,79.496,62.03
		c0.049-0.01-0.348,0.077-0.301,0.063c3.196-0.953,2.623,1.219,3.196,2.898c2.592,7.598,5.931,16.365,14.754,17.915
		c11.761-2.393,8.263-15.508,4.574-21.727c-0.05-0.084,2.38-0.007,2.478,0.001C127.856,62.978,146.82,75.205,161.867,87.997z"/>
	<path fill="#4F6F12" d="M101.465,57.178c0.839,2.686,4.616,10.64,5.148,12.127c2.627,7.783,3.368,11.19-8.266,13.601
		C88.322,86.44,82.391,69.153,81.751,63.258c-0.152-1.399,0,0-0.659-1.244c-0.323-1.274-0.646-2.549-0.971-3.822
		c-2.376-16.406-2.474-32.557,7.143-47.04C92.089,3.886,98.942-0.621,108.128,0.07c7.084,0.533,9.12,4.361,6.291,10.85
		c-0.012,0.028,0.673,0.543,0.878,0.458c24.128-9.999,40.762,20.185,64.562,12.108c0.341-0.116,1.699,1.313,1.587,1.549
		c-0.677,1.429-1.333,3.21-2.559,3.985c-24.673,15.599-49.107,33.967-78.311,8.599c-0.284-0.247-1.561,0.075-1.565,0.162
		C98.759,44.493,98.795,50.979,101.465,57.178z M96.737,79.343c9.803-3.902,6.284-11.406,3.95-17.558
		c-3.98-10.489-7.684-20.755-4.351-32.124c23.016,25.433,47.349,18.02,71.953,2.834c1.548-0.956,2.818-2.362,4.217-3.559
		c-0.57-0.236-1.146-0.692-1.708-0.675c-8.967,0.272-16.343-3.346-23.665-8.286c-11.868-8.007-24.777-8.478-37.819-2.612
		c-2.232,1.004-4.196,2.605-6.284,3.93c1.415-2.596,2.887-5.163,4.228-7.797c1.451-2.849,4.467-7.84,3.888-8.31
		c-3.964-3.219-8.945-2.286-12.683,0.42C82.491,17.17,80.554,34.02,83.6,51.47C85.36,61.552,84.532,73.801,96.737,79.343z"/>
	<path fill="#76AC1F" d="M96.737,79.343C84.532,73.801,85.36,61.552,83.6,51.47c-3.046-17.45-1.109-34.3,14.863-45.864
		c3.738-2.706,8.718-3.64,12.683-0.42c0.579,0.47-2.437,5.461-3.888,8.31c-1.341,2.634-2.814,5.201-4.228,7.797
		c2.088-1.325,4.052-2.926,6.284-3.93c13.042-5.866,25.95-5.395,37.819,2.612c7.322,4.94,14.698,8.559,23.665,8.286
		c0.562-0.017,1.139,0.439,1.708,0.675c-1.399,1.197-2.669,2.603-4.217,3.559c-24.604,15.187-48.937,22.6-71.952-2.832
		c1.933-4.412,4.006-8.772,5.746-13.261c1.037-2.676,2.604-7.773,2.136-7.995c-4.153-1.971-5.654,1.98-7.237,4.551
		C83.408,34.994,87.725,57.177,96.737,79.343z M134.17,42.04c7.744,0.145,14.535-2.666,20.713-6.933
		c1.468-1.014,2.067-3.286,3.065-4.979c-14.072-7.187-27.143-19.431-44.73-8.887c-1.408,0.844-2.739,1.816-4.105,2.728
		c1.454,0.689,2.844,1.735,4.373,2.008c9.357,1.669,18.748,3.149,28.12,4.738c0.735,0.125,1.41,0.601,2.113,0.914
		c-0.696,0.33-1.361,0.824-2.094,0.966c-12.566,2.436-24.564-0.048-36.369-4.232c-0.685-0.243-1.498-0.124-2.251-0.173
		c0.36,0.553,0.618,1.221,1.094,1.642C112.687,37.442,122.593,41.82,134.17,42.04z"/>
	<path fill="#A5D34B" d="M96.737,79.343c-9.013-22.166-13.329-44.349,0.244-66.385c1.584-2.571,3.084-6.522,7.237-4.551
		c0.468,0.222-1.098,5.319-2.136,7.995c-1.74,4.489-3.813,8.848-5.746,13.261c-3.333,11.368,0.371,21.634,4.351,32.123
		C103.021,67.937,106.54,75.441,96.737,79.343z"/>
	<path fill="#7C0F0A" d="M38.384,149.595c-0.387,0.047-0.782,0.032-1.181-0.018c-1.567-0.196-2.238-2.244-0.983-3.203
		c0.008-0.006,0.016-0.012,0.024-0.018c14.257-10.58,29.629-17.636,47.955-13.753c5.396,1.143,12.881,2.108,12.031,9.461
		c-0.798,6.903-7.92,3.945-12.488,4.363c-3.669,0.336-6.873,0.445-10.573,0.445"/>
	<path fill="#7C0F0A" d="M141.667,132.349c0.037-0.003,0.072-0.005,0.11-0.005c15.619-0.162,26.509,7.598,37.188,15.792
		c0.058,0.044,0.11,0.096,0.157,0.153c0.67,0.81,0.013,2.057-1.036,2.118c-0.238,0.014-0.474,0.016-0.709-0.001
		c-14.145-1.04-28.291-2.075-42.43-3.189c-4.936-0.389-12.398,2.165-13.098-4.997c-0.684-6.995,6.37-8.394,12.192-9.2
		C136.96,132.615,139.921,132.494,141.667,132.349z"/>
	<path fill="#7C0F0A" d="M108.697,159.34c1.295-0.115,2.597-0.133,3.894-0.033c2.81,0.215,5.987,0.016,5.906,3.714
		c-0.111,5.081-5.388,4.376-8.704,4.403c-3.183,0.025-8.706,0.561-8.43-4.024C101.598,159.492,105.399,159.633,108.697,159.34z"/>
	<path fill="#A5D34B" d="M134.17,42.04c-11.576-0.22-21.483-4.599-30.071-12.208c-0.476-0.422-0.734-1.089-1.094-1.642
		c0.753,0.049,1.566-0.07,2.251,0.173c11.805,4.184,23.803,6.669,36.369,4.232c0.733-0.142,1.397-0.636,2.094-0.966
		c-0.703-0.313-1.378-0.789-2.113-0.914c-9.372-1.589-18.763-3.07-28.12-4.738c-1.528-0.273-2.919-1.319-4.373-2.008
		c1.367-0.912,2.698-1.884,4.105-2.728c17.587-10.544,30.658,1.7,44.73,8.887c-0.999,1.693-1.597,3.965-3.065,4.979
		C148.704,39.374,141.913,42.185,134.17,42.04z"/>
</g>
</svg>
