<?xml version="1.0" encoding="utf-8"?>
<!-- Generator: Adobe Illustrator 28.4.1, SVG Export Plug-In . SVG Version: 6.00 Build 0)  -->
<svg version="1.1" baseProfile="basic" id="Layer_1"
	 xmlns="http://www.w3.org/2000/svg" xmlns:xlink="http://www.w3.org/1999/xlink" x="0px" y="0px" viewBox="0 0 248.309 270.001"
	 xml:space="preserve">
<g>
	<path fill="#F97404" d="M166.907,34.992c-2.868-1.592-6.12-0.696-9.202-1.504c-8.667-2.272-16.278-7.495-25.285-8.703
		c-12.646-1.697-25.009-5.515-37.893-5.471c-21.52,0.074-13.491-2.844-16.155,14.76c-0.74-8.044-0.416-16.066,0.495-24.069
		c1.491-7.134,69.767-3.512,74.789-2.955c4.831,0.536-58.377-1.556-51.916,0.278c1.655,0.631,3.22,2.075,5.112,0.565
		c4.183,0.938-0.25-1.063,3.884-2.4c4.615,2.538,15.392,1.552,17.509-1.708c2.261-0.07,3.069-0.095,5.331-0.165
		c1.336,1.798,3.415,2.693,4.927,4.389c1.717,1.926,3.646-0.082,5.434-0.723C172.139,8.358,165.439,1.46,166.907,34.992z"/>
	<path fill="#975709" d="M5.278,112.81c2.607-5.161,3.059-11.349,5.389-16.791c3.579-7.461,8.418-14.127,13.313-20.733
		c4.877-8.112,14.268-22.31,24.832-21.85c1.847,1.719-1.131,3.71-2.293,4.763c-18.133,16.04-30.092,35.839-36.198,59.231
		c-10.15,39.077,1.957,83.66,31.134,111.488c3.659,5.079,35.824,31.154,39.316,22.37c2.076-4.592,9.981-1.642,8.973,3.154
		c-1.752,8.386,24.801,8.174,30.61,8.89c5.754,1.206,7.915-10.139,13.09-2.739c6.571,7.54,37.994-7.312,46.071-11.472
		c5.227-1.736,15.033-10.373,19.143-9.617c2.417,1.88-0.262,4.963-1.987,6.02c-8.478,6.555-18.093,11.248-27.742,15.655
		c-7.908,3.796-17.452,3.361-25.493,6.914c-4.068,2.129-8.952-0.777-12.785,1.648c-16.865,1.589-33.162-4.533-49.445-7.399
		c-9.456-6.041-20.976-9.08-29.593-16.959c-0.95-0.778-1.87-1.646-3.27-1.295C10.747,212.714-9.058,160.635,5.278,112.81z"/>
	<path fill="#975709" d="M248.118,140.482c1.155,37.524-14.694,74.947-44.318,98.546c-1.393,1.233-3.357,2.653-5.092,0.723
		c-0.764-2.662,1.105-4.169,2.746-5.484c34.641-29.02,48.665-79.352,35.287-122.259c-8.133-27.235-27.358-51.278-51.17-66.208
		c-22.957-11.466-19.576-5.595-20.988-31.478c-0.049-7.579-4.926-4.321-10.164-5.329c-6.876-6.325-18.384,7.658-20.27-5.578
		c0.881-0.547,2.023-0.812,2.695-0.128c5.586,5.143,10.944-4.551,16.938-0.114c1.452,0.815,3.051,1.268,4.723,0.864
		c14.688-2.911,9.155,14.966,11.187,23.587c0.498,3.014,1.571,4.808,4.647,5.883c11.11,3.574,19.955,11.083,28.806,18.255
		c15.747,14.232,28.102,31.208,36.512,50.855c3.455,6.999,2.6,15.733,6.426,22.124C247.115,130.009,247.21,135.383,248.118,140.482z
		"/>
	<path fill="#94683C" d="M199.081,240.141c10.717-4.034,29.946-30.908,35.803-41.737c4.983-13.901,10.951-27.873,11.802-42.755
		c0.29-1.572-0.263-3.354,1.386-4.493c-0.151,62.055-55.507,117.46-117.419,118.585c0.262-0.456,0.589-1.336,0.776-1.307
		c8.015,1.233,14.78-3.6,22.368-4.615c5.522-0.739,11.487-1.286,16.285-4.217C179.274,253.006,193.64,250.612,199.081,240.141z"/>
	<path fill="#975709" d="M68.79,35.561c11.648-2.535,2.812-20.68,7.83-28.511c1.345-3.034,4.141-3.621,6.815-3.181
		c5.071,1.182,8.852-2.192,13.444-2.593c1.16,0.813,2.364,1.48,3.863,1.192l0.239-0.051c1.898,2.852,4.487,1.973,6.743,0.871
		c9.199-4.795,11.105,1.549,16.227,0.261c1.376-0.886,2.795-1.064,4.227-0.092c0.461,4.949-3.276,7.317-8.72,5.539
		c-5.297-3.886-6.983-3.933-12.167-0.322c-6.102,3.377-9.588-6.395-16.194-0.978c-1.58,1.141-3.304,1.008-5.115,0.753
		c-9.815-3.122-5.931,19.64-6.754,25.3c0.282,2.649-0.885,4.36-3.292,5.448c-8.191,3.702-15.868,8.289-23.128,13.585
		c-4.188,4.033-7.091-2.039-3.581-5.201"/>
	<path fill="#94683C" d="M5.278,112.81c-1.083,14.005-6.111,28.047-3.606,42.379c2.049,13.989,5.196,28.702,11.33,41.497
		c5.764,11.341,12.84,21.848,21.314,31.55c3.665,4.195,9.196,7.169,10.762,13.146C7.511,211.619-9.44,158.431,5.278,112.81z"/>
	<path fill="#94683C" d="M246.083,124.74c-1.655-0.06-2.588-0.943-2.564-2.573c0.054-3.756-1.6-7.141-2.271-10.746
		c-1.437-7.721-5.918-14.189-9.245-21.154c-4.614-9.661-11.167-17.727-18.101-25.718c-3.637-4.192-9.184-6.865-10.756-12.789
		C223.967,62.893,243.733,100.604,246.083,124.74z"/>
	<path fill="#94683C" d="M128.245,3.786c-2.958-0.822-5.306,3.161-7.997,0.778c-6.731-5.94-15.651,4.728-19.104-1.964
		c6.187,2.848,10.997-6.036,18.851-1.049c6.053,2.426,10.494-4.902,17.957,0.738c5.346,3.602,9.666-4.939,16.731,0.2
		c5.666,1.71,12.671-0.468,14.107,7.983c-6.428-4.567-20.036-8.788-26.704-4.579c-2.906,1.11-5.1-3.035-8.35-2.064
		C131.892,5.544,130.063,5.311,128.245,3.786z"/>
	<path fill="#94683C" d="M48.344,244.089c2.068-1.539,3.432-0.109,5.012,1.039c8.08,5.873,16.611,10.996,25.937,14.637
		c1.471,0.574,1.941,1.22,1.915,2.577C68.978,258.554,57.945,252.611,48.344,244.089z"/>
	<path fill="#94683C" d="M29.356,66.222c0.896,3.103-1.321,5.312-2.758,7.322c-5.797,7.037-10.173,15.855-15.932,22.475
		C14.633,85.081,21.997,75.257,29.356,66.222z"/>
	<path fill="#94683C" d="M83.767,262.384c3.023-1.833,5.228,0.986,7.792,1.539c7.252,1.566,14.446,3.374,21.848,4.128
		c1.296,0.132,2.857-0.415,3.295,1.527C105.568,269.351,93.353,267.982,83.767,262.384z"/>
	<path fill="#94683C" d="M49.228,47.583c0.037,2.11-1.224,4.188-0.159,6.323c-3.564,0.602-6.533,2.551-9.664,4.165
		c-1.104,0.569-1.512,3.003-3.496,1.45C39.583,54.687,44.088,50.781,49.228,47.583z"/>
	<path fill="#94683C" d="M95.279,1.306C90.292,7.287,81.893,1.817,76.617,7.05c0.717-2.791,5.254-6.828,9.331-5.076
		C92.215,4.667,90.888,2.073,95.279,1.306z"/>
	<path fill="#94683C" d="M247.529,133.842c-1.117-1.255-2.383-2.486-0.658-4.188C247.815,130.936,247.787,132.371,247.529,133.842z"
		/>
	<path fill="#94683C" d="M248.118,140.482c-1.88-0.985-1.749-2.136-0.282-3.399C248.463,138.172,248.367,139.32,248.118,140.482z"/>
	<path fill="#94683C" d="M100.742,2.469c-1.539,0.416-3.168,1.128-3.863-1.192C98.398,0.923,99.653,1.425,100.742,2.469z"/>
	<path fill="#94683C" d="M45.733,241.772c1.174-0.057,1.719,0.513,1.67,1.674C46.846,242.888,46.289,242.33,45.733,241.772z"/>
	<path fill="#FEB703" d="M49.158,53.987c8.255-6.479,17.095-12.012,26.72-16.21c4.586-2.233,1.792-12.144,2.946-16.792
		c0.084-3.675,1.938-5.523,5.457-4.786c12.314,2.581,25.05,1.898,37.289,5.127c6.851,1.807,13.979,2.406,20.801,4.511
		c5.089,1.571,9.359,5.115,14.811,5.804c3.171,1.172,7.679,0.172,9.726,3.351c10.216,4.977,20.185,10.143,28.844,17.284h-0.011
		c16.645,11.523,21.141,31.931,29.548,49.119c5.339,10.891,6.545,22.748,7.155,34.672c0.611,6.763-9.905,7.263-1.556,13.483
		c2.982,7.644-4.38,39.05-13.527,40.692c-5.134,1.111,0.281,7.42-4.434,11.59c-4.259,3.817-10.01,17.993-16.363,10.913
		c-3.116-3.663-7.905,0.423-4.554,3.923c2.56,3.483,2.275,5.297-1.504,8.162c-15.01,11.123-32.779,18.149-51.307,20.397
		c-9.993,0.819-21.268,4.496-30.686,0.178c-5.192-4.059-6.46,4.323-17.492,1.648c-5.848-0.619-11.615-1.988-17.344-3.382
		c-8.12-0.293-5.035-15.222-13.916-8.86c-9.494,7.395-19.915-6.978-26.283-12.711c-23.125-26.504-31.668-63.892-25.61-98.075
		C12.354,96.362,28.087,72.015,49.158,53.987z"/>
	<path fill="#F97404" d="M40.793,229.711c6.685,0.979,12.054,10.694,18.688,3.268c2.974-3.484,9.026-1.059,9.173,3.569
		c0.114,3.601,1.878,5.017,4.658,5.533c7.369,1.366,14.56,3.799,22.186,3.713c6.636,1.364,7.883-5.688,12.427-2.588
		c12.495,8.663,58.661-3.722,70.72-12.813c3.067-2.699,20.199-8.555,11.477-13.124c-1.762-1.025-1.206-3.259-0.873-4.962
		c0.598-3.563,7.307-3.942,8.524-0.674c1.38,3.995,3.046,2.515,4.778,0.478c3.393-5.62,13.126-11.213,10.843-18.402
		c-0.915-1.971,0.239-4.448,2.244-4.488c9.637,1.497,15.414-31.855,14.619-39.092c5.771-3.749,5.405-6.094-0.044-9.753
		c2.791-16.63-3.473-33.126-10.43-47.983c-3.425-7.699-6.835-15.377-10.652-22.905c-3.094-7.007-9.55-11.035-13.392-17.211
		c33.36,22.306,51.842,66.996,46.513,106.872c-2.398,32.94-21.099,58.18-43.542,80.605c-18.972,11.59-38.8,22.104-61.203,24.778
		c-6.184,1.522-3.079-4.742-7.794-5.314c-4.096,0.044-1.732,6.325-6.761,5.551c-4.59,0.02-39.123-1.732-34.715-8.832
		c2.86-4.738-6.233-8.662-6.942-2.628C81.022,263.312,42.237,234.423,40.793,229.711z"/>
	<path fill="#F97404" d="M7.062,128.997c0.249,10.632-1.451,21.15,0.443,31.778c0.091,0.949,0.57,1.85-0.359,2.62
		C4.72,151.934,4.729,140.468,7.062,128.997z"/>
	<path fill="#F97404" d="M33.477,222.1c1.647,1.01,4.333,1.022,3.878,4.046C35.411,225.419,34.122,224.069,33.477,222.1z"/>
	<path fill="#F97404" d="M37.522,226.329c1.872,0.219,2.986,1.173,3.044,3.146C38.99,228.967,37.951,227.943,37.522,226.329z"/>
	<path fill="#F97404" d="M7.544,167.555c0.807,0.328,1.449,0.708,0.498,1.586C7.431,168.752,7.32,168.207,7.544,167.555z"/>
	<path fill="#F97404" d="M7.867,124.025c-0.018,0.281-0.14,0.507-0.362,0.676C7.627,124.474,7.747,124.25,7.867,124.025z"/>
	<path fill="#F97404" d="M186.587,45.659c-1.451-0.562-3.565-0.081-3.859-2.459C184.385,43.442,186.007,43.735,186.587,45.659z"/>
	<path fill="#F97404" d="M193.345,50.571c-1.551,0.101-2.35-0.733-2.677-2.152C192.224,48.31,192.986,49.189,193.345,50.571z"/>
	<path fill="#F97404" d="M190.564,48.324c-1.062-0.098-2.101-0.23-2.27-1.596C189.455,46.686,190.204,47.228,190.564,48.324z"/>
	<path fill="#F97404" d="M195.751,52.276c-1.029,0.023-1.602-0.482-1.737-1.496C195.033,50.768,195.582,51.301,195.751,52.276z"/>
	<path fill="#F97404" d="M182.549,43.097c-0.242-0.188-0.484-0.377-0.724-0.564C182.068,42.721,182.309,42.909,182.549,43.097z"/>
	<path fill="#F97404" d="M187.48,46.444c-0.246-0.211-0.493-0.421-0.738-0.631C186.989,46.024,187.234,46.234,187.48,46.444z"/>
	<path fill="#F97404" d="M97.641,5.441c-1.701,1.069-3.636,0.694-5.477,0.888C93.756,4.582,95.546,4.072,97.641,5.441z"/>
	<path fill="#F97404" d="M210.433,125.118c-0.439-9.465,15.028-9.081,14.1,0.64C224.744,135.498,209.402,135.372,210.433,125.118z"
		/>
	<path fill="#F97404" d="M43.477,202.011c0.379,6.469-10.193,6.526-9.898-0.1C32.645,195.718,43.846,195.166,43.477,202.011z"/>
	<path fill="#F97404" d="M163.403,211.988c6.4-0.541,6.656,8.921,0.349,8.73C158.622,220.945,157.83,211.807,163.403,211.988z"/>
	<path fill="#F97404" d="M147.094,127.343c0.802,6.622-9.003,6.165-8.823,0.488C137.645,122.738,147.167,122.659,147.094,127.343z"
		/>
	<path fill="#F97404" d="M81.166,201.834c0.245-3.93,8.139-3.49,7.489,1.346C88.758,208.827,80.466,208.372,81.166,201.834z"/>
	<path fill="#975709" d="M230.213,140.375c7.596-1.386,7.531,10.928,0.044,9.755c-2.1-3.185-2.378-6.57-0.03-9.743L230.213,140.375z
		"/>
	<path fill="#F97404" d="M208.031,169.663c-0.224-4.505,6.639-4.809,6.522-0.225C215.168,174.244,207.891,174.446,208.031,169.663z"
		/>
	<path fill="#F97404" d="M230.227,140.387c-0.074,3.112-0.148,6.224-0.224,9.338C224.514,149.342,224.977,140.788,230.227,140.387z"
		/>
	<path fill="#F97404" d="M183.304,173.249c0.352,4.574-6.053,3.893-5.622-0.047C177.622,169.19,183.416,169.654,183.304,173.249z"/>
	<path fill="#F97404" d="M23.612,157.452c0.144,3.982-5.867,3.04-5.603-0.511C17.829,153.19,24.24,153.848,23.612,157.452z"/>
	<path fill="#F97404" d="M117.775,223.453c-3.395-0.484-4.597-5.542-0.378-5.562C121.194,217.632,121.706,223.139,117.775,223.453z"
		/>
	<path fill="#F97404" d="M48.762,180.801c2.58-0.046,2.678,5.179-0.438,4.806C45.077,185.692,44.819,180.108,48.762,180.801z"/>
	<path fill="#F97404" d="M198.813,86.391c0.01,2.795-4.692,2.765-4.546,0.064C194.293,83.326,198.566,83.358,198.813,86.391z"/>
	<path fill="#F97404" d="M20.214,136.609c-0.064,0.836-0.48,2.006-2.091,1.89C12.949,137.043,20.258,130.188,20.214,136.609z"/>
	<path fill="#F97404" d="M200.881,197.948c-2.668,0.059-2.252-4.406,0.333-3.903C203.879,193.986,203.469,198.466,200.881,197.948z"
		/>
	<path fill="#F97404" d="M29.305,185.935c0.009,2.765-4.13,2.634-3.885-0.139C25.296,183.438,29.561,183.499,29.305,185.935z"/>
	<path fill="#975709" d="M77.919,159.997c0.315-0.224,0.629-0.447,0.945-0.671C78.549,159.549,78.234,159.773,77.919,159.997z"/>
	<path fill="#975709" d="M80.324,157.74c0.292-0.292,0.585-0.584,0.877-0.876C80.909,157.156,80.616,157.448,80.324,157.74z"/>
	<path fill="#975709" d="M221.943,193.486c0.806,2.992-6.186,4.542-5.654,0.67C216.154,189.98,222.354,187.737,221.943,193.486z"/>
	<path fill="#975709" d="M58.385,239.139c0.715-3.124,3.37-0.432,5.029-0.031c1.094,0.304,3.089,0.192,2.778,1.388
		C65.095,243.911,59.224,242.044,58.385,239.139z"/>
	<path fill="#975709" d="M108.941,248.429c-1.144,2.811-6.724,3.156-6.695-0.316c0.194-1.704,1.486-2.476,3.29-1.832
		C106.823,246.741,108.661,246.34,108.941,248.429z"/>
	<path fill="#975709" d="M125.328,157.033c-2.146,0-4.43,0.136-6.446,0.256c-1.698,0.101-3.302,0.197-4.546,0.197
		c-1.009,0-1.459-0.064-1.637-0.102l-0.319-0.068l-0.326,0.002c-1.274,0.007-3.926,0.022-4.996,3.529
		c-0.512,1.678-0.784,4.391-1.379,10.335l-0.151,1.473c-0.507,4.906-0.537,5.833,0.375,13.64l0.232,1.983l1.918,0.552
		c2.174,0.626,5.593,0.93,10.454,0.93c6.314,0,13.353-0.516,16.987-0.824l2.747-0.233v-2.757c0-2.414-0.238-4.005-0.49-5.69
		c-0.426-2.848-0.956-6.393-0.739-16.43c0.034-1.587-0.521-3.011-1.605-4.119C133.596,157.858,130.488,157.033,125.328,157.033
		L125.328,157.033z"/>
	<path fill="#DFD9E7" d="M135.24,185.626c-7.366,0.624-21.267,1.466-26.357,0c-1-8.561-0.811-8.557-0.219-14.465
		c1.117-11.151,1.117-11.151,3.408-11.164c4.55,0.974,22.077-2.873,21.94,3.444C133.663,179.608,135.24,179.596,135.24,185.626z"/>
	<path fill="#975709" d="M72.424,139.219L72.424,139.219c-6.561,0-10.338,5.273-10.56,10.235c-0.21,4.701,2.687,10.041,9.544,10.657
		l0.137,0.012h0.137h0.183h0.082l0.082-0.005c6.324-0.361,9.976-5.329,10.315-10.051c0.318-4.434-2.153-9.475-8.392-10.741
		l-0.151-0.031l-0.154-0.015C73.238,139.239,72.826,139.219,72.424,139.219L72.424,139.219z"/>
	<path fill="#DFD9E7" d="M71.676,157.123c-10.233-0.918-8.369-15.838,1.681-14.857c9.03,1.832,7.373,14.351-1.498,14.857H71.676z"/>
	<path fill="#94683C" d="M177.654,143.48c-0.259-0.213-0.517-0.426-0.776-0.639C177.137,143.054,177.395,143.267,177.654,143.48z"/>
	<path fill="#94683C" d="M176.799,142.782c-0.378-0.197-0.757-0.393-1.136-0.59C176.041,142.388,176.42,142.585,176.799,142.782z"/>
	<path fill="#975709" d="M168.657,140.704L168.657,140.704c-6.561,0-10.338,5.273-10.56,10.235
		c-0.21,4.701,2.687,10.041,9.544,10.657l0.137,0.012h0.137h0.183h0.082l0.082-0.005c6.324-0.361,9.976-5.329,10.315-10.051
		c0.318-4.434-2.153-9.475-8.392-10.741l-0.151-0.031l-0.154-0.015C169.471,140.724,169.059,140.704,168.657,140.704
		L168.657,140.704z"/>
	<path fill="#DFD9E7" d="M167.909,158.608c-10.233-0.918-8.369-15.838,1.681-14.857c9.03,1.832,7.373,14.351-1.498,14.857H167.909z"
		/>
</g>
</svg>
