<?xml version="1.0" encoding="utf-8"?>
<!-- Generator: Adobe Illustrator 28.4.1, SVG Export Plug-In . SVG Version: 6.00 Build 0)  -->
<!DOCTYPE svg PUBLIC "-//W3C//DTD SVG 1.1//EN" "http://www.w3.org/Graphics/SVG/1.1/DTD/svg11.dtd" [
	<!ENTITY ns_extend "http://ns.adobe.com/Extensibility/1.0/">
	<!ENTITY ns_ai "http://ns.adobe.com/AdobeIllustrator/10.0/">
	<!ENTITY ns_graphs "http://ns.adobe.com/Graphs/1.0/">
	<!ENTITY ns_vars "http://ns.adobe.com/Variables/1.0/">
	<!ENTITY ns_imrep "http://ns.adobe.com/ImageReplacement/1.0/">
	<!ENTITY ns_sfw "http://ns.adobe.com/SaveForWeb/1.0/">
	<!ENTITY ns_custom "http://ns.adobe.com/GenericCustomNamespace/1.0/">
	<!ENTITY ns_adobe_xpath "http://ns.adobe.com/XPath/1.0/">
]>
<svg version="1.1" id="Layer_1" xmlns:x="&ns_extend;" xmlns:i="&ns_ai;" xmlns:graph="&ns_graphs;"
	 xmlns="http://www.w3.org/2000/svg" xmlns:xlink="http://www.w3.org/1999/xlink" x="0px" y="0px" viewBox="0 0 240.724 259.162"
	 enable-background="new 0 0 240.724 259.162" xml:space="preserve">
<metadata>
	<sfw  xmlns="&ns_sfw;">
		<slices></slices>
		<sliceSourceBounds  bottomLeftOrigin="true" height="1860.713" width="2201.936" x="-920.789" y="-2081.878"></sliceSourceBounds>
	</sfw>
</metadata>
<g>
	<circle fill="#B83F02" cx="120.362" cy="138.8" r="120.362"/>
	<path fill="#FB8417" d="M39.809,223.397C-19.068,169.783,2.56,52.824,78.624,32.294c1.042,0.572,2.527,3.557,1.356,3.215
		c-16-4.674,31.239-10.369,37.822-11.594c19.646-2.67,11.324,15.637,30.97,18.092c3.08,0.43,7.992,0.662,7.988-3.563
		c0.097-1.825,0.887-4.67-0.109-5.669c-7.661-7.685,5.657-1.574,7.131-0.84c18.431,9.523,27.346,28.888,36.135,47.263
		c19.506,38.196,19.056,86.598-6.138,122.12c-9.833,14.884-22.959,29.327-38.161,38.617c-9.821,5.979-18.401,14.223-29.677,14.594
		c-16.919,0.435-25.506,1.286-41.662-3.839c-12.409-4.46-35.215-17.708-44.331-27.151L39.809,223.397z"/>
	<path fill="#F84603" d="M76.951,246.468c1.151-0.53,2.973-0.109,4.34-0.048c7.193,0.781,14.39,1.544,21.608,2.024
		c8.933,0.533,18.104,0.925,27.127-0.205c17.574-2.237,31.937-13.034,44.15-25.175c57.726-49.522,48.222-144.9-11.652-189.226
		c-10.195-7.964,12.695,2.243,13.997,3.876c3.882,2.98,7.964,5.612,12.337,7.823c9.266,5.057,15.78,13.245,22.306,21.27
		c24.556,28.445,30.137,70.264,21.135,105.807c-9.194,28.878-30.405,56.523-58.179,69.408c-2.509,1.348-4.819,3.096-7.465,4.358
		c-23.875,10.322-50.206,12.717-75.521,6.136c-2.366-0.546-22.967-7.077-14.241-6.013L76.951,246.468z"/>
	<path fill="#4F690C" d="M117.039,1.367c1.284-1.528,2.747-0.324,3.59,1.017c5.842,5.222,13.821,7.364,21.218,9.576
		c4.414,0.223,8.818,0.825,13.205,0.746c1.213-0.016,2.886-0.645,3.954,0.114c0.521,0.472,0.292,1.546,0.143,2.219
		c-1.509,7.181-3.351,14.341-1.451,21.665c0.748,3.257,0.791,7.596-3.694,7.352c-22.965-2.44-46.17-3.551-69.109,0.081
		c-8.39,1.409-5.402-5.892-5.23-12.642c-0.07-1.136,0.57-2.108,0.537-3.232c-0.02-0.777,0.272-1.504,0.437-2.269
		c0.353-2.516-0.681-5.248-1.231-7.519c-1.697-5.461,1.818-5.662,6.211-5.003C97.388,12.799,108.718,10.99,117.039,1.367z"/>
	<path fill="#79A524" d="M119.748,1.294c-0.863-0.027-1.726-0.053-2.588-0.081C118.072-0.326,118.941-0.509,119.748,1.294z"/>
	<path fill="#79A524" d="M123.482,4.763c-0.141-0.11-0.793-0.616-0.883-0.686C122.691,4.149,123.339,4.652,123.482,4.763
		L123.482,4.763z"/>
	<path fill="#79A524" d="M121.56,3.219c-0.311-0.279-0.622-0.558-0.932-0.836C120.94,2.662,121.25,2.94,121.56,3.219z"/>
	<path fill="#79A524" d="M122.144,3.686c-0.078-0.063-0.518-0.42-0.517-0.419C121.627,3.266,122.066,3.622,122.144,3.686
		L122.144,3.686z"/>
	<path fill="#EEEAF5" d="M237.143,171.688c-0.184-0.203,0.251-1.161,0.475-1.887c0.237-0.642,0.463-1.484,0.712-1.931
		c0.177-0.289,0.351-0.231,0.483,0.066c0.616,1.339-0.088,3.464-1.603,3.795L237.143,171.688z"/>
	<path fill="#EEEAF5" d="M79.325,25.512c-0.203-0.231-0.289-0.261,0.029-0.422c0.228,0.147,0.199,0.207,0.072,0.425L79.325,25.512z"
		/>
	<path fill="#A8D24F" d="M111.523,36.574c-3.582-0.259-7.284-0.27-10.826-0.011c-8.779,0.609-14.054,2.422-14.505,0.865
		c-0.696-0.591,3.382-5.99,5.516-8.513c0.529-0.688,1.515-1.72,1.616-2.593c0.403-2.941-7.099-3.667-8.854-6.714
		c-0.52-0.889-1.628-2.268,0.066-2.484c1.473-0.198,3.134-0.168,4.674-0.347c10.057-0.913,19.39-4.134,28.175-9.365
		c2.968-1.985,9.766,3.963,12.843,5.136c6.707,2.99,14.04,4.313,21.341,4.36c0.324,0.018,0.619,0.103,0.829,0.287
		c2.814,4.078-9.702,5.183-7.858,9.233c2.627,3.437,7.334,5.437,7.874,10.193c0.227,0.992-0.334,1.893-1.465,1.71
		c-12.957-2.692-26.192-1.286-39.26-1.747L111.523,36.574z"/>
	<path fill="#79A524" d="M84.354,19.169c20.954,7.215-0.583,16.154,3.148,18.807c0.03,0.027,0.09,0.081,0.12,0.107
		c-0.598,0.413-1.837,1.015-2.481,0.521c-0.443-0.359-0.534-1.209-0.464-2.406c0.418-4.123,1.805-12.082-0.363-16.974L84.354,19.169
		z"/>
	<path fill="#79A524" d="M152.505,38.526c-0.866-1.226-3.333-5.349-5.199-6.83c-6.24-5.566-6.328-8.383,1.31-12.691
		c0.949-0.513,3.937-2.824,4.57-1.463c0.398,3.348-1.159,7.067-0.99,10.58c-0.078,3.37,0.544,6.61,0.609,9.877
		c0.004,0.577-0.057,0.764-0.259,0.567L152.505,38.526z"/>
	<path fill="#79A524" d="M133.962,36.536c5.341,0.545,11.087,1.132,16.422,1.677C145.049,37.668,139.303,37.081,133.962,36.536
		L133.962,36.536z"/>
	<path fill="#79A524" d="M97.63,36.733c1.979-0.07,4.443-0.158,6.453-0.229C102.127,36.572,99.609,36.662,97.63,36.733L97.63,36.733
		z"/>
	<path fill="#79A524" d="M111.562,36.547c1.853,0.056,4.102,0.124,5.962,0.181C115.681,36.673,113.43,36.604,111.562,36.547
		L111.562,36.547z"/>
	<path fill="#79A524" d="M120.529,36.714c1.601-0.053,3.801-0.126,5.461-0.181C124.32,36.588,122.204,36.658,120.529,36.714
		L120.529,36.714z"/>
	<path fill="#79A524" d="M92.03,37.455c1.179-0.18,3.001-0.459,4.192-0.639C95.204,36.972,93.108,37.291,92.03,37.455L92.03,37.455z
		"/>
	<path fill="#79A524" d="M140.626,16.031c-0.558-0.164-2.396-0.704-3.087-0.907C138.111,15.292,140.151,15.891,140.626,16.031
		L140.626,16.031z"/>
	<path fill="#79A524" d="M88.532,37.915c0.438-0.073,1.79-0.299,2.128-0.355C90.206,37.636,88.95,37.845,88.532,37.915
		L88.532,37.915z"/>
	<path fill="#79A524" d="M146.972,16.837c-0.297-0.06-1.81-0.362-2.094-0.418C145.325,16.509,146.561,16.756,146.972,16.837
		L146.972,16.837z"/>
	<path fill="#79A524" d="M143.486,16.272c-0.207-0.019-0.711-0.065-0.988-0.09C142.58,16.189,143.259,16.251,143.486,16.272
		L143.486,16.272z"/>
	<path fill="#B83F02" d="M39.399,225.9c0.194,0.133,1.332,0.916,1.49,1.024C40.73,226.814,39.595,226.035,39.399,225.9L39.399,225.9
		z"/>
	<path fill="#FBD7B2" d="M58.354,60.419c9.031-0.782,17.173,2.18,17.424,12.666c3.097,16.449-39.869,36.988-42.43,10.927
		c-0.005-2.222,0.701-4.5,1.876-6.848c2.066-4.077,5.631-8.145,9.694-11.25c4.009-2.986,8.374-5.359,13.317-5.491L58.354,60.419z"/>
	<path fill="#B83F02" d="M52.542,135.831c0.781-12.787,13.096-20.033,23.788-13.672c5.337,2.934,8.538,10.325,7.858,17.289
		c-0.252,10.243-4.864,15.462-12.557,16.475c-10.855,0.808-19.506-8.551-19.101-19.881L52.542,135.831z"/>
	<path fill="#B83F02" d="M184.555,136.277c0.08,11.114-8.344,20.358-19.056,19.649c-7.818-0.947-12.533-6.244-12.877-16.557
		c-0.647-6.758,2.516-14.077,7.674-17.015c10.816-6.708,23.607,0.624,24.25,13.702L184.555,136.277z"/>
	<path fill="#BD3E04" d="M121.453,166.996c-26.435-0.293-15.627,7.114-27.106,10.871c1.68-7.115,6.302-13.78,3.038-21.396
		c-0.347-0.909-0.883-1.874-0.861-2.804c-0.049-0.739,0.801-1.549,1.709-1.75c1.422-0.315,2.383,0.346,3.112,1.438
		c1.674,2.525,2.09,7.452,3.849,8.909c8.051,3.257,18.337,3.383,26.316-0.288c2.17-2.597,1.06-8.909,5.808-10.013
		c0.35-0.06,0.812-0.054,0.947,0.344c1.622,5.411-2.493,9.451,0.338,17.317c0.11,0.329,0.338,1.067-0.125,1.097
		c-3.052,0.04-3.053-7.176-2.846-9.908c0.052-0.527,0.288-1.587-0.453-1.704c-0.666,0.005-0.693,1.016-0.785,1.573
		c-0.606,6.768-8.874,3.017-12.773,6.263L121.453,166.996z"/>
	<path fill="#FBD7B2" d="M92.629,61.645c-8.643-0.047-7.032-12.69,1.084-12.362c7.542,0.469,6.467,12.481-0.875,12.359
		L92.629,61.645z"/>
	<path fill="#B83F02" d="M121.578,166.974c3.755-5.161,12.459,0.567,12.168-8.73c0.423-0.428,1.209-0.86,1.782-0.677
		c1.608,0.611,0.262,6.627,1.39,10.416c0.303,1.132,0.938,2.035,1.857,2.673c0.178,0.392,0.217,0.88,0.383,1.294
		c0.38,1.684,2.032,3.448,1.453,5.186c-0.502,0.511-1.369-0.118-1.955-0.491c-3.512-2.569-4.634-5.12-6.19-8.546
		c-3.522-0.762-7.285-0.6-10.869-1.064L121.578,166.974z"/>
	<path fill="#BD3E04" d="M135.109,172.929c0.073-0.121,0.221,0.005,0.354,0.081c0.343,0.223,0.901,0.798,1.399,1.313
		c1.013,1.247,2.143,0.742,3.432,0.91c1.161,0.115,2.417,3.185,0.586,3.021c-0.971-0.158-2.2-1.518-3.15-2.397
		c-0.698-0.703-2.483-2.214-2.623-2.879L135.109,172.929z"/>
	<path fill="#BD3E04" d="M122.529,167.106c3.185,0.303,6.723,0.64,9.93,0.945C129.314,167.751,125.683,167.406,122.529,167.106
		L122.529,167.106z"/>
	<path fill="#BD3E04" d="M133.114,169.609c0.281,0.487,1.454,2.522,1.807,3.137C134.808,172.551,133.277,169.893,133.114,169.609
		L133.114,169.609z"/>
	<path fill="#BD3E04" d="M139.822,173.153c-0.094-0.167-0.755-1.335-0.84-1.484C139.042,171.776,139.716,172.966,139.822,173.153
		L139.822,173.153z"/>
	<path fill="#BD3E04" d="M215.604,73.974c0.133,0.197,0.916,1.351,1.024,1.511C216.518,75.323,215.738,74.173,215.604,73.974
		L215.604,73.974z"/>
</g>
</svg>
