<?xml version="1.0" encoding="utf-8"?>
<!-- Generator: Adobe Illustrator 28.4.1, SVG Export Plug-In . SVG Version: 6.00 Build 0)  -->
<svg version="1.1" baseProfile="basic" id="Layer_1"
	 xmlns="http://www.w3.org/2000/svg" xmlns:xlink="http://www.w3.org/1999/xlink" x="0px" y="0px" viewBox="0 0 322.295 340.031"
	 xml:space="preserve">
<g>
	<path fill="#8436D6" d="M201.022,42.018c14.45-3.999,30.689-3.344,44.459,2.843c12.92,6.178,21.441,18.444,26.488,31.382
		c0.842,2.325,1.93,4.719,3.681,6.286c1.883,1.803,4.892,2.774,7.524,3.622c12.019,3.893,21.838,10.793,28.668,21.547
		c10.137,16.01,12.058,35.441,10.947,54.056c-0.819,16.002-5.858,32.629-17.118,44.344c-4.379,4.195-4.799,8.87-3.525,14.59
		c5.818,32.943-17.171,70.301-51.9,72.744c-5.585,0.582-11.316,0.65-16.822,0.175c-5.085-0.633-8.147,1.342-9.861,6.018
		c-5.664,14.644-18.304,26.246-31.788,33.626c-26.903,13.773-62.805,7.261-81.842-15.908c-4.511-5.121-8.962-10.859-11.432-17.126
		c-1.04-2.754-2.419-5.879-4.844-6.961c-1.915-0.983-4.557-0.913-7.256-0.76c-4.442,0.236-8.814,0.2-13.111-0.239
		c-11.255-1.036-22.273-5.381-30.879-12.756c-17.648-14.945-25.888-40.87-20.882-63.502c0.364-2.047,0.529-4.029,0.107-5.867
		c-0.552-2.764-2.62-5.174-4.533-7.303c-8.21-8.807-12.64-19.849-14.281-31.68c-5.089-33.492,2.365-75.779,39.551-86.966
		c3.129-1.031,6.698-2.089,8.925-4.536c1.551-1.603,2.463-3.75,3.312-5.824c6.315-15.971,19.824-31.107,38.955-34.279
		c11.05-1.411,22.531-1.789,32.945,2.287c3.391,1.54,6.42,3.82,9.46,5.981c7.818,5.654,14.574,12.99,19.946,20.917
		c2.01,2.579,3.5,7.053,6.358,8.607c2.451,0.954,4.238-2.42,5.472-4.225c2.281-3.734,4.928-7.244,7.799-10.561
		c3.035-3.541,6.347-6.84,9.838-9.853c4.853-4.068,9.576-8.306,15.466-10.615L201.022,42.018z"/>
	<path fill="#6632C9" d="M298.386,114.463c-6.274-9.86-15.272-16.189-26.298-19.767c-2.412-0.77-5.173-1.66-6.907-3.32
		c-1.605-1.431-2.605-3.632-3.375-5.76c-4.632-11.869-12.447-23.124-24.298-28.783c-12.631-5.678-27.517-6.283-40.772-2.614
		l-0.165,0.064c-5.403,2.119-9.732,5.999-14.19,9.732c-3.201,2.77-6.237,5.788-9.017,9.044c-2.633,3.036-5.063,6.256-7.155,9.686
		c-1.137,1.651-2.77,4.751-5.017,3.871c-2.623-1.422-3.99-5.531-5.834-7.898c-4.926-7.265-11.126-13.997-18.299-19.18
		c-2.788-1.981-5.568-4.073-8.677-5.485c-9.549-3.742-20.079-3.394-30.214-2.101C80.622,54.86,68.23,68.748,62.433,83.396
		c-0.78,1.899-1.614,3.871-3.036,5.338c-2.045,2.247-5.32,3.22-8.191,4.164c-34.103,10.255-40.946,49.045-36.277,79.764
		c1.504,10.86,5.568,20.987,13.098,29.058c1.761,1.954,3.66,4.164,4.164,6.705c0.385,1.679,0.229,3.504-0.101,5.375
		c-4.595,20.767,2.963,44.542,19.152,58.255c7.898,6.76,18.006,10.75,28.325,11.695c3.944,0.404,7.953,0.44,12.025,0.22
		c2.477-0.138,4.898-0.202,6.659,0.697c2.22,0.991,3.486,3.862,4.439,6.384c2.266,5.751,6.347,11.016,10.493,15.712
		c17.455,21.253,50.394,27.224,75.068,14.584c12.365-6.76,23.959-17.409,29.159-30.838c1.569-4.293,4.375-6.1,9.044-5.522
		c5.045,0.44,10.301,0.376,15.428-0.156c31.856-2.247,52.944-36.516,47.605-66.73c-1.174-5.247-0.78-9.53,3.229-13.383
		c10.328-10.741,14.951-25.995,15.703-40.671C309.439,146.971,307.678,129.148,298.386,114.463z"/>
	<path fill="#5E7036" d="M109.788,37.143c-1.507,0.539-2.385-1.709-2.921-2.87c-1.31-3.684-1.745-8.755,1.511-10.773
		c1.949-1.183,4.685-0.696,6.787-1.21c4.167-1.005,3.298-6.359,3.677-9.932c0.301-7.909,2.736-13.125,11.209-12.264
		c12.817,1.012,24.827,8.878,34.226,17.481c9.944,8.542,4.926-20.165,27.901,12.955c1.937,2.796,4.322,5.578,5.367,8.833
		c1.444,5.761-2.687,6.032-5.381,1.985c-3.373-5.1-6.9-10.219-10.662-15.024c-1.509-2.016-4.41-4.692-6.208-1.74
		c-1.852,2.665-3.719,11.089-8.132,6.3c-7.799-11.92-20.3-19.951-33.425-24.958c-8.368-3.463-9.244,1.749-9.284,9.547
		c-0.081,2.61-0.147,5.224-0.217,7.832c-0.14,3.358,0.048,6.752-1.212,8.42c-0.592,0.675-1.538,0.442-2.274,0.117
		c-1.79-0.768-4.323-2.881-6.521-2.628c-3.825,0.353-2.444,5.876-4.374,7.887L109.788,37.143z"/>
	<path fill="#AEAF7D" d="M112.075,36.469c-0.269-0.44,0.344-0.741,1.656-0.806c3.039-0.101,6.435,1.148,9.38,2.25
		c15.679,5.662,26.78,19.012,35.915,32.419c4.014,5.133,6.992,0.456,9.218-3.381c3.433-5.685,8.673-10.081,13.726-14.47
		c2.375-1.991,4.936-4.344,7.735-5.594c0.865-0.371,1.447-0.435,1.616-0.18c0.121,1.445-2.43,3.309-3.587,4.417
		c-4.111,3.477-8.025,7.305-11.569,11.472c-3.285,3.805-6.297,7.849-8.85,12.175c-2.952,5.118-5.457,5.97-8.577,0.351
		c-8.256-14.584-20.619-27.407-35.636-34.996c-2.123-0.928-4.344-1.532-6.552-1.944c-1.308-0.247-3.935-0.906-4.442-1.663
		L112.075,36.469z"/>
	<path fill="#AEAF7D" d="M193.114,43.738c0.411,0.473,0.782,1.477,0.061,1.852c-0.533,0.265-1.239,0.748-1.608,0.5
		c-0.754-0.75,0.382-2.628,1.42-2.413L193.114,43.738z"/>
	<path fill="#5E7036" d="M115.805,38.76c0.617-0.332,2.146-0.187,2.26,0.691c-0.539,0.516-2.028,0.129-2.294-0.597L115.805,38.76z"
		/>
	<path fill="#5E7036" d="M121.376,39.856c0.258,0.003,0.517,0.005,0.776,0.008C121.89,40.164,121.631,40.183,121.376,39.856z"/>
	<path fill="#AAD05C" d="M192.516,43.515c-0.275,1.562-1.673,2.77-3.012,3.728c-2.546,1.741-5.337,3.744-7.703,5.858
		c-4.976,4.343-10.168,8.664-13.619,14.245c-1.027,1.608-2.097,3.567-3.45,4.813c-3.194,2.998-6.066-1.382-7.756-3.965
		c-3.687-5.727-8.066-10.861-12.879-15.593c-4.955-5.017-10.533-9.356-17.047-12.088c-3.901-1.961-8.439-2.806-12.398-4.348
		c-5.217-2.171-4.514-10.406,1.829-7.505c1.68,0.489,5.204,4.303,6.602,2.464c0.833-1.129,0.891-4.728,0.958-7.789
		c0.427-5.553-0.326-11.49,1.149-16.863c1.971-5.329,11.553,0.606,15.111,1.84c10.353,4.842,20.332,11.627,26.505,21.406
		c4.984,6.328,6.564-4.114,9.068-6.939c2.598-2.254,5.014,2.029,7.229,4.707c2.515,3.295,5.032,6.612,7.314,10.062
		c1.091,1.648,2.407,4.012,2.12,5.833L192.516,43.515z"/>
	<path fill="#A06BF1" d="M111.565,137.234c-4.915-10.101,16.479-22.826,23.882-26.881c16.978-10.504,38.695-7.665,55.225,2.442
		c8.441,5.08,17.338,10.599,22.722,18.894c3.435,5.998-4.078,8.289-7.907,12.135c-4.289,3.952-4.133,11.364,0.636,14.828
		c3.066,2.593,8.296,1.647,9.556,5.26c0.737,9.05-11.132,24.524-17.428,31.123c-2.794,2.894-6.019,5.271-9.504,7.248
		c-5.051,2.835-10.414,5.623-16.091,7.091c-1.617,0.528-7.089,1.581-6.182,3.605c1.174,1.274,3.983,1.278,5.795,1.197
		c9.981-0.643,18.736-5.467,26.282-12.013c6.921-5.958,13.048-12.562,17.526-20.483c2.091-3.751,4.275-7.794,8.398-9.579
		c5.941-2.32,12.641-3.134,18.936-2.885c10.747,0.969,21.402,5.93,29.26,13.341c10.465,11.742,11.014,29.988,9.238,44.919
		c-0.816,6.001-1.339,12.065-2.766,17.958c-1.536,6.282-4.849,11.822-8.743,16.927c-7.367,10.248-19.052,17.348-31.84,17.917
		c-22.733,1.078-48.194-9.134-57.319-31.292c-2.158-5.284-3.961-10.684-5.449-16.143c-0.388-1.1-1.42-5.577-2.886-4.869
		c-1.732,2.873-0.537,7.29-0.241,10.549c1.083,7.106,2.642,14.26,6.284,20.463c6.146,11.047,15.444,20.402,26.585,26.397
		c8.566,4.073,11.872,6.026,5.136,15.379c-6.248,9.13-15.101,17.024-25.987,19.842c-16.505,3.927-34.771-2.175-48.024-12.321
		c-8.234-5.958-15.928-16.857-11.918-27.309c1.966-4.503,6.432-7.548,9.518-11.497c4.601-5.818,8.757-12.118,11.765-18.917
		c1.861-4.753,2.722-9.9,3.342-14.946c0.227-1.245,0.955-11.485-1.815-9.401c-2.243,3.202-3.177,10.925-5.05,15.091
		c-2.589,6.614-5.197,13.429-8.821,19.485c-4.245,6.365-10.2,12.289-17.5,15.023c-7.361,2.245-15.266,3.299-22.926,1.893
		c-9.344-2.024-18.412-5.678-26.517-10.723c-24.194-14.946-33.601-45.68-24.113-72.054c6.263-14.979,22.986-28.123,40.123-27.177
		c5.957,0.432,12.553,1.216,17.431,4.824c3.397,2.613,5.407,6.703,7.548,10.367c5.91,10.253,13.914,18.771,24.108,25.052
		c4.851,2.984,10.253,5.135,15.916,5.828c2.298,0.269,6.838,0.492,7.959-1.264c0.13-1.398-3.195-2.193-4.65-2.713
		c-18.166-5.292-32.712-18.411-40.856-35.299c-1.425-3.486-4.952-9.056-1.692-12.179c1.762-1.498,5.71-1.257,8.583-2.567
		c5.897-2.414,7.062-10.285,2.783-14.78c-2.423-3.033-6.507-4.886-8.233-7.652L111.565,137.234z M143.349,188.301
		c-1.151,15.288,18.425,20.509,29.739,14.264c5.254-2.476,8.065-7.906,7.864-13.608c0.35-5.094-1.625-10.137-1.278-15.101
		c0.284-2.528,1.852-5.131,1.907-7.318c0.118-2.055-1.441-3.247-3.705-3.105c-3.701,0.343-7.127,3.034-10.544,4.415
		c-5.637,3.011-10.809-0.23-15.79-2.868c-2.665-1.523-7.588-3.151-8.606,0.708c-0.405,2.576,1.297,5.135,1.681,7.67
		c0.718,4.626-1.518,9.878-1.268,14.741L143.349,188.301z"/>
	<path fill="#A06BF1" d="M95.9,156.328c1.624,1.887,5.633,6.446,2.242,8.206c-2.926,0.949-8.708-1.79-12.471-2.011
		c-14.578-1.649-28.672,4.988-39.852,13.804c-5.931,4.787-10.212,0.957-12.96-5.29c-3.629-8.318-2.776-18.116-1.541-26.922
		c3.412-19.283,10.28-41.564,29.867-49.73c16.345-6.744,41.778,0.298,48.044,17.971c0.955,4.39-2.019,8.07-3.806,12.182
		c-1.397,3.041-2.524,7.168-6.179,8.011c-1.684,0.427-3.647,0.386-5.333,0.999c-2.712,0.979-4.548,3.361-5.281,6.179
		c-1.643,6.433,2.95,12.128,7.146,16.464L95.9,156.328z"/>
	<path fill="#A06BF1" d="M223.466,132.489c-2.961-0.986-3.995-4.358-5.288-6.93c-3.035-5.776-6.043-10.165-1.603-16.009
		c7.742-11.605,22.349-16.755,35.907-15.828c5.347,0.32,10.969,1.173,15.64,3.69c10.58,5.938,19.529,21.937,22.066,33.579
		c2.459,13.018,0.169,30.227-6.085,41.956c-3.638,6.786-8.015,4.708-13.054,0.856c-4.523-3.151-9.378-6.13-14.646-7.674
		c-8.021-2.212-16.607-2.967-24.814-1.309c-5.119,1.346-10.148,1.235-6.199-5.304c2.289-3.465,6.014-5.679,8.206-9.497
		c2.745-4.497,3.35-11.379-0.915-15.097c-2.366-2.237-6.322-1.611-9.071-2.388L223.466,132.489z"/>
	<path fill="#A06BF1" d="M222.061,62.703c8.768-0.502,16.683,2.598,23.947,7.95c2.98,2.25,6.347,4.74,8.207,7.981
		c1.968,3.97-3.421,4.906-6.364,5.566c-3.143,0.726-6.276,1.477-9.166,2.75c-8.112,3.788-15.421,9.648-21.326,16.276
		c-2.856,3.287-6.314,8.395-11.076,4.904c-5.649-4.716-10.794-10.242-17.502-13.647c-4.289-2.386-8.837-4.197-13.661-5.267
		c-2.033-0.555-5.673-0.994-5.822-3.37c0.061-1.619,1.988-3.438,3.374-4.599c2.554-2.119,5.253-4.062,8.041-5.859
		c13.383-8.622,25.178-12.993,41.139-12.684L222.061,62.703z"/>
	<path fill="#A06BF1" d="M109.918,63.454c10.392,0.181,20.539,3.861,29.407,8.601c3.416,1.836,6.654,3.997,9.845,6.208
		c5.05,3.248,11.857,7.956,1.579,10.006c-11.462,1.552-20.632,8.422-29.309,15.83c-2.913,2.508-6.804,7.182-10.492,3.228
		C102.492,96.49,92.536,86.78,78.801,83.413c-2.308-0.688-4.886-1.101-7.145-1.799c-1.393-0.455-2.38-1.06-2.696-1.873
		c-0.627-1.875,1.665-3.889,3.068-5.12c10.159-8.78,24.549-10.721,37.686-11.169L109.918,63.454z"/>
	<path fill="#611C9D" d="M223.848,133.566c11.117-4.539,15.95,7.441,10.825,15.952c-5.591,8.935-19.054,15.762-28.881,9.825
		c-5.378-3.726-4.842-10.86-0.474-15.216c4.594-5.159,12.024-8.064,18.345-10.496L223.848,133.566z"/>
	<path fill="#611C9D" d="M98.333,133.292c2.819,0.781,5.391,1.979,8.178,3.101c4.635,1.969,9.203,3.771,12.579,7.757
		c4.902,5.99,3.302,14.007-4.223,16.493c-8.189,3.175-22.135-4.658-25.175-12.416c-2.759-6.41-0.542-17.396,8.466-14.978
		L98.333,133.292z"/>
	<path fill="#611C9D" d="M143.349,188.1c-0.251-4.862,1.986-10.116,1.268-14.741c-0.385-2.534-2.087-5.096-1.681-7.671
		c1.021-3.859,5.941-2.229,8.606-0.707c4.982,2.639,10.151,5.877,15.79,2.867c3.416-1.381,6.846-4.074,10.544-4.415
		c2.261-0.14,3.828,1.048,3.705,3.105c-0.055,2.187-1.623,4.79-1.907,7.318c-0.347,4.964,1.628,10.008,1.278,15.101
		c0.197,5.698-2.607,11.136-7.865,13.608c-11.313,6.241-30.891,1.029-29.739-14.264L143.349,188.1z"/>
	<path fill="#8541E1" d="M115.302,140.859c-0.515,0.209-1.616-0.409-1.408-1.01c0.487-0.357,1.487,0.384,1.474,0.926
		L115.302,140.859z"/>
</g>
<path fill="#FFFFFF" d="M172.575,178.31c-0.864-2.58-3.171-4.291-5.667-3.641c-1.342,0.312-2.591,1.219-3.926,1.432
	c-1.224,0.231-2.315-0.599-3.784-1.524c-1.192-0.762-2.59-1.165-3.94-0.915c-3.481,0.553-4.906,4.409-4.561,7.591
	c1.446,20.953,26.113,17.114,21.942-2.76L172.575,178.31z"/>
</svg>
