<?xml version="1.0" encoding="utf-8"?>
<!-- Generator: Adobe Illustrator 28.4.1, SVG Export Plug-In . SVG Version: 6.00 Build 0)  -->
<!DOCTYPE svg PUBLIC "-//W3C//DTD SVG 1.1//EN" "http://www.w3.org/Graphics/SVG/1.1/DTD/svg11.dtd" [
	<!ENTITY ns_extend "http://ns.adobe.com/Extensibility/1.0/">
	<!ENTITY ns_ai "http://ns.adobe.com/AdobeIllustrator/10.0/">
	<!ENTITY ns_graphs "http://ns.adobe.com/Graphs/1.0/">
	<!ENTITY ns_vars "http://ns.adobe.com/Variables/1.0/">
	<!ENTITY ns_imrep "http://ns.adobe.com/ImageReplacement/1.0/">
	<!ENTITY ns_sfw "http://ns.adobe.com/SaveForWeb/1.0/">
	<!ENTITY ns_custom "http://ns.adobe.com/GenericCustomNamespace/1.0/">
	<!ENTITY ns_adobe_xpath "http://ns.adobe.com/XPath/1.0/">
]>
<svg version="1.1" id="Layer_1" xmlns:x="&ns_extend;" xmlns:i="&ns_ai;" xmlns:graph="&ns_graphs;"
	 xmlns="http://www.w3.org/2000/svg" xmlns:xlink="http://www.w3.org/1999/xlink" x="0px" y="0px" viewBox="0 0 289.734 296.854"
	 enable-background="new 0 0 289.734 296.854" xml:space="preserve">
<metadata>
	<sfw  xmlns="&ns_sfw;">
		<slices></slices>
		<sliceSourceBounds  bottomLeftOrigin="true" height="1860.713" width="2201.936" x="-920.789" y="-2081.878"></sliceSourceBounds>
	</sfw>
</metadata>
<g>
	<ellipse fill="#C30102" cx="144.691" cy="154.037" rx="142.218" ry="135.992"/>
	<g>
		<path fill="#F20E09" d="M134.863,22.507c5.204,9.808-26.327,14.017-9.598,12.403c10.158-0.98,39.377,16.482,33.951,2.803
			c5.111-1.591,10.567,1.093,16.502-0.138c-5.402-5.133-25.13-0.832-19.616-11.396c4.641-9.223,36.797,4.499,46.069,8.085
			c48.928,16.14,71.262,71.252,64.675,121.296C253.003,271.916,97.363,278.53,26.309,209.594
			C-38.596,133.574,48.2,18.82,134.863,22.507z"/>
		<path fill="#7D0A09" d="M137.696,30.533c27.26,12.959,7.85-13.906,23.605,11.802c-10.619-0.056-24.298-9.435-36.353-8.023
			C119.905,29.252,135.821,26.71,137.696,30.533z"/>
		<path fill="#7D0A09" d="M196.237,157.529c-2.182-0.817-4.838-1.983-5.769-4.373c-1.73-2.586-3.396-4.555-3.362-8.324
			c-0.134-0.107-0.499-0.398-0.783-0.625c0-2.025,0-3.907,0-5.752c0.621-1.033,1.227-2.041,1.876-3.121
			c-0.15-0.3-0.343-0.687-0.525-1.051c0.169-0.161,0.296-0.361,0.373-0.344c0.971,0.224,1.659-0.465,1.85-1.086
			c0.251-0.818,1.177-0.73,1.332-1.291c0.213-0.773,0.895-0.869,1.337-1.296c0.84-1.346,3.177-0.498,3.252-2.337
			c1.147-0.234,2.306-0.471,3.613-0.738c0.15-0.152,0.425-0.431,0.752-0.763c8.476-0.027,19.438,6.023,19.131,15.398
			C219.616,153.132,206.587,162.516,196.237,157.529z"/>
		<path fill="#7D0A09" d="M86.236,158.001c-4.331,0.461-8.058,2.95-12.275,0c-2.822,0.412-4.24-2.425-6.127-4.002
			c0-0.3,0-0.611,0-0.92c-1.321-1.441-2.975-2.641-3.455-4.861c-0.117-0.04-0.39-0.133-0.746-0.253c0-0.498,0-1.025,0-1.498
			c-0.531-0.306-0.978-0.562-1.496-0.86c0.276-2.768-0.736-5.701,1.437-8.266c-0.682-3.701,2.972-5.852,4.844-8.659
			c0.892,0.214,1.769-0.289,2.52,0.485c0.186,0.192,0.807,0.084,1.258-0.272c1.147-0.906,2.842-0.821,3.86-2.023
			c3.499-0.803,7.764-0.64,10.109,2.498c2.182,0.319,2.356,1.655,3.856,2.456c0,0.313,0,0.624,0,0.839
			c1.913,1.72,3.032,4.119,2.788,6.652c0.322,0.322,0.6,0.6,1.082,1.082c-0.138,2.23-0.288,4.651-0.422,6.829
			c-0.507,0.507-0.784,0.784-1.078,1.078c0,0.92,0,1.858,0,2.743c-1.343,1.366-2.315,2.972-3.793,4.12
			C87.596,155.935,87.717,157.635,86.236,158.001z"/>
		<path fill="#7D0A09" d="M153.275,174.525c-1.102,0-2.203,0-3.305,0c-6.315,0.867-14.456,0.867-20.773,0
			c-3.015,0.051-6.094,0.215-8.358-1.975c-0.201-1.21-0.406-2.451-0.612-3.691c3.681-4.955,8.611-8.702,12.747-13.219
			c0.315,0,0.629,0,0.944,0c0.249-0.289,0.694-0.186,0.944-0.472c0-0.315,0-0.629,0-0.944c1.438-0.501,2.532-1.55,3.777-2.361
			c1.955,0,3.91,0,5.926,0c1.096,1.293,1.953,3.03,4.255,2.828c3.73,3.856,8.068,7.45,11.963,11.527c0,0.724,0,1.494,0,2.487
			c-0.491,0.394-1.118,0.898-1.745,1.401c2.66,3.557-1.498,4.387-4.348,3.946C154.318,174.506,153.802,174.531,153.275,174.525z"/>
		<path fill="#C30102" d="M132.975,155.641c0.212,0.799-0.388,1.413-0.543,2.207c-0.998,0.165-2.122,0.327-1.824,1.789
			c-2.79,1.072-4.467,3.837-6.414,5.89c-1.871,0.667-1.996,3.117-3.966,3.333c-0.062-3.341,2.841-4.393,4.627-6.68
			c0.175-0.334,0.902-0.377,1.449-0.58c-0.122-1.305,0.855-2.187,1.816-2.58C130.129,157.846,130.085,154.991,132.975,155.641z"/>
		<path fill="#C30102" d="M215.593,151.864c0-0.393,0-0.786,0-1.256c0.587-0.391,1.209-0.806,1.864-1.241
			c-0.423-3.622,2.371-6.701,0.959-10.044c-0.57-0.901-0.428-1.89-0.457-2.609c-0.577-1.162-1.98-1.438-1.893-2.79
			c0.55,0,1.099,0,1.738,0c0.079,0.414,0.16,0.844,0.241,1.267c0.555,0.171,1.108,0.342,1.705,0.526c0,3.966,0,7.789,0,11.785
			c-0.274,0.189-0.691,0.477-1.223,0.845c-0.277,1.022-0.599,2.215-0.952,3.517C216.807,151.864,216.2,151.864,215.593,151.864z"/>
		<path fill="#C30102" d="M196.237,157.529c3.585,1.204,7.182-0.162,10.803,0c0.82-0.61,2.13-0.293,2.584-1.416
			c0.794,0,1.494,0,2.193,0c0.149,3.346-7.868,3.232-10.403,4.228c-1.643,0.072-2.803-1.548-4.524-1.506
			C196.489,158.854,196.074,158.167,196.237,157.529z"/>
		<path fill="#C30102" d="M129.198,174.525c6.924,0,13.848,0,20.773,0c0,0.236,0,0.471,0,0.707
			c-0.311,0.314-13.964,0.424-20.773,0.161C129.198,175.108,129.198,174.817,129.198,174.525z"/>
		<path fill="#C30102" d="M73.962,158.001c0.86,0.189,1.748-0.287,2.641,0.416c0.554,0.436,1.516-0.048,2.372,0.434
			c1.6,0.492,3.624-1.277,5.373-0.85c0,0.546,0,1.092,0,1.719c-3.55,0.625-6.783,0.811-10.386,0.102
			C73.962,159.209,73.962,158.605,73.962,158.001z"/>
		<path fill="#C30102" d="M161.301,42.336c0.162,0.717-0.205,0.935-0.763,1.413c-2.445,0.219-4.602-1.53-7.263-1.421
			c0-0.521,0-0.964,0-1.408c0.853,0,1.707,0,2.724,0c0.372,0.44,0.818,0.968,1.197,1.416"/>
		<path fill="#C30102" d="M211.816,156.113c0-0.546,0-1.091,0-1.799c2.162,0.485,1.938-2.573,3.777-2.449c0,0.546,0,1.091,0,1.656
			c-1.281,0.334-1.799,1.446-2.458,2.593C212.709,156.113,212.262,156.113,211.816,156.113z"/>
		<path fill="#C30102" d="M86.236,158.001c0.298-0.408,0.597-0.816,0.897-1.227c-0.093-0.093-0.202-0.202-0.405-0.405
			c0.551-0.521,0.848-1.356,1.868-1.2c0,0.853,0,1.706,0,2.56C87.78,157.945,86.917,158.926,86.236,158.001z"/>
		<path fill="#C30102" d="M158.468,174.053c0.53-1.04,1.205-2.039,0.944-3.305c0.84,0.426,1.536,0.952,1.413,2.073
			c-0.611,0.525-1.239,1.066-1.986,1.709C158.769,174.44,158.619,174.247,158.468,174.053z"/>
		<path fill="#C30102" d="M138.64,151.864c0,0.235,0,0.47,0,0.533c-0.78,0.638-1.477,1.208-2.234,1.827c-0.446,0-0.994,0-1.542,0
			c0.871-0.787,1.741-1.573,2.612-2.36C137.863,151.864,138.252,151.864,138.64,151.864z"/>
		<path fill="#C30102" d="M88.597,155.169c-0.19-0.943,0.676-1.243,1.174-1.909c0.669,1.4,1.15,1.814-0.272,2.922
			C89.197,155.843,88.897,155.506,88.597,155.169z"/>
		<path fill="#C30102" d="M153.275,174.525c0.221-0.91,0.952-0.292,1.416-0.472c0,0.232,0,0.465,0,0.745
			C154.177,174.944,153.621,175.397,153.275,174.525z"/>
		<path fill="#C30102" d="M134.863,155.169c-0.04,0.706-0.586,0.401-0.944,0.472C133.959,154.935,134.505,155.24,134.863,155.169z"
			/>
		<path fill="#E7E4F2" d="M143.833,160.362c0.157,0,0.315,0,0.472,0c0.148,0.167,0.306,0.324,0.472,0.472c0,0.157,0,0.315,0,0.472
			c1.836,2.267,4.898,3.319,5.987,6.232c-2.209,1.695-17.688,1.718-19.87,0.126c0.536-1.843,8.444-9.205,10.311-9.573
			C142.305,158.561,142.955,159.596,143.833,160.362z"/>
		<path fill="#7D0A09" d="M72.545,276.5C-45.616,220.127-11.95,31.797,119.435,16.864c31.664-4.02,21.87,3.254-3.83,7.267
			C-21.424,45.529-30.777,222.6,89.658,278.429c125.286,48.062,251.783-85.987,165.637-201.631
			c-14.97-17.368-30.493-35.809-53.848-41.966c-13.67-7.256-64.816-10.288-79.568-12.842c0.263-11.796,51.721-4.277,58.891-2.089
			C392.289,84.445,262.86,375.527,72.545,276.5z"/>
	</g>
	<g>
		<path fill="#F20E09" d="M134.863,22.507c5.204,9.808-26.327,14.017-9.598,12.403c10.158-0.98,39.377,16.482,33.951,2.803
			c5.111-1.591,10.567,1.093,16.502-0.138c-5.402-5.133-25.13-0.832-19.616-11.396c4.641-9.223,36.797,4.499,46.069,8.085
			c48.928,16.14,71.262,71.252,64.675,121.296C253.003,271.916,97.363,278.53,26.309,209.594
			C-38.596,133.574,48.2,18.82,134.863,22.507z"/>
		<path fill="#7D0A09" d="M137.696,30.533c27.26,12.959,7.85-13.906,23.605,11.802c-10.619-0.056-24.298-9.435-36.353-8.023
			C119.905,29.252,135.821,26.71,137.696,30.533z"/>
		<path fill="#7D0A09" d="M196.237,157.529c-2.182-0.817-4.838-1.983-5.769-4.373c-1.73-2.586-3.396-4.555-3.362-8.324
			c-0.134-0.107-0.499-0.398-0.783-0.625c0-2.025,0-3.907,0-5.752c0.621-1.033,1.227-2.041,1.876-3.121
			c-0.15-0.3-0.343-0.687-0.525-1.051c0.169-0.161,0.296-0.361,0.373-0.344c0.971,0.224,1.659-0.465,1.85-1.086
			c0.251-0.818,1.177-0.73,1.332-1.291c0.213-0.773,0.895-0.869,1.337-1.296c0.84-1.346,3.177-0.498,3.252-2.337
			c1.147-0.234,2.306-0.471,3.613-0.738c0.15-0.152,0.425-0.431,0.752-0.763c8.476-0.027,19.438,6.023,19.131,15.398
			C219.616,153.132,206.587,162.516,196.237,157.529z"/>
		<path fill="#7D0A09" d="M86.236,158.001c-4.331,0.461-8.058,2.95-12.275,0c-2.822,0.412-4.24-2.425-6.127-4.002
			c0-0.3,0-0.611,0-0.92c-1.321-1.441-2.975-2.641-3.455-4.861c-0.117-0.04-0.39-0.133-0.746-0.253c0-0.498,0-1.025,0-1.498
			c-0.531-0.306-0.978-0.562-1.496-0.86c0.276-2.768-0.736-5.701,1.437-8.266c-0.682-3.701,2.972-5.852,4.844-8.659
			c0.892,0.214,1.769-0.289,2.52,0.485c0.186,0.192,0.807,0.084,1.258-0.272c1.147-0.906,2.842-0.821,3.86-2.023
			c3.499-0.803,7.764-0.64,10.109,2.498c2.182,0.319,2.356,1.655,3.856,2.456c0,0.313,0,0.624,0,0.839
			c1.913,1.72,3.032,4.119,2.788,6.652c0.322,0.322,0.6,0.6,1.082,1.082c-0.138,2.23-0.288,4.651-0.422,6.829
			c-0.507,0.507-0.784,0.784-1.078,1.078c0,0.92,0,1.858,0,2.743c-1.343,1.366-2.315,2.972-3.793,4.12
			C87.596,155.935,87.717,157.635,86.236,158.001z"/>
		<path fill="#7D0A09" d="M153.275,174.525c-1.102,0-2.203,0-3.305,0c-6.315,0.867-14.456,0.867-20.773,0
			c-3.015,0.051-6.094,0.215-8.358-1.975c-0.201-1.21-0.406-2.451-0.612-3.691c3.681-4.955,8.611-8.702,12.747-13.219
			c0.315,0,0.629,0,0.944,0c0.249-0.289,0.694-0.186,0.944-0.472c0-0.315,0-0.629,0-0.944c1.438-0.501,2.532-1.55,3.777-2.361
			c1.955,0,3.91,0,5.926,0c1.096,1.293,1.953,3.03,4.255,2.828c3.73,3.856,8.068,7.45,11.963,11.527c0,0.724,0,1.494,0,2.487
			c-0.491,0.394-1.118,0.898-1.745,1.401c2.66,3.557-1.498,4.387-4.348,3.946C154.318,174.506,153.802,174.531,153.275,174.525z"/>
		<path fill="#C30102" d="M132.975,155.641c0.212,0.799-0.388,1.413-0.543,2.207c-0.998,0.165-2.122,0.327-1.824,1.789
			c-2.79,1.072-4.467,3.837-6.414,5.89c-1.871,0.667-1.996,3.117-3.966,3.333c-0.062-3.341,2.841-4.393,4.627-6.68
			c0.175-0.334,0.902-0.377,1.449-0.58c-0.122-1.305,0.855-2.187,1.816-2.58C130.129,157.846,130.085,154.991,132.975,155.641z"/>
		<path fill="#C30102" d="M215.593,151.864c0-0.393,0-0.786,0-1.256c0.587-0.391,1.209-0.806,1.864-1.241
			c-0.423-3.622,2.371-6.701,0.959-10.044c-0.57-0.901-0.428-1.89-0.457-2.609c-0.577-1.162-1.98-1.438-1.893-2.79
			c0.55,0,1.099,0,1.738,0c0.079,0.414,0.16,0.844,0.241,1.267c0.555,0.171,1.108,0.342,1.705,0.526c0,3.966,0,7.789,0,11.785
			c-0.274,0.189-0.691,0.477-1.223,0.845c-0.277,1.022-0.599,2.215-0.952,3.517C216.807,151.864,216.2,151.864,215.593,151.864z"/>
		<path fill="#C30102" d="M196.237,157.529c3.585,1.204,7.182-0.162,10.803,0c0.82-0.61,2.13-0.293,2.584-1.416
			c0.794,0,1.494,0,2.193,0c0.149,3.346-7.868,3.232-10.403,4.228c-1.643,0.072-2.803-1.548-4.524-1.506
			C196.489,158.854,196.074,158.167,196.237,157.529z"/>
		<path fill="#C30102" d="M129.198,174.525c6.924,0,13.848,0,20.773,0c0,0.236,0,0.471,0,0.707
			c-0.311,0.314-13.964,0.424-20.773,0.161C129.198,175.108,129.198,174.817,129.198,174.525z"/>
		<path fill="#C30102" d="M73.962,158.001c0.86,0.189,1.748-0.287,2.641,0.416c0.554,0.436,1.516-0.048,2.372,0.434
			c1.6,0.492,3.624-1.277,5.373-0.85c0,0.546,0,1.092,0,1.719c-3.55,0.625-6.783,0.811-10.386,0.102
			C73.962,159.209,73.962,158.605,73.962,158.001z"/>
		<path fill="#C30102" d="M161.301,42.336c0.162,0.717-0.205,0.935-0.763,1.413c-2.445,0.219-4.602-1.53-7.263-1.421
			c0-0.521,0-0.964,0-1.408c0.853,0,1.707,0,2.724,0c0.372,0.44,0.818,0.968,1.197,1.416"/>
		<path fill="#C30102" d="M211.816,156.113c0-0.546,0-1.091,0-1.799c2.162,0.485,1.938-2.573,3.777-2.449c0,0.546,0,1.091,0,1.656
			c-1.281,0.334-1.799,1.446-2.458,2.593C212.709,156.113,212.262,156.113,211.816,156.113z"/>
		<path fill="#C30102" d="M86.236,158.001c0.298-0.408,0.597-0.816,0.897-1.227c-0.093-0.093-0.202-0.202-0.405-0.405
			c0.551-0.521,0.848-1.356,1.868-1.2c0,0.853,0,1.706,0,2.56C87.78,157.945,86.917,158.926,86.236,158.001z"/>
		<path fill="#C30102" d="M158.468,174.053c0.53-1.04,1.205-2.039,0.944-3.305c0.84,0.426,1.536,0.952,1.413,2.073
			c-0.611,0.525-1.239,1.066-1.986,1.709C158.769,174.44,158.619,174.247,158.468,174.053z"/>
		<path fill="#C30102" d="M138.64,151.864c0,0.235,0,0.47,0,0.533c-0.78,0.638-1.477,1.208-2.234,1.827c-0.446,0-0.994,0-1.542,0
			c0.871-0.787,1.741-1.573,2.612-2.36C137.863,151.864,138.252,151.864,138.64,151.864z"/>
		<path fill="#C30102" d="M88.597,155.169c-0.19-0.943,0.676-1.243,1.174-1.909c0.669,1.4,1.15,1.814-0.272,2.922
			C89.197,155.843,88.897,155.506,88.597,155.169z"/>
		<path fill="#C30102" d="M153.275,174.525c0.221-0.91,0.952-0.292,1.416-0.472c0,0.232,0,0.465,0,0.745
			C154.177,174.944,153.621,175.397,153.275,174.525z"/>
		<path fill="#C30102" d="M134.863,155.169c-0.04,0.706-0.586,0.401-0.944,0.472C133.959,154.935,134.505,155.24,134.863,155.169z"
			/>
		<path fill="#E7E4F2" d="M143.833,160.362c0.157,0,0.315,0,0.472,0c0.148,0.167,0.306,0.324,0.472,0.472c0,0.157,0,0.315,0,0.472
			c1.836,2.267,4.898,3.319,5.987,6.232c-2.209,1.695-17.688,1.718-19.87,0.126c0.536-1.843,8.444-9.205,10.311-9.573
			C142.305,158.561,142.955,159.596,143.833,160.362z"/>
		<path fill="#7D0A09" d="M72.545,276.5C-45.616,220.127-11.95,31.797,119.435,16.864c31.664-4.02,21.87,3.254-3.83,7.267
			C-21.424,45.529-30.777,222.6,89.658,278.429c125.286,48.062,251.783-85.987,165.637-201.631
			c-14.97-17.368-30.493-35.809-53.848-41.966c-13.67-7.256-64.816-10.288-79.568-12.842c0.263-11.796,51.721-4.277,58.891-2.089
			C392.289,84.445,262.86,375.527,72.545,276.5z"/>
		<g>
			<path fill="#B7660E" d="M138.89,29.167c4.061-10.086,14.913-33.108,27.284-24.131c-7.388,6.625-15.425,16.615-15.538,26.859
				c-2.46,1.151-5.55-2.87-6.552-1.312C142.097,31.046,140.228,31.082,138.89,29.167z"/>
			<path fill="#8E4A08" d="M160.454,3c1.855,0,3.768,0.619,5.72,2.036c-7.388,6.625-15.425,16.615-15.538,26.859
				c-0.316,0.148-0.642,0.21-0.973,0.21c-1.817,0-3.775-1.886-4.919-1.886c-0.27,0-0.494,0.105-0.661,0.364
				c-0.671,0.156-1.329,0.264-1.958,0.264c-1.231,0-2.35-0.413-3.235-1.68C142.311,20.672,150.55,3,160.454,3 M160.454,0
				c-10.79,0-19.196,15.252-24.347,28.046l-0.607,1.507l0.93,1.332c1.354,1.938,3.323,2.963,5.695,2.963
				c0.798,0,1.636-0.109,2.639-0.342l0.157-0.037c0.099,0.054,0.196,0.108,0.28,0.155c1.127,0.625,2.671,1.482,4.461,1.482
				c0.79,0,1.545-0.166,2.244-0.493l1.708-0.799l0.021-1.885c0.117-10.592,10.208-20.773,14.542-24.659l2.766-2.48l-3.007-2.182
				C165.552,0.877,163.034,0,160.454,0L160.454,0z"/>
		</g>
	</g>
</g>
</svg>
