<?xml version="1.0" encoding="utf-8"?>
<!-- Generator: Adobe Illustrator 28.4.1, SVG Export Plug-In . SVG Version: 6.00 Build 0)  -->
<!DOCTYPE svg PUBLIC "-//W3C//DTD SVG 1.1//EN" "http://www.w3.org/Graphics/SVG/1.1/DTD/svg11.dtd" [
	<!ENTITY ns_extend "http://ns.adobe.com/Extensibility/1.0/">
	<!ENTITY ns_ai "http://ns.adobe.com/AdobeIllustrator/10.0/">
	<!ENTITY ns_graphs "http://ns.adobe.com/Graphs/1.0/">
	<!ENTITY ns_vars "http://ns.adobe.com/Variables/1.0/">
	<!ENTITY ns_imrep "http://ns.adobe.com/ImageReplacement/1.0/">
	<!ENTITY ns_sfw "http://ns.adobe.com/SaveForWeb/1.0/">
	<!ENTITY ns_custom "http://ns.adobe.com/GenericCustomNamespace/1.0/">
	<!ENTITY ns_adobe_xpath "http://ns.adobe.com/XPath/1.0/">
]>
<svg version="1.1" id="Layer_1" xmlns:x="&ns_extend;" xmlns:i="&ns_ai;" xmlns:graph="&ns_graphs;"
	 xmlns="http://www.w3.org/2000/svg" xmlns:xlink="http://www.w3.org/1999/xlink" x="0px" y="0px" viewBox="0 0 373.91 429.849"
	 enable-background="new 0 0 373.91 429.849" xml:space="preserve">
<metadata>
	<sfw  xmlns="&ns_sfw;">
		<slices></slices>
		<sliceSourceBounds  bottomLeftOrigin="true" height="1860.713" width="2201.936" x="-920.789" y="-2081.878"></sliceSourceBounds>
	</sfw>
</metadata>
<g>
	<path fill="#4A6A09" d="M118.737,72.144c-1.32,0.542-2.639,1.084-3.959,1.625c-0.278,0.011-0.473-0.106-0.569-0.372
		c-5.45-13.113-13.651-23.781-26.501-30.559c-2.706-1.427-4.866-3.889-7.277-5.874c2.577-2.619,4.716-6.074,7.816-7.693
		c8.029-4.192,16.922-4.123,25.724-3.213c3.813,0.394,7.566,1.368,11.346,2.079c-1.805-3.723-3.61-7.446-5.415-11.17
		c-2.154-4.782-9.125-10.443-4.725-14.334c6.155-5.442,15.235-0.93,22.817,0.083c17.061,2.28,31.835,10.607,47.042,18.364
		c8.318,4.243,14.901-7.433,23.167-9.917c13.852-5.715,28.268-9.031,43.195-10.238c3.294-0.266,7.017-1.9,9.27,1.723
		c2.198,3.535-0.796,6.387-2.313,9.242c-1.763,3.318-4.087,6.342-5.801,9.681c-1.115,2.172-1.576,4.678-2.331,7.034
		c2.911-0.535,5.845-0.969,8.729-1.621c11.672-2.64,24.285-3.142,32.453,5.659c10.104,10.886-5.735,9.386-9.243,12.688
		c-9.012,8.482-17.217,17.063-21.839,28.67c-1.467-0.371-2.934-0.74-4.401-1.11c-1.232-0.947-0.934-2.224-0.764-3.482
		c0.507-3.748,2.061-7.066,4.148-10.167c6.617-9.248,15.182-16.303,24.915-22.04c0.72-0.425,1.601-0.751,1.581-1.777
		c-0.018-0.926-0.75-1.225-1.516-1.325c-7.404-0.967-14.778-2.632-22.296-0.906c-4.321,0.992-8.338,2.925-12.63,4.015
		c-1.722-0.072-3.141,1.038-4.83,1.185c-2.507,0.217-3.469-0.683-3.295-3.138c0.178-2.511,1.246-4.817,1.523-7.293
		c0.937-4.984,3.918-9.078,6.043-13.535c2.706-5.674,2.86-5.633-3.131-5.725c-7.642-0.118-14.63,2.57-21.566,5.289
		c-6.978,2.735-13.784,5.89-20.548,9.121c-3.714,1.774-7.014,4.276-10.736,6.087c-3.743,1.822-7.059,2.164-10.733-0.232
		c-3.433-2.24-7.095-4.152-10.693-6.146c-1.209-0.67-2.423-1.318-3.887-1.022c-2.512-0.337-4.666-1.569-6.853-2.724
		c-6.028-4.482-12.93-6.952-20.191-8.399c-2.98-0.594-6.004-1.019-8.937-1.819c-1.15-0.314-2.247-0.436-3.417-0.404
		c-4.523,0.126-4.492,0.094-2.358,4.366c2.075,4.154,4.183,8.294,6.184,12.484c0.91,1.905,1.81,3.829,1.818,6.017
		c-0.219,1.449,0.699,2.632,0.925,3.969c0.502,2.97-1.323,4.511-4.095,3.338c-2.14-0.905-4.309-1.729-6.456-2.611
		c-9.035-3.709-18.405-4.169-27.953-2.981c-1.259,0.157-2.54,0.019-3.776,0.332c-3.416,1.087-3.474,1.185-1.833,3.103
		c1.908,0.953,3.788,1.945,5.303,3.491c3.769,3.67,8.568,6.046,12.24,9.859c5.118,5.314,9.281,11.136,10.977,18.472
		C119.404,69.666,119.852,70.947,118.737,72.144z"/>
	<path fill="#AAD34F" d="M161.226,18.177c2.09,0.892,4.18,1.784,6.27,2.676c7.091,2.945,12.701,7.832,17.706,13.505
		c3.662,4.151,4.745,4.285,8.398,0.065c9.62-11.115,22.014-17.752,35.581-22.685c3.782-1.375,7.647-2.205,11.549-2.969
		c1.057-0.207,2.427-0.688,3.174,0.633c0.729,1.287-0.333,2.151-1.006,3.071c-6.994,9.574-12.317,19.948-15.16,31.518
		c-0.583,2.374-0.796,4.801-1.011,7.212c-0.225,2.529,0.571,3.006,3.026,2.06c2.484-0.958,4.705-2.406,6.895-3.896
		c7.777-5.29,15.558-10.568,23.63-15.412c3.074-1.844,6.437-1.968,9.775-1.997c4.732-0.041,9.395,1.064,14.131,1.243
		c1.189,0.045,2.501,0.477,2.841,1.66c0.357,1.245-1.012,1.787-1.857,2.262c-5.449,3.061-10.237,7.049-15.171,10.811
		c-4.051,3.088-6.954,7.267-9.654,11.552c-1.474,4.468-2.948,8.937-4.422,13.406c-4.038-0.863-8.077-1.726-12.116-2.589
		c-4.564-2.494-9.546-3.815-14.55-5.001c-1.101-0.261-2.258-0.415-3.375-0.71c-7.291-1.823-14.77-2.289-22.198-3.124
		c-10.946-1.231-21.886-1.296-32.869-0.401c-12.85,1.047-25.566,2.756-37.854,6.789c-3.099,1.017-6.29,1.855-9.22,3.368
		c-1.573,0.812-3.042,0.845-4.277-0.633c-1.703-3.468-2.177-7.42-4.261-10.752c-3.346-5.349-7.213-10.172-12.473-13.837
		c-2.568-1.789-4.972-3.825-7.611-5.53c-1.739-1.046-3.479-2.092-5.218-3.137c-2.048-2.164-1.805-3.111,0.928-4.109
		c1.836-0.671,3.782-0.042,5.607-0.616c0.288-0.166,0.598-0.28,0.926-0.34c7.017-0.661,13.202,1.307,19.066,5.231
		c6.681,4.471,13.051,9.356,19.613,13.979c1.652,1.164,3.366,2.19,5.252,2.909c1.558,0.594,2.532,0.215,2.348-1.654
		c-0.144-1.469-0.101-2.974-0.54-4.394c-3.089-10.001-6.582-19.828-12.239-28.745c-1.299-2.048-2.44-4.207-3.246-6.51
		c-0.469-1.34-0.674-2.744,0.448-3.863c1.022-1.018,2.248-0.833,3.544-0.401c4.11,1.372,8.487,1.436,12.666,2.522
		C150.227,12.89,155.581,15.886,161.226,18.177z"/>
	<path fill="#79AE21" d="M119.442,69.651c-0.058,0.861-0.117,1.723-0.175,2.584c-0.181-0.01-0.358-0.04-0.531-0.091
		c-1.733-15.129-12.858-23.266-23.619-31.674C107.238,46.859,115.925,56.104,119.442,69.651z"/>
	<path fill="#76AC1E" d="M260.344,59.486c4.591-10.328,14.094-15.504,22.693-21.639c1.224-0.873,2.297-1.955,3.441-2.941
		c-1.437-0.482-2.855-1.034-4.314-1.435c-20.091-5.526-32.066,9.786-46.794,18.112c-2.765,1.563-5.984,2.326-8.993,3.459
		c-0.079-3.374-0.827-6.896-0.117-10.096c2.654-11.97,8.104-22.748,15.195-32.718c0.601-0.845,1.1-1.762,1.647-2.645
		c-1.245,0.034-2.527-0.114-3.73,0.129c-19.3,3.883-34.797,14.249-48.051,28.354c-1.614,1.718-2.605,1.602-4.34,0.01
		c-6.387-5.858-12.972-11.5-19.483-17.223c0.316-0.024,0.746-0.196,0.932-0.052c25.204,19.49,42.388-7.853,63.725-10.9
		c6.236-0.891,13.768-4.62,18.324-2.326c5.646,2.843-2.433,7.753-3.048,12.248c-0.378,2.764-2.363,5.308-3.627,7.951
		c-1.672,3.734-2.249,7.75-2.994,11.72c-0.077,0.41-0.065,1.757,0.564,0.97c2.154-2.698,5.692-2.524,8.159-4.418
		c11.016-5.284,22.547-5.214,34.225-3.15c1.434,0.253,2.732,1.278,4.093,1.945c-0.825,0.963-1.471,2.228-2.504,2.841
		C275.663,43.422,266.964,50.255,260.344,59.486z"/>
	<path fill="#79AE21" d="M161.226,18.177c-9.751-2.758-19.494-5.549-29.266-8.23c-1.094-0.3-2.358,0.018-3.543,0.05
		c0.2,1.083,0.146,2.302,0.639,3.229c6.606,12.42,13.701,24.639,15.761,38.884c0.176,1.221,0.087,3.129-0.644,3.655
		c-0.783,0.564-2.652,0.221-3.74-0.329c-12.897-6.523-22.31-18.867-37.098-22.213c-2.03-0.459-4.205-0.276-6.313-0.39
		c-0.174-1.364,0.891-0.893,1.477-0.912c8.119-0.258,16.242,0.099,23.97,2.67c3.702,1.232,7.53,2.649,10.7,5.187
		c0.299,0.24,0.556,0.797,0.966,0.551c0.373-0.223,0.086-0.768,0.106-1.172c0.144-2.877-0.308-5.633-1.615-8.223
		c-3.164-6.837-6.328-13.675-9.491-20.512c-0.661-1.429-1.682-3.768,0.859-3.463C137.023,8.524,150.073,10.293,161.226,18.177z"/>
	<path fill="#5F900C" d="M132.625,30.935c1.049,3.744,2.133,7.48,3.102,11.245c0.121,0.471-0.362,1.098-0.566,1.653
		c-0.508-0.292-1.153-0.471-1.506-0.894c-9.881-11.834-23.443-10.296-36.635-10.106c0,0-0.06,0.022-0.06,0.022
		c-1.902,0.463-3.802,0.537-5.695-0.05c11.658-2.195,23.127-2.029,34.261,2.646C130.007,37.333,135.977,41.403,132.625,30.935z"/>
	<path fill="#5C8E09" d="M249.531,36.045c-3.257,2.382-6.514,4.765-9.772,7.147c1.348-5.14,2.695-10.279,4.043-15.418
		C244.17,31.596,236.954,40.663,249.531,36.045z"/>
	<path fill="#79AE21" d="M91.266,32.806c1.898,0.017,3.797,0.033,5.695,0.05c-1.609,2.664-8.449-2.904-7.061,4.478
		c-0.727-0.754-1.454-1.507-2.18-2.261C88.902,34.317,90.084,33.561,91.266,32.806z"/>
	<path fill="#C38D08" d="M333.796,357.95C478.416,158.292,197.305-62.872,40.15,128.319
		C-105.428,323.96,180.234,547.549,333.796,357.95z"/>
	<path fill="#F6ED0B" d="M264.824,81.687c5.298,2.948,10.595,5.895,15.893,8.843c2.423,2.274,4.99,4.356,8.06,5.702
		c1.571,0.688,2.968,1.9,3.965,2.989c1.924,2.1,4.709,3.001,6.379,5.418c1.931,2.792,5.415,3.839,7.914,6.142
		c1.529,1.41,3.233,2.763,4.435,4.392c1.948,2.64,4.045,5.141,6.127,7.663c0.958,1.16,1.659,2.448,1.768,3.994
		c-1.383,3.964-3.617,7.533-5.308,11.363c-2.493,5.647-4.943,11.322-7.79,16.809c-5.136,10.174-11.096,19.893-16.628,29.847
		c-1.813,3.261-4.308,6.202-6.321,9.415c-1.107,1.766-2.809,2.264-4.983,1.669c-8.667-2.368-17.032-5.426-25.22-9.197
		c-17.369-7.998-34.084-16.996-48.97-29.121c-1.477-1.203-2.939-2.423-4.378-3.67c-2.885-2.5-3.031-3.991-0.381-6.871
		c3.439-3.736,6.967-7.422,10.781-10.757c3.338-2.918,6.657-5.88,9.425-9.278c6.388-7.842,14.222-14.516,19.168-23.525
		c5.584-6.73,8.823-14.658,11.662-22.79c0.347-0.995,0.681-1.988,1.41-2.789c2.323-1.62,4.688-0.365,6.523,0.603
		C260.483,79.658,262.84,80.305,264.824,81.687z"/>
	<path fill="#FAEC34" d="M352.223,175.459c-2.964-7.234-6.442-14.369-10.455-21.399c-0.311-0.218-0.597-0.19-0.859,0.086
		c-0.673,2.287,0.721,4.067,1.494,5.987c2.268,5.639,5.432,10.832,6.689,16.995c0.816,4.004,2.091,8.235,4.288,11.847
		c3.046,5.006,3.848,10.676,5.368,16.134c0.417,1.497-0.143,2.651-2.051,1.575c-1.131-0.638-2.347-1.142-3.63-0.912
		c-3.587,0.643-7.171,0.07-10.749,0.165c-2.454,0.065-2.93-1.118-2.126-2.87c0.919-2.002,0.719-3.846,0.3-5.848
		c-0.323-1.542-0.587-3.103-0.701-4.695c-0.522-7.279-1.765-14.459-3.269-21.59c-0.601-2.85-2.137-5.529-1.015-8.623
		c0.362-0.998-0.225-2.067-0.817-2.975c-0.459-0.703-1.11-1.355-0.985-2.272c0.464-3.415-2.121-6.111-2.199-9.442
		c-0.023-0.961-0.662-2.787-2.499-1.345c-1.359,5.751-1.261,11.672,0.239,17.196c2.943,10.836,5.122,21.701,5.513,32.946
		c0.128,3.672-0.823,7.369,0.252,11.012c1.208,2.987,1.011,6.072,0.658,9.167c-0.214,2.101-0.587,4.198-1.04,6.239
		c-0.97,4.376,0.128,8.928-1.21,13.214c-1.701,5.451-2.439,11.128-4.113,16.586c-0.632,2.06-1.426,4.273-0.256,6.479
		c1.566,1.423,2.499,0.13,3.386-0.866c0.936-1.051,1.174-2.452,1.583-3.767c3.025-9.745,4.346-19.774,5.165-29.902
		c0.301-3.718,1.323-4.377,5.041-4.511c4.455-0.161,8.855,0.733,13.26,0.66c2.427-0.041,2.995,0.497,3.411,2.745
		c0.97,5.242,0.467,10.508,0.8,15.729c0.456,7.145-2.479,13.125-4.94,19.317c-1.12,2.819-3.065,5.304-4.101,8.214
		c-0.401,1.126-0.974,2.201-2.13,2.64c-3.666,1.393-5.674,4.403-7.213,7.668c-1.507,3.197-3.033,6.224-6.193,8.144
		c-0.891,0.541-1.446,1.559-1.844,2.543c-1.06,2.615-2.432,4.917-5.199,6.089c-0.673,0.285-1.196,0.881-1.633,1.483
		c-3.028,4.174-7.764,6.83-10.232,11.514c-0.331,0.628-0.959,1.173-1.597,1.522c-3.923,2.145-6.126,6.195-9.782,8.68
		c-2.668,1.814-5.499,3.548-7.386,6.332c-0.212,0.313-0.864,0.632-1.119,0.351c-0.488-0.538,0.151-0.952,0.492-1.281
		c1.141-1.099,2.706-1.713,3.656-3.02c4.516-6.214,9.895-11.853,12.802-19.143c0.315-0.791,0.856-1.435,1.475-2.038
		c3.742-3.65,5.951-8.463,7.193-13.175c1.625-6.163,3.879-12.021,6.049-17.953c0.768-2.099,1.466-4.248-0.126-6.323
		c-3.522,0.476-3.824,3.472-4.478,5.993c-1.172,4.523-2.73,8.942-4.916,12.998c-1.809,3.357-4.099,6.389-4.366,10.375
		c-0.055,0.829-0.556,1.626-1.182,2.208c-2.63,2.449-4.109,5.559-5.463,8.818c-0.969,2.331-2.385,4.466-3.906,6.521
		c-6.669,9.013-15.193,16.428-21.877,25.423c-5.099,5.07-10.411,9.924-15.936,14.513c-4.554,3.782-8.82,7.994-13.806,11.174
		c-9.357,5.966-18.907,11.619-29.056,16.221c-10.689,4.847-21.482,9.411-33.055,11.613c-7.124,1.355-14.271,3.145-21.667,1.915
		c-1.77-0.294-3.593-0.131-5.376,0.186c-1.667,0.644-3.226,0.111-4.904-0.188c-13.657-2.434-26.627-7.259-39.881-11.106
		c-6.5-1.886-12.445-5.287-19.143-6.533c-1.766-0.329-3.372-1.18-5.035-1.855c-5.31-2.154-10.764-4.099-16.589-3.271
		c-2.915,0.414-5.044-0.474-7.329-1.976c-3.435-2.258-6.984-4.36-10.594-6.333c-2.054-1.123-4.258-1.98-6.616-0.672
		c-1.172,1.975,1.376,2.271,1.625,3.603c18.798,20.49,40.308,35.61,64.361,45.283c6.275,1.782,12.63,3.352,18.888,5.18
		c3.705,1.082,7.464,2.44,11.265,3.82c8.078,1.636,16.392,2.752,24.942,3.33c49.272,3.331,92.914-11.954,129.851-44.815
		c27.486-24.452,45.898-54.628,53.913-90.792c0.002,0.001,0.004,0.003,0.005,0.004c1.179-6.225,2.629-12.412,3.492-18.681
		c0.19-1.383,0.361-2.761,0.52-4.138c-0.376-0.875-0.506-1.903-0.267-3.052c0.724-3.478,1.12-6.979,1.327-10.492
		c0.953-23.526-2.846-46.144-11.315-67.855C352.882,177.291,352.514,176.383,352.223,175.459z M356.538,286.152
		c-2.623,8.569-6.213,16.796-8.9,25.34c-1.023,3.251-3.253,5.928-4.467,9.093c-2.562,6.679-6.995,12.285-10.539,18.401
		c-0.734,1.267-1.587,1.695-2.642,0.297c-1.177-1.558-2.873-2.068-4.702-2.321c-4.187-0.579-8.259-1.869-12.53-1.951
		c-0.918-0.018-2.118-0.061-2.544-0.96c-0.416-0.878,0.649-1.45,1.173-2.048c4.36-4.981,9.927-8.771,13.953-14.092
		c0.568-0.75,1.311-1.413,2.121-1.9c5.999-3.61,10.458-8.946,14.998-14.038c2.745-3.078,6.207-5.984,7.428-10.118
		c1.353-4.583,5.879-6.19,8.259-9.74c0.306-0.457,0.946-0.076,1.37,0.268C357.073,282.476,357.011,284.607,356.538,286.152z"/>
	<path fill="#F6ED0B" d="M109.736,81.736c0.197-0.041,0.397-0.069,0.598-0.083c4.708-2.989,10.09-4.26,15.295-5.985
		c2.676,1.861,2.911,5.043,3.998,7.703c2.356,5.765,4.934,11.392,8.206,16.704c0.739,1.2,1.831,2.036,2.633,3.131
		c1.248,1.706,2.581,3.466,0.902,5.669c-1.136,0.612-2.337,0.448-3.537,0.303c-2.767-0.748-5.163-2.538-8.354-2.163
		c-3.183,0.374-6.534-0.354-9.262,2.022c-2.953,0.19-5.777,0.68-8.231,2.594c-0.877,0.684-2.184,0.696-3.274,1.055
		c-4.587,1.51-9.154,3.1-12.143,7.286c-3.198,2.5-5.705,5.815-9.275,7.879c-0.77,0.327-1.775,0.534-1.986,1.408
		c-0.741,3.064-2.752,5.614-4.222,8.173c-2.448,4.259-1.524,8.429-1.858,12.665c-0.098,1.236,0.113,2.302,1.422,2.828
		c0.247,0.226,0.436,0.49,0.578,0.791c1.265,6.469,5.662,9.661,11.716,10.928c4.878,1.021,9.812,0.846,14.724,0.077
		c2.284-0.405,4.886,0.251,6.561-2.167c0.406-0.586,1.354-0.519,2.092-0.494c1.306,0.045,2.522-0.323,3.649-0.891
		c4.246-2.138,8.715-3.802,12.944-5.926c1.894-0.951,4.061-2.271,4.903-4.643c0.659-0.784,1.495-1.222,2.521-1.277
		c3.391-0.877,8.211-6.112,8.392-9.133c2.079-3.982,3.231-8.161,2.99-12.705c-0.129-2.429-0.172-4.824-1.655-6.925
		c-0.38-0.539-0.282-1.211,0.016-1.816c1.682-1.16,2.436,0.323,3.408,1.188c2.995,4.106,6.639,7.649,10.205,11.223
		c5.429,5.443,11.058,10.691,16.457,16.169c2.109,2.14,2.103,3.92,0.021,6.025c-0.817,0.826-1.74,1.544-2.635,2.286
		c-8.774,7.272-18.273,13.548-27.765,19.803c-4.118,2.713-9.225,3.585-13.493,6.224c-1.868,1.155-3.988,1.958-5.867,3.136
		c-8.427,5.286-18.26,7.203-27.17,11.354c-3.576,1.666-5.978,0.386-8.364-2.978c-5.45-7.682-10.124-15.856-14.543-24.124
		c-4.954-9.27-10.524-18.275-14.37-28.08c-2.299-5.86-5.382-11.423-6.86-17.619c-0.417-1.75-0.63-3.291,0.437-4.817
		c4.639-5.324,10.22-9.623,15.479-14.279c6.396-5.663,13.752-9.981,20.646-14.939C99.995,86.202,105.255,84.659,109.736,81.736z"/>
	<path fill="#F8EC0C" d="M27.115,165.525c5.096-8.888,10.192-17.776,15.288-26.664c2.174-1.594,3.05-4.203,4.821-6.132
		c3.365-3.665,5.037-3.501,7.443,0.937c0.706,5.209,3.399,9.69,5.52,14.335c3.401,7.451,7.232,14.691,11.775,21.56
		c1.518,2.296,3.722,4.688,2.821,7.989c-1.29,1.345-2.937,1.494-4.576,1.096c-1.569-0.382-3.056-0.208-4.575,0.093
		c-2.711,0.234-5.429,0.052-8.14,0.14c-4.057-1.053-6.69,1.304-9.217,3.877c-0.205,0.209-0.26,0.632-0.517,0.777
		c-5.941,3.36-5.235,9.016-5.025,14.493c0.049,1.286,0.53,2.323,1.373,3.403c1.466,1.877,1.932,4.114,0.791,6.433
		c-0.599,0.478-1.312,0.835-2.041,0.779c-8.264-0.641-16.338,1.959-24.606,1.379c-4.378-0.307-4.923-1.218-4.123-5.444
		c2.021-10.681,5.889-20.772,9.51-30.944C24.62,170.869,26.01,168.251,27.115,165.525z"/>
	<path fill="#EEC904" d="M27.115,165.525c-11.796,46.931-27.032,45.714,17.799,41.864c2.064-1.771,4.174-0.801,5.624,0.567
		c2.418,3.232,8.947,0.887,9.897,3.9c-1.778,5.564-35.895,6.045-42.558,6.079c-3.936-1.192-5.122,3.263-4.702,6.457
		c0.721,5.726-1.593,11.194-1.346,16.896c0.104,2.405,0.56,4.42,2.093,6.387c6.225,8.466,10.007,18.554,16.904,26.498
		c10.587,13.981,21.053,28.077,34.864,39.121c9.002,6.915,16.808,16.138,27.702,19.932c3.446,0.987,6.425,2.414,6.249,6.769
		c0.644,2.211,3.727,2.696,4.558,5.052c2.061,2.004-1.025,5.024-2.907,2.967c-1.547-1.848-3.396-2.134-5.587-2.031
		c-4.073-1.299-5.806-4.502-10.833-2.47c-10.565,3.478-21.578,4.324-32.468,5.994c-5.5,0.569,3.312,4.465,2.037,7.749
		c0.625,1.046,1.249,2.092,1.874,3.137c-6.786-9.061-13.571-18.122-20.357-27.183c1.722-0.629,2.6,0.66,3.324,1.717
		c2.526,3.69,5.656,4.404,10.116,3.737c7.942-1.472,16.729-1.606,24.253-4c-21.727-17.596-42.594-38.338-58.319-62.079
		c2.335,16.725,8.119,32.858,15.985,47.813c0.932,3.007,5.572,8.17,3.367,10.909C4.659,281.263,1.86,218.09,27.115,165.525z"/>
	<path fill="#F5EE0B" d="M34.686,331.309c-6.859-16.299-15.607-31.875-18.979-49.509c-0.137-0.719-0.525-1.402-0.588-2.121
		c-0.316-3.574-0.562-7.154-0.832-10.732c2.068,2.844,4.179,5.658,6.198,8.536c15.144,21.581,33.012,40.501,54.553,55.845
		c1.075,0.766,2.275,2.638,0.209,2.549c-13.111-0.563-27.189,12.1-39.286-2.665C35.535,332.577,35.11,331.943,34.686,331.309z"/>
	<path fill="#EFC703" d="M53.812,133.778c-7.938-7.571-6.666,5.497-11.41,5.083c17.492-24.869,39.576-44.337,67.334-57.126
		c-17.888,10.444-35.298,21.531-49.59,36.811c-1.493,1.582-1.553,3.472-0.861,5.332c2.831,7.608,6.005,15.074,9.377,22.461
		c3.456,7.57,7.517,14.842,11.398,22.176c2.388,4.514,3.273,9.574,6.051,13.841c0.4,0.614,0.624,1.35,0.704,2.094
		c0.223,2.066-0.89,2.962-2.914,2.309c-1.59-0.513-2.655-1.664-3.523-3.049C70.336,167.696,60.561,151.541,53.812,133.778z"/>
	<path fill="#EFC408" d="M125.614,76.02c-5.093,1.878-10.186,3.756-15.279,5.633c18.011-9.601,37.322-14.988,57.505-17.268
		c33.487-3.783,65.395,2.114,95.883,16.202c0.442,0.204,0.737,0.726,1.101,1.1c-4.239-1.046-8.479-2.092-12.718-3.137
		c-0.477,0.438-0.878,0.962-1.472,1.265c-3.185,0.866-4.825-1.315-6.559-3.316c-0.558-0.969-1.122-1.931-2.362-2.168
		c-11.433-3.972-23.273-6.176-35.226-7.592c-10.884-1.289-21.754-2.257-32.817-0.504c-10.415,1.651-20.916,2.719-31.146,5.415
		c-1.838,0.484-3.638,1.108-5.386,1.852c-1.202,0.333-2.495,0.481-2.794,2.104c-0.271,1.471,1.024,1.676,1.737,2.326
		c1.364,1.242,2.238,2.643,2.616,4.529c0.537,2.681,2.22,4.952,3.406,7.377c2.106,4.304,3.743,8.965,7.481,12.308
		c0.172,0.268,0.297,0.553,0.382,0.858c0.272,2.131,0.278,4.202-1.128,6.029c-1.464,1.902-2.951,2.06-4.364,0.19
		c-6.731-8.907-12.685-18.261-16.363-28.904C127.567,78.747,127.011,77.125,125.614,76.02z"/>
	<path fill="#F5DC27" d="M341.768,154.059c-0.228,0.009-0.455,0.019-0.683,0.028c-0.822-0.02-1.475-0.483-1.795-1.127
		c-3.154-6.344-8.058-11.518-11.693-17.536c-0.217-0.359-0.394-0.743-0.643-1.084c0.244,0.296,0.426,0.634,0.577,0.981
		c0.628,1.438,1.46,2.875,0.151,4.385c-1.992,0.425-2.886-0.927-3.762-2.31c-1.277-3.73-3.646-6.939-5.082-10.594
		c-8.787-14.466-22.387-23.714-35.854-33.13c-0.999-0.699-1.522-2.079-2.266-3.142C306.741,106.264,327.346,127.196,341.768,154.059
		z"/>
	<path fill="#BDB02B" d="M226.635,60.774c0.637-0.201,1.275-0.402,1.911-0.602c5.954,1.493,12.374,1.713,17.203,6.284
		C239.378,64.562,233.007,62.668,226.635,60.774z"/>
	<path fill="#EFD306" d="M53.812,133.778c8.976,16.029,17.891,32.093,27.013,48.038c1.014,1.773,3.211,2.87,4.86,4.281
		c-0.574-1.803-0.974-3.685-1.747-5.398c-8.439-18.69-16.964-37.341-25.382-56.04c-1.022-2.269-0.845-4.572,1.591-6.114
		c1.516,16.454,10.516,29.898,17.996,43.879c5.459,10.204,11.884,19.887,17.609,29.955c1.971,3.466,4.424,3.889,7.647,2.62
		c26.938-10.604,53.876-21.801,74.736-42.359c6.396-6.304-6.038-9.742-9.325-14.739c-4.268-6.487-10.483-11.696-15.86-17.454
		c1.433-2.553,3.256-2.504,5.392,0.142c2.976,3.686,5.881,7.428,8.886,11.093c1.658,2.022,3.854,3.243,5.961,4.625
		c0.401,0.263,0.941,0.792,1.376,0.266c0.366-0.443-0.108-0.976-0.369-1.41c-0.656-1.093-1.615-1.942-2.41-2.923
		c-3.246-4.008-7.158-7.451-9.967-11.834c-0.915-1.427-2.168-2.567-3.664-3.427c-1.335-0.768-2.171-1.857-2.514-3.444
		c-0.285-1.314-1.03-2.418-2.103-3.413c-2.175-2.014-3.863-4.424-4.39-7.459l-0.001-0.001c-1.042-1.934-3.659-2.93-3.374-5.654
		c1.928-0.817,2.665,0.819,3.533,1.862c6.558,7.876,12.977,15.867,19.859,23.472c5.897,6.518,12.36,12.454,18.704,18.515
		c1.403,1.34,2.668,0.673,3.939-0.317c6.233-4.854,11.532-10.657,16.63-16.633c2.938-3.444,5.882-6.887,8.991-10.178
		c4.57-4.838,8.186-10.439,12.278-15.661c1.056-1.347,1.733-3.276,3.985-3.165c0.225,0.217,0.383,0.473,0.469,0.774
		c0.15,1.011-0.246,1.882-0.792,2.668c-4.153,5.981-8.011,12.16-12.202,18.116c-2.818,3.157-6.359,5.586-9.003,8.92
		c-0.989,1.029-1.944,2.086-2.738,3.28c-2.765,3.279-5.603,6.497-8.277,9.852c-0.431,0.541-1.09,0.985-1.028,1.817
		c0.604-0.238,1.027-0.718,1.495-1.132c1.1-0.974,2.251-1.906,3.255-2.971c1.649-1.75,3.072-3.757,5.969-3.281
		c0.429,0.071,0.834-0.576,1.172-0.98c1.225-0.983,2.137-2.269,3.249-3.363c2.743-2.131,5.051-4.596,6.163-7.986
		c0.938-1.827,2.403-3.228,3.93-4.514c3.809-3.207,7.479-6.526,10.319-10.664c0.479-0.698,1.143-1.242,1.934-1.602
		c0.61-0.204,1.218-0.343,1.792,0.097c-8.612,14.487-20.559,26.155-32.871,37.29c-7.426,6.716-9.453,10.382,0.35,17.363
		c21.796,15.519,44.686,29.003,70.52,35.486c9.784,2.455,11.006-11.216,15.742-17.698c4.869-6.664,8.292-14.383,12.348-21.641
		c0.603,0.426,0.757,1.049,0.768,1.736c-0.956,5.917-4.726,10.518-7.461,15.583c-1.753,3.246-3.892,6.308-5.019,9.839
		c-1.264,3.962-4.566,6.547-6.412,10.089c-0.587,1.12-1.291,2.168-1.971,3.233c-1.609,2.52-3.901,3.364-6.793,2.923
		c-2.94-0.449-5.705-1.466-8.495-2.432c-2.198-0.761-4.444-1.391-6.794-0.608c-1.449,0.483-2.039,1.143-0.534,2.341
		c0.964,0.767,2.193,1.368,2.217,2.875c-1.575,1.678-3.151,0.499-4.626-0.105c-13.544-5.551-26.264-12.668-38.964-19.911
		c-10.262-5.853-19.784-12.607-28.852-20.088c-1.635-1.349-3.129-1.365-4.852-0.073c-11.336,8.5-23.285,16.098-35.365,23.469
		c-3.574,2.181-7.476,3.912-11.247,5.809c-10.388,5.226-20.696,10.649-31.773,14.35c-2.108,0.704-2.914,1.808-1.855,3.911
		c-2.443,2.854-5.789,3.871-9.299,4.57c-3.613-2.672-7.378-2.014-11.433-1.003c-9.206,2.296-18.621,3.575-27.962,5.22
		c-12.12,2.135-24.289,2.739-36.544,2.457c-1.723-0.04-3.326,0.518-4.973,0.872c-1.694,0.365-3.369,0.506-4.727-0.917
		c6.662-4.451,14.243-0.749,21.315-2.393c6.413-1.49,13.137-1.612,19.694-2.545c2.096-0.298,4.096-1.265,6.14-1.925l-5.214-1.283
		c0.648-1.303,1.938-0.974,3.03-1.065c1.476-0.122,2.965-0.059,4.442,0.046c3.558,0.251,6.33-1.224,8.557-3.892
		c0.96-1.151,1.975-2.178,3.332-2.828c2.806-1.577,5.391-3.578,8.676-4.234c1.747-0.349,1.993-1.382,1.186-3.032
		c-2.306-4.715-5.805-8.743-7.749-13.666c-0.657-1.664-1.555-3.224-1.155-5.106C67.39,162.751,57.751,149.646,53.812,133.778z"/>
	<path fill="#EED107" d="M305.486,156.635c0-0.634-0.001-1.267-0.001-1.901c4.451-9.311,8.901-18.621,13.352-27.932
		c1.908,3.388,3.817,6.775,5.725,10.163c1.267,4.75-2.602,13.253-6.735,14.812c-1.469-1.02-0.596-2.266-0.252-3.39
		c0.896-2.926,2.346-5.63,3.562-8.426c0.921-2.117,0.839-4.071-0.215-6.047c-0.386-0.724-0.644-1.805-1.566-1.789
		c-0.994,0.017-1.083,1.164-1.337,1.917c-2.228,6.617-5.594,12.707-8.817,18.853C308.4,154.427,307.95,156.62,305.486,156.635z"/>
	<path fill="#EED107" d="M239.396,103.934c-0.427,0.21-0.854,0.42-1.281,0.63c-0.888-1.025-0.336-2.001,0.161-2.923
		c3.65-6.767,8.214-13.06,10.6-20.482c0.313-0.973,1.124-1.499,1.951-1.991c0.426-0.206,0.852-0.413,1.278-0.619
		C249.181,87.667,245.928,96.62,239.396,103.934z"/>
	<path fill="#F6ED0B" d="M329.634,260.773c-7.228,16.889-13.404,34.374-24.489,49.253c-6.245,8.382-13.708,15.856-20.623,23.74
		c-2.814-2.249-6.314-3.106-9.624-3.818c-4.679-1.006-9.112-2.626-13.573-4.184c-12.366-4.321-24.376-9.525-36.222-15.101
		c-2.688-1.265-5.494-2.162-8.288-3.124c-2.087-0.719-3.534-1.948-2.99-4.467c0.758-1.396,1.661-2.696,2.851-3.752
		c2.799-2.484,3.641-5.869,3.899-9.307c0.3-3.997,0.214-8.04,0.017-12.049c-0.137-2.778,0.946-4.646,3.183-6.065
		c2.808-1.781,5.194-3.968,6.596-7.064c0.96-4.33,4.626-6.125,7.597-8.846c11.176-10.236,22.618-20.286,31.574-32.683
		c1.47-2.035,3.555-2.822,5.848-3.427c3.597-0.95,4.401-2.208,4.027-5.905c-0.312-3.089,1.788-5.85,4.869-6.355
		c1.483-0.243,2.945-0.031,4.407,0.272c12.925,2.682,25.914,5.011,38.957,7.041c2.983,0.464,6.126-0.096,8.948,1.407
		c-2.317,14.386-4.633,28.773-6.95,43.159C330.037,259.926,329.976,260.351,329.634,260.773z"/>
	<path fill="#EFD506" d="M214.589,303.305c21.062,12.239,44.304,19.301,66.992,27.793c1.152,0.431,1.969,1.758,2.941,2.668
		c-31.411,31.279-73.661,58.737-119.507,55.922c-3.16,1.528-4.008-1.971-1.344-3.463c1.026-0.946,3.241-0.512,3.237-2.158
		c-26.225-10.669-52.166-23.408-76.532-38.218c-9.828-1.114-20.259,4.448-30.406,4.796c-2.992,0.366-6.186-0.026-8.714,2.194
		c-1.189-1.386-5.035-2.765-0.089-4.209c11.164-1.926,22.321-4.306,33.529-6.083c7.254-1.749,12.71,3.113,19.179,4.969
		c-3.728-11.293-15.458-15.018-23.992-21.207c-23.288-16.989-41.473-38.524-57.205-62.366c5.462,0.314,18.068,22.159,23.443,27.134
		c10.853,13.453,24.674,24.042,38.029,34.862c4.862,4.086,10.254,5.096,15.999,3.049c20.297-6.352,40.183-13.908,59.501-22.677
		c6.717-3.72-4.314-6.499-3.43-21.712c2.117-13.742-7.136-10.456-5.003-15.802c18.909,3.838-2.706,28.909,22.797,36.486
		c1.177,0.312,2.576,0.903,2.651,2.32c-19.58,11.911-40.335,22.301-62.03,29.798c-1.839,0.924-8.419,1.421-5.524,4.283
		c24.278,15.303,50.66,27.4,78.027,36.209c11.982,0.787,23.066-7.578,34.278-11.161c14.816-6.185,29.005-13.875,43.096-21.517
		c1.695-1.205,8.626-4.207,4.574-5.837c-17.222-6.959-35.015-12.877-50.757-23.01c-2.591-2.793-17.427-5.445-13.833-10.293
		c2.401-0.745,4.856-1.211,6.98-2.699C212.535,302.812,213.524,302.248,214.589,303.305z"/>
	<path fill="#FDF53A" d="M287.469,344.338c11.926,1.501,24.136,0.559,33.871,5.014c8.412,3.85-2.912,7.91-4.848,10.334
		c-9.81,12.283-21.875,22.662-35.397,30.776c-20.244,12.147-40.369,4.566-60.212-2.081c-2.775-0.929-5.088-3.234-7.614-4.902
		c6.206-2.559,12.611-4.727,18.57-7.768c8.81-4.496,17.315-9.59,25.928-14.468C267.968,355.465,278.146,349.646,287.469,344.338z"/>
	<path fill="#FDF439" d="M364.665,227.049c-1.362-3.282-4.561-5.983-10.924-7.398c-4.81-1.07-14.672-7.024-15.996,6.081
		c-1.168,11.555-1.134,23.539-8.097,33.764c-0.005,0.425-0.009,0.851-0.014,1.276c-4.641,22.918-14.406,43.192-30.936,59.999
		c-1.23,1.25-2.156,2.802-3.164,4.255c-0.057,0.082,0.535,0.823,0.65,0.781c1.646-0.605,3.601-0.918,4.826-2.025
		c4.491-4.061,8.682-8.451,13.085-12.613c19.345-18.286,39.551-36.534,46.98-62.885c0.88-3.12,2.722-7.258,3.734-11.451
		C364.788,233.576,364.707,230.312,364.665,227.049z"/>
	<path fill="#F5EE0B" d="M51.256,352.839c3.489-6.316,10.063-2.182,14.841-4.387c27.047-12.48,44.107,10.39,65.255,18.684
		c12.438,4.878,24.613,10.428,36.887,15.721c0.794,0.342,1.42,1.074,2.124,1.624c-0.857,0.464-1.715,0.925-2.571,1.392
		c-1.692,0.923-3.383,1.85-5.074,2.775c0.766,0.346,1.532,0.691,2.297,1.037c-13.505,0.137-25.679-5.422-38.362-8.854
		c-17.837-4.826-34.418-13.683-53.429-15.078c-6.37-0.468-11.066-8.599-18.781-8.496C53.38,355.784,52.318,354.312,51.256,352.839z"
		/>
	<path fill="#FDF53A" d="M193.045,417.028c-21.786-0.542-41.812-1.619-60.852-9.068c-1.058-0.414-1.863-1.476-2.785-2.236
		c1.006-0.271,2.007-0.563,3.019-0.808c17.755-4.312,35.612-8.246,53.234-13.046c13.787-3.755,24.452,5.118,36.618,7.792
		c7.319,1.609,14.4,4.301,21.566,6.576c0.331,0.105,0.444,0.898,0.659,1.37c-1.047-0.003-2.262-0.36-3.116,0.044
		C225.525,415.155,208.41,415.853,193.045,417.028z"/>
	<path fill="#F6ED0B" d="M317.571,151.57c4.211-3.97,5.697-9.242,6.991-14.606c1.049,0.834,2.098,1.668,3.147,2.502
		c2.978,1.957,3.454,3.526,1.934,6.38c-1.028,20.85,9.163,40.551,6.315,61.587c-1.026,1.148-2.351,0.857-3.56,0.59
		c-11.46-2.528-23.232-3.154-34.685-5.715c-1.135-0.254-2.287-0.454-3.399-0.781c-3.598-1.059-4.649-3.366-2.431-6.442
		c8.165-11.323,14.465-23.742,21.422-35.774c1.318-2.279,2.536-4.617,3.52-7.067C317.007,151.946,317.256,151.722,317.571,151.57z"
		/>
	<path fill="#EED107" d="M317.561,152.19c-21.908,51.991-49.823,45.671,18.396,55.244c0.214,2.968,0.428,5.936,0.641,8.903
		c-14.964-2.109-29.972-3.951-44.869-6.452c-6.308-1.059-9.586-2.627-11.995,6.659c-1.837,7.082-11.605,12.1-17.823,18.059
		c-9.235,8.85-17.242,19.035-28.48,25.726c-1.284,0.764-1.555,3.226-2.296,4.901c-0.696-0.503-0.592-1.231-0.582-1.953
		c0.036-2.495-1.82-3.708-3.475-5.055c-0.252-4.602,9.429-5.861,3.672-9.973c-8.771-8.455,3.362-24.171,10.026-30.799
		c2.405-3.259,6.171-0.508,2.563,2.171c-4.714,4.156-7.534,9.582-10.267,15.073c-5.55,11.875,6.11,16.177,11.176,4.726
		c4.859-9.917,13.843-18.895,25.256-19.855c2.81-0.817,7.52-0.081,8.508-3.504c-0.581-6.364-10.031-6.142-14.83-5.929
		c-5.065,0.366-9.608,2.236-13.866,4.972c-1.402,0.901-2.84,2.44-4.853,1.193c-0.458-6.607,17.011-10.46,22.461-10.171
		c1.463,0.034,3.853,0.816,4.193-0.9c0.191-2.109-6.686-1.375-6.307-4.786c-1.067-2.204-6.549-2.056-4.424-5.119
		c7.58-7.981,20.455,10.518,26.032-3.761c1.973,1.54-0.414,3.389,0.004,4.865c2.06-0.878,3.949-3.035,3.978-5.547
		c-0.316-4.287,4.792-2.066,5.875-5.515c5.677-10.246,12.072-20.071,17.764-30.307C314.817,153.657,315.275,151.776,317.561,152.19z
		"/>
	<path fill="#FDF53A" d="M83.038,380.615c-8.25-2.37-14.004-9.769-20.751-15.758c-0.186-0.165,0.07-1.308,0.292-1.369
		c0.872-0.239,2.106-0.649,2.686-0.246c14.738,10.23,33.131,9.013,49.082,15.723c10.893,4.582,22.757,6.856,34.162,10.245
		c0.996,0.296,1.809,1.209,2.707,1.836c-0.89,0.486-1.734,1.264-2.678,1.416c-20.719,3.351-42.246,13.871-60.363-6.594
		c-1.011-1.142-2.027-2.295-3.168-3.298C84.313,381.96,88.094,379.72,83.038,380.615z"/>
	<path fill="#FDF439" d="M359.541,282.379c-7.459,19.213-13.049,39.262-25.322,56.322c-1.706,2.372-2.01,5.718-5.872,0.906
		c-2.154-2.683-8.168-2.286-12.449-3.248c-2.716-0.61-5.445-1.168-8.168-1.749c1.891-2.367,3.552-4.972,5.711-7.062
		c13.341-12.913,29.212-23.41,37.956-40.695c1.371-2.71,4.558-4.504,6.905-6.722c0.413,0.757,0.826,1.514,1.239,2.272
		C359.541,282.404,359.541,282.379,359.541,282.379z"/>
	<path fill="#FDF439" d="M329.643,145.847c-0.644-2.126-1.289-4.253-1.934-6.379c-1.034-2.833-2.067-5.666-3.101-8.499
		c4.033,5.035,8.198,9.972,12.042,15.147c1.798,2.42,2.976,5.3,4.435,7.971c6.249,16.525,12.602,33.012,18.687,49.597
		c2.004,5.461-0.354,6.446-14.814,3.506c-13.621-2.769-4.052-14.098-6.546-21.127C333.861,173.234,332.396,159.312,329.643,145.847z
		"/>
	<path fill="#EED107" d="M149.145,102.663c7.57,9.335,15.182,18.636,22.681,28.027c1.835,2.298,5.44,3.751,4.182,7.751
		c-3.024-1.771-6.093-3.47-9.063-5.328c-5.412-3.385-5.297-12.883-13.996-12.666c-0.81-0.63-1.62-1.26-2.43-1.89
		c-0.77-0.08-1.193-0.571-1.471-1.235c-0.196-0.81-0.206-1.603,0.253-2.342c0.068-0.073,0.138-0.151,0.215-0.22
		c1.023-0.914,2.083,1.219,3.095-0.039c0.068-0.084,0.008-0.26-0.018-0.255c-1.395,0.23-2.771-1.017-4.175-0.052
		c-2.849-1.394-5.533-2.978-6.906-6.054c-5.299-10.781-10.599-21.562-15.898-32.342c2.648,4.849,5.129,9.8,7.987,14.522
		c3.782,6.249,7.845,12.329,11.847,18.442c0.255,0.39,1.033,0.437,1.568,0.644C147.726,107.306,148.436,104.984,149.145,102.663z"/>
	<path fill="#F8F473" d="M149.803,117.237c0.238,0.44,0.476,0.881,0.714,1.321c4.293,7.548,2.67,14.89-0.769,22.17
		c-2.378,3.729-5.534,6.726-8.937,9.493c-0.822,0.235-1.644,0.471-2.466,0.706c-1.019,2.107-2.406,3.522-5.005,2.653
		c-0.724-1.906,0.545-3.03,1.781-3.961c4.575-3.443,8.448-7.568,12.085-11.95c0.708-0.853,1.191-1.728,1.258-2.813
		c0.254-4.084,0.834-8.171,0.021-12.256c-0.96-4.827-4.577-7.339-8.469-9.567c-1.374-0.787-2.974-1.286-2.897-3.307
		c0.069-0.325,0.218-0.608,0.446-0.85c4.15-1.189,6.156,2.468,8.94,4.172C147.896,113.9,149.799,115.001,149.803,117.237z"/>
	<path fill="#F9F475" d="M86.874,126.797c2.955-2.335,5.909-4.669,8.864-7.004c0.33-1.696,1.125-2.723,3.053-2.125
		c1.509,1.436,0.773,2.65-0.432,3.745c-1.55,1.409-2.94,2.961-4.626,4.258c-3.983,3.064-6.689,7.163-8.992,11.614
		c-1.371,2.65-2.369,5.146-2.468,8.268c-0.131,4.124,1.352,7.288,3.756,10.352c1.533,1.955,3.225,3.889,3.466,6.556
		c-0.697,0.661-1.595,0.858-2.284,0.267c-2.97-2.544-6.286-4.877-6.684-9.282l0.005-0.015c-0.925-0.822-1.276-1.87-1.283-3.085
		c-0.029-4.763-0.701-9.717,1.714-14.039C82.776,133.07,84.73,129.86,86.874,126.797z"/>
	<path fill="#F3EF4B" d="M133.259,153.453c1.696-0.842,3.392-1.684,5.088-2.526c-4.514,7.688-13.155,8.534-20.196,11.937
		c-3.129,1.512-6.835,1.831-10.279,2.691c-1.007,0.511-2.056,0.269-3.097,0.176c-0.603-1.189,0.426-1.696,1.101-1.749
		c2.701-0.213,4.782-2.066,7.339-2.587c1.356-0.271,2.635-0.649,3.646-1.725c0.658-0.701,1.59-1.144,2.532-1.236
		c2.887-0.282,5.483-1.307,7.92-2.812c2.161,0.073,3.646-1.547,5.513-2.214C132.97,153.424,133.115,153.439,133.259,153.453z"/>
	<path fill="#F3EE3C" d="M86.874,126.797c-4.741,8.255-8.063,16.846-6.341,26.637c-0.832-0.599-2.276-1.093-2.4-1.814
		c-1.182-6.851,0.369-13.238,4.035-19.063C83.478,130.475,85.291,128.708,86.874,126.797z"/>
	<path fill="#F1EE3A" d="M104.617,165.492c1.085,0.021,2.17,0.042,3.255,0.063c-12.682,4.14-27.227-2.3-27.343-12.107
		c2.294,3.629,4.283,7.562,8.877,8.9c0.271-0.238,0.587-0.372,0.946-0.405c3.945,1.814,8.087,2.6,12.427,2.474
		C103.512,164.397,104.19,164.815,104.617,165.492z"/>
	<path fill="#F3EC3F" d="M98.96,117.926c-1.074,0.623-2.147,1.245-3.221,1.868c6.026-8.054,15.205-9.5,24.125-11.49
		c0.059,0.149,0.118,0.298,0.177,0.447c-1.751,1.771-3.73,2.942-6.142,3.903c-4.028,1.605-8.458,2.284-12.097,4.838
		c-0.736,0.517-1.498,0.735-2.375,0.537C99.271,117.995,99.115,117.96,98.96,117.926z"/>
	<path fill="#F3EC3F" d="M119.863,108.304c5.971-4.195,11.944-3.313,17.919-0.011c-0.154,0.134-0.307,0.267-0.461,0.401
		c-4.544,1.379-9.2,0.319-13.795,0.604c-1.223,0.076-2.567,0.263-3.56-0.83L119.863,108.304z"/>
	<path fill="#F0EF38" d="M140.812,150.221c2.979-3.164,5.958-6.328,8.937-9.493C148.788,145.789,145.118,148.304,140.812,150.221z"
		/>
	<path fill="#F3EC3F" d="M149.803,117.237c-4.022-2.763-8.043-5.526-12.065-8.289l-0.244-0.197l0.13-0.286
		c0,0,0.158-0.171,0.158-0.172c1.244,0.022,2.487,0.045,3.73,0.068c2.33,1.891,4.66,3.783,6.99,5.675
		c0.719-0.273,1.072,0.104,1.288,0.723C149.794,115.585,149.799,116.411,149.803,117.237z"/>
	<path fill="#F5EA20" d="M74.776,176.948c3.666,6.563,8.893,12.775,10.483,19.807c1.174,5.193-7.771,2.975-10.453,6.827
		c-0.544-0.465-0.766-1.056-0.697-1.762c0.101-1.912,1.909-3.099,2.309-4.649c0.888-3.443,1.312-7.096-1.365-10.195
		c-0.479-0.554-0.77-1.261-1.349-1.741c-2.336-2.865-5.42-4.98-7.838-7.763C68.836,177.297,71.806,177.123,74.776,176.948z"/>
	<path fill="#F4EA4B" d="M74.833,201.752c-0.009,0.61-0.018,1.221-0.027,1.83c-5.399,6.318-12.315,8.321-20.35,7.143
		c-3.181-1.111-6.361-2.224-9.542-3.336c-4.916-18.769-0.31-30.108,12.091-29.769c0.427,1.938-1.016,2.665-2.344,3.088
		c-3.564,1.135-5.977,3.552-7.965,6.538c-0.45,0.768-0.833,1.576-1.368,2.293c-1.791,1.762-2.495,6.066-1.11,8.146
		c0.595,0.893,0.905,1.833,1.295,2.776c0.548,1.254-0.113,3.288,2.208,3.398c0.264,0.142,0.499,0.319,0.714,0.526
		c2.181,2.705,4.93,4.277,8.458,4.561c4.811,0.387,9.16-0.29,12.186-4.574c2.191-0.264,2.83-3.395,5.414-2.936
		C74.607,201.54,74.72,201.646,74.833,201.752z"/>
	<path fill="#F9F571" d="M45.576,186.515c3.81-2.965,7.62-5.93,11.43-8.895c2.954-0.049,5.907-0.098,8.861-0.148
		c2.966,2.161,5.932,4.323,8.898,6.485c0.608,0.941,0.305,1.971,0.293,2.973c-1.888,1.363-3.14,0.057-4.325-1.12
		c-5.384-5.352-11.794-6.041-18.098-1.896c-1.233,0.811-2.47,1.61-3.658,2.493C47.931,187.186,46.745,187.703,45.576,186.515z"/>
	<path fill="#F6ED0B" d="M104.805,205.262c0.837-0.666,1.572-1.6,2.525-1.959c28.948-10.912,55.217-26.495,80.404-44.346
		c6.351-4.501,10.242,4.806,14.904,7.944c19.658,13.227,39.918,25.184,62.172,33.54c9.066,5.956,9.391,6.417,6.48,6.901
		c8.422-2.446,15.898,12.378,8.445,9.202c-3.385-1.443-11.707-2.644-14.91-0.503l-9.47,5.703
		c-11.948,5.362-13.9,14.97-20.924,27.931c0.53,0.727-4.624,5.592-7.136,8.533c-3.026,1.988-4.607,5.421-8.183,7.097
		c-4.214,1.976-8.094,1.718-12.232,0.646c-2.89-0.748-5.276-2.638-8.081-3.575c-2.377-0.794-4.085-2.55-5.912-4.135
		c-2.797-2.427-3.638-2.35-6.474-0.013c-4.804,3.96-9.634,7.914-15.947,9.329c-5.466,1.226-10.225-0.045-14.251-3.95
		c-0.832-0.807-1.592-1.688-2.492-2.426c-1.076-0.883-2.268-1.311-3.423-0.29c-1.048,0.927-1.164,2.112-0.614,3.459
		c0.612,1.497,2.086,2.767,1.384,4.659c12.492,8.293,1.845,24.906,12.337,34.681c1.821,1.696-6.87,5.701-11.016,7.284
		c-18.379,7.013-36.68,14.777-55.712,19.348c-13.795,3.313-21.082-10.826-30.795-17.894C48,299.413,37.389,279.836,22.678,263.943
		c-12.107-13.062-13.809-28.464-10.157-45.071c25.699-1.468,51.42-2.8,76.439-9.608"/>
	<path fill="#F6ED0B" d="M233.668,95.036c-12.435,15.905-24.913,31.727-39.894,45.454c-7.353,6.737-9.585-1.63-12.131-4.242
		c-12.339-12.665-23.861-26.123-35.673-39.3c-0.879-0.115-1.072-0.84-1.426-1.491c-2.495-4.591-4.702-9.308-6.474-14.229
		c-0.464-1.288-1.356-2.35-2.105-3.488c-1.031-1.564-1.599-3.213-0.183-4.9c25.817-8.787,52.165-11.248,79.017-6.11
		c9.548,1.827,18.938,4.473,28.4,6.746c1.48,1.928-0.063,3.829-0.609,5.311c-1.831,4.974-3.301,10.202-6.882,14.366
		C235.1,93.861,234.657,94.744,233.668,95.036z"/>
	<path fill="#EEC704" d="M250.828,79.169c-4.237,8.465-8.475,16.93-12.712,25.395c-5.295,5.505-10.589,11.009-15.884,16.514
		c-1.764,3.023-4.052,5.643-6.355,8.252c-1.06,1.059-2.119,2.118-3.179,3.177c-2.978,0.522-4.338-1.064-3.813-4.445
		c0.848-1.059,1.696-2.118,2.544-3.177c3.15-2.778,6.6-5.254,8.894-8.887c4.451-6.771,8.903-13.543,13.354-20.314
		c4.218-5.612,7.138-11.873,9.28-18.524c0.232-0.722,0.52-1.426,1.523-1.17C246.596,77.05,248.712,78.109,250.828,79.169z"/>
	<path fill="#EED107" d="M135.781,72.841c3.396,8.036,6.793,16.072,10.189,24.107c1.058,1.905,2.117,3.809,3.175,5.714
		c-6.149-5.579-8.992-13.214-11.106-20.717C137.238,79.105,126.509,77.906,135.781,72.841z"/>
	<path fill="#EED039" d="M259.665,225.819c18.007-18.772,27.375-34.745,31.365-30.918s-15.492,18.764-26.934,37.732
		c-11.973,19.847-34.285,34.074-38.275,30.247C221.831,259.053,241.658,244.591,259.665,225.819z"/>
	<path fill="#EED107" d="M244.48,75.99c-3.191,6.789-4.893,14.394-10.803,19.694c-0.003-0.216-0.006-0.431-0.009-0.647
		c3.177-7.187,6.354-14.373,9.53-21.559C243.625,74.315,244.053,75.152,244.48,75.99z"/>
	<path fill="#EED039" d="M131.235,238.154c18.393,18.393,34.168,28.092,30.259,32.001c-3.909,3.909-18.438-15.878-37.164-27.713
		c-19.593-12.383-33.354-34.986-29.445-38.895C98.795,199.637,112.842,219.76,131.235,238.154z"/>
	<path fill="#ECC402" d="M317.561,152.19c-6.268,10.41-12.253,21.006-18.919,31.156c-3.596,5.476-8.316,10.224-12.621,15.22
		c-1.069,1.241-2.247,1.342-1.703-0.836c0.525-2.1,1.386-4.117,2.1-6.17c6.356-11.642,12.712-23.283,19.068-34.925
		c3.586-7.04,7.104-14.117,10.803-21.098c1.059-1.998,0.679-6.728,3.513-5.356c2.507,1.215,4.581,5.43,2.787,9.466
		c-1.751,3.939-3.351,7.945-5.018,11.922C317.57,151.777,317.566,151.983,317.561,152.19z"/>
	<path fill="#EED107" d="M208.884,128.062c1.271,1.482,2.542,2.964,3.813,4.445c-4.328,3.291-8.645,6.596-13.006,9.842
		c-0.329,0.245-0.977,0.062-1.477,0.078c0.162-0.862,0.042-1.956,0.531-2.547C202.053,135.882,205.489,131.989,208.884,128.062z"/>
	<path fill="#EED107" d="M186.974,144.187c-2.318,1.213-3.609,2.375-4.177,2.091c-1.543-0.771-2.779-2.154-4.137-3.294
		c0.742-0.69,1.706-2.091,2.185-1.941C182.551,141.577,184.091,142.638,186.974,144.187z"/>
	<path fill="#EED107" d="M220.323,115.998c-2.965,2.962-5.929,5.925-8.894,8.887C214.393,121.923,217.358,118.96,220.323,115.998z"
		/>
	<path fill="#EED107" d="M215.876,129.33c2.118-2.751,4.237-5.501,6.355-8.252C220.113,123.829,217.995,126.58,215.876,129.33z"/>
	<path fill="#E7C012" d="M198.703,261.417c10.391,6.581,19.906,5.377,28.591-3.209c4.478,0.595,4.564,3.587,3.841,7.022
		c-15.503,8.359-3.918,28.469-16.546,38.076c-3.178,1.053-6.357,2.105-9.535,3.158c0.009-1.94,1.668-2.283,2.941-2.833
		c1.866-0.806,3.505-1.935,5.169-3.053c4.657-3.128,5.592-7.941,5.852-13.019c0.108-2.101,0.182-4.218-0.254-6.312
		c-0.935-4.486,0.307-8.078,4.22-10.722c2.002-1.352,3.951-2.836,5.227-4.996c0.787-1.332,1.576-2.825,0.156-3.994
		c-1.45-1.194-2.637,0.168-3.441,1.198c-5.506,7.053-15.92,7.224-23.888,2.032C199.853,263.992,198.345,263.319,198.703,261.417z"/>
	<path fill="#F6ED0B" d="M203.819,307.745c13.794,6.935,27.46,14.14,41.429,20.704c8.479,3.985,17.427,6.97,26.153,10.434
		c0.706,0.28,1.323,0.785,1.982,1.185c-0.365,0.468-0.638,1.075-1.107,1.383c-24.344,16.007-50.611,28.541-78.321,36.758
		c-14.91,4.422-28.506-7.102-42.028-12.954c-14.651-6.341-28.531-14.469-42.684-21.938c-1.283-0.677-2.104-2.227-3.14-3.372
		c1.281-0.769,2.473-1.799,3.856-2.267c21.942-7.428,42.891-16.947,62.546-29.263c1.046-0.656,2.631-0.453,3.966-0.65
		c0.743-0.837,1.656-0.668,2.628-0.543c3.749,0.481,7.516,1.1,11.256,1.28c3.176,0.152,6.467-0.568,9.642-1.326
		C201.357,306.85,202.696,306.538,203.819,307.745z"/>
	<path fill="#C58C07" d="M198.703,261.417c8.505,6.57,17.048,9.279,25.546,0.05c1.529-1.661,3.449-3.057,5.002-1.191
		c0.968,1.164,1.007,4.99,0.218,5.439c-11.326,6.448-8.692,17.542-9.975,27.552c-1.012,7.899-8.412,10.09-14.44,13.197
		c0,0,0.003-0.002,0.003-0.002c-9.941,2.758-19.884,2.991-29.833,0.04c-9.707-1.76-15.594-7.324-16.429-17.304
		c-0.632-7.554,2.525-16.372-7.726-20.188c-1.582-2.978-5.584-6.12-1.455-9.315c3.985-3.083,5.536,1.846,7.992,3.74
		c8.475,6.538,16.662,3.552,23.113-2.58C187.628,254.288,192.912,254.477,198.703,261.417z"/>
	<path fill="#EFD406" d="M278.729,341.033c-9.2-6.386-17.909-7.471-23.2-14.389c-0.155-0.203-0.121-0.551-0.175-0.831
		c0.504-0.02,1.039-0.161,1.509-0.043c7.257,1.822,14.528,3.599,21.739,5.592c1.477,0.408,3.988,2.144,3.875,2.437
		C281.489,336.348,280.011,338.708,278.729,341.033z"/>
	<path fill="#E7C012" d="M175.225,306.501c9.947,1.976,19.891,1.583,29.833-0.04c-0.413,0.428-0.826,0.856-1.238,1.284
		c-9.115,1.962-18.232,1.929-27.35,0.019C176.054,307.343,175.639,306.922,175.225,306.501z"/>
	<path fill="#C78A03" d="M249.76,222.467c3.137-2.671,6.938-4.72,11.483-5.903c9.546-2.265,21.521-1.812,23.446,2.883
		c0.386,4.151-10.922,7.002-14.242,8.99c-2.6,1.232-5.063,2.632-7.247,4.347c-7.604,5.927-12.521,15.322-18.607,18.757
		c-4.509,2.774-9.666,0.342-9.624-5.206c0.032-7.847,8.987-18.523,14.626-23.727L249.76,222.467z"/>
	<path fill="#EFC408" d="M149.79,114.76c-0.429-0.241-0.859-0.482-1.288-0.723c0.441-0.454,0.862-1.271,1.326-1.296
		c1.645-0.087,3.305,0.096,4.959,0.177c-0.634,1.27-1.268,2.54-1.903,3.81C151.853,116.072,150.821,115.416,149.79,114.76z"/>
	<path fill="#FBF9AF" d="M88.657,161.059c-18.779-15.354-0.73-42.583,16.422-50.429c9.786-4.868,21.33-6.221,31.345-2.087
		c14,6.103,18.329,20.104,10.081,34.548c-10.679,19.513-40.12,31.106-57.715,18.07L88.657,161.059z"/>
	<path fill="#FAF679" d="M137.699,109.661c-13.203-3.495-24.066,4.032-35.778,7.571c-0.969,0.293-1.973,0.466-2.961,0.695
		c7.002-3.154,14.004-6.307,21.006-9.46c5.887-0.001,11.773-0.002,17.658-0.003c0.048,0.159,0.087,0.32,0.114,0.484
		C137.725,109.186,137.712,109.424,137.699,109.661z"/>
	<path fill="#FCF581" d="M90.017,162.377c7.854,0.003,15.709,0.007,23.563,0.01c-2.987,1.035-5.975,2.07-8.963,3.105
		C99.486,165.692,94.335,165.983,90.017,162.377z"/>
	<path fill="#F8F473" d="M128.158,156.62c0.634-2.763,2.481-3.577,5.092-3.163C131.552,154.512,129.855,155.566,128.158,156.62z"/>
	<path fill="#F4EA4B" d="M74.743,187.156c0.007-1.066,0.014-2.132,0.021-3.198c3.96,5.916,4.882,11.844,0.069,17.794
		c0,0-0.1-0.085-0.1-0.085c-0.78-0.708-0.904-1.628-0.845-2.606c-0.007-0.308,0.024-0.614,0.085-0.916
		c1.536-3.353,0.754-6.788,0.349-10.211C74.4,187.642,74.539,187.381,74.743,187.156z"/>
	<path fill="#FBF8B0" d="M74.152,187.676c5.292,10.456-5.146,22.906-16.351,21.479c-12.267-1.112-18.631-14.345-10.336-23.596
		c6.768-7.965,21.681-7.518,26.604,1.957L74.152,187.676z"/>
	<path fill="#FAF881" d="M44.913,189.011c0.009,3.174,0.017,6.348,0.026,9.522c0.427,0.867,0.469,1.729-0.03,2.585
		C42.863,197.082,39.353,193.045,44.913,189.011z"/>
	<path fill="#F9F571" d="M69.707,204.896c0.01-0.403,0.021-0.806,0.031-1.209c1.683-1.714,3.366-3.428,5.048-5.143
		c-0.017,1.041-0.035,2.082-0.053,3.123C73.057,202.743,71.382,203.82,69.707,204.896z"/>
	<path fill="#F9EC8A" d="M44.909,201.118c0.01-0.862,0.02-1.723,0.029-2.585c0.827,1.924,1.653,3.848,2.479,5.772
		C43.935,205.322,45.307,202.524,44.909,201.118z"/>
	<path fill="#C88A03" d="M121.683,216.911c8.833,3.129,16.065,10.374,20.924,18.331c2.164,3.667,4.371,7.955,3.7,12.102
		c-0.458,3.314-3.362,5.578-6.592,5.141c-6.793-0.978-9.896-8.219-14.428-13.228c-3.698-4.372-8.299-7.981-13.589-10.227
		c-4.577-2.3-13.056-2.902-14.553-8.46c0.773-8.539,18.858-5.787,24.338-3.73L121.683,216.911z"/>
	<path fill="#F9F571" d="M74.788,198.542c-0.004-3.597-0.009-7.194-0.013-10.79C76.326,191.346,76.632,194.943,74.788,198.542z"/>
	<path fill="#FCFDFA" d="M168.264,289.297c-6.169-10.286,15.927-23.687,26.563-18.976c6.164,5.362,19.375,4.429,15.595,18.742
		c-1.311,4.964-4.196,6.338-7.884,7.898c-8.267,1.352-16.533,2.481-24.8,0.004c-0.402-0.021-0.804-0.043-1.205-0.064
		C172.528,295.722,169.241,293.763,168.264,289.297z"/>
</g>
</svg>
