<?xml version="1.0" encoding="utf-8"?>
<!-- Generator: Adobe Illustrator 28.4.1, SVG Export Plug-In . SVG Version: 6.00 Build 0)  -->
<svg version="1.1" baseProfile="basic" id="Layer_1"
	 xmlns="http://www.w3.org/2000/svg" xmlns:xlink="http://www.w3.org/1999/xlink" x="0px" y="0px" viewBox="0 0 404.31 401.583"
	 xml:space="preserve">
<path fill="#25601D" d="M8.322,196.305C8.322,89.254,95.104,2.472,202.155,2.472s193.833,86.782,193.833,193.833
	s-86.782,193.833-193.833,193.833S8.322,303.355,8.322,196.305L8.322,196.305z"/>
<path fill="#25601D" d="M0,196.305C0,82.933,88.935,0,200.582,0C312.229,0,404.31,82.933,404.31,196.305
	s-90.508,205.278-202.155,205.278S0,309.677,0,196.305L0,196.305z"/>
<path fill="#5CC50A" d="M356.85,198.396c0,103.1-77.592,186.68-173.307,186.68S10.236,301.497,10.236,198.396
	s77.592-186.68,173.307-186.68S356.85,95.296,356.85,198.396L356.85,198.396z"/>
<path fill="#1E9509" d="M392.494,229.353c0,0-4.145,45.246-23.404,57.406c-33.547,21.179-58.899,33.17-122.772,33.17
	c-5.451,0-16.236-8.12-31.275-9.912c-25.655-3.057-60.26-1.4-77.051-8.879c-22.791-10.152-44.479-39.226-62.382-45.606
	c-44.921-16.008-62.02-9.956-62.02-9.956L8.67,207.83c0,0,46.53,18.04,88.659,15.344c28.184-1.804,46.333,20.47,70.932,30.868
	c10.117,4.276,27.447-7.65,38.598-7.65c26.301,0,51.545,11.389,74.486,9.667C346.098,251.198,392.494,229.353,392.494,229.353
	L392.494,229.353z"/>
<path fill="#1E9509" d="M392.494,157.344l5.195,49.309c0,0-9.126-14.85-30.332-20.509c-20.212-5.394-49.264-23.326-78.865-23.429
	c-22.974-0.079-39.818,12.333-55.737,9.555c-32.948-5.75-35.609-14.926-59.973-14.926c-103.514,0-162.318,12.555-162.318,12.555
	l6.103-30.602c0,0,84.867-24.506,148.359-32.179c18.047-2.181,26.124,3.593,40.139,3.593c19.643,0,38.581-10.876,56.373-8.154
	C337.406,114.176,392.494,157.344,392.494,157.344z"/>
<path fill="#1E9509" d="M374.558,98.157c0,0-75.108-39.458-172.183-39.458c-25.837,0-44.088,11.988-67.489,21.685
	c-14.141,5.86-26.095,3.622-38.941,10.559c-45.766,24.713-81.894,61.022-81.894,61.022s7.845-43.145,35.002-75.253
	C83.269,36.256,160.81,15.653,214.931,15.653c44.341,0,124.886,39.186,124.886,39.186L374.558,98.157z"/>
<path fill="#1F8409" d="M290.261,370.971c0,0-60.957,28.332-124.653,20.626C89.619,382.404,48.129,315.37,48.129,315.37
	s43.755,22.409,79.814,42.149c15.192,8.317,39.293,15.615,67.552,19.239C240.365,382.513,290.261,370.971,290.261,370.971
	L290.261,370.971z"/>
<path fill="#FFFFFE" d="M316.629,50.17c13.482,11.248,37.815,39.337,30.9,51.95s-38.975,2.058-52.457-9.19
	c-13.482-11.248-22.29-27.677-15.375-40.289C286.612,40.028,303.147,38.922,316.629,50.17L316.629,50.17z"/>
<path fill="#FFFFFE" d="M340.692,135.518c0-7.323,5.936-13.259,13.26-13.259c7.323,0,13.259,5.936,13.259,13.259
	c0,7.323-5.936,13.26-13.259,13.26C346.628,148.777,340.692,142.841,340.692,135.518z"/>
<g>
	<path fill="none" stroke="#000000" stroke-width="4" stroke-linecap="round" stroke-miterlimit="10" d="M132.019,166.546"/>
	<path fill="none" stroke="#000000" stroke-width="4" stroke-linecap="round" stroke-miterlimit="10" d="M104.882,190.208"/>
</g>
<path fill="none" stroke="#000000" stroke-width="4" stroke-linecap="round" stroke-miterlimit="10" d="M217.686,197.456"/>
<path fill="#194D03" d="M260.949,163.896c10.722-32.928,67.599-12.397,47.359,21.431
	C294.701,209.963,254.273,190.833,260.949,163.896z"/>
<path fill="#194D03" d="M212.84,215.305c5.226-5.976,12.852-16.543,19.41-19.148c5.602-1.69,3.924,4.555,0.846,10.131
	c-2.428,4.392-5.891,9.116-8.983,13.62c-5.039,6.603-12.968,19.506-22.339,16.407c-5.079-1.764-9.952-8.326-14.886-14.321
	c-4.163-5.498-14.697-18.036-12.121-24.826c1.018-1.82,3.843-1.418,7.238,1.168c4.184,3.148,7.846,8.101,11.125,12.31
	c6.333,8.329,11.683,14.315,19.572,4.812L212.84,215.305z"/>
<path fill="#194D03" d="M116.539,176.442c6.246-2.148,15.216-6.168,10.157-11.162c-5.527-5.593-20.512-10.9-29.116-15.281
	c-3.813-1.662-21.907-11.618-13.608-14.417c10.663-0.82,22.404,6.401,35.288,12.036c9.353,5.096,36.374,14.189,34.641,23.593
	c-2.913,11.839-45.159,19.269-57.402,22.132c-6.933,1.382-19.698,3.391-15.262-1.768c6.027-6.054,24.885-11.616,35.08-15.052
	L116.539,176.442z"/>
</svg>
