<?xml version="1.0" encoding="utf-8"?>
<!-- Generator: Adobe Illustrator 28.4.1, SVG Export Plug-In . SVG Version: 6.00 Build 0)  -->
<svg version="1.1" baseProfile="basic" id="Layer_1"
	 xmlns="http://www.w3.org/2000/svg" xmlns:xlink="http://www.w3.org/1999/xlink" x="0px" y="0px" viewBox="0 0 668.7 801.3"
	 xml:space="preserve">
<g>
	<path fill="#FFD58F" fill-opacity="0.2742" d="M12.746,789.357l47.6-68.5h539.779l58.626,66.4"/>
	<g>
		<path opacity="0.73" fill="#F5FFD0" fill-opacity="0.2742" d="M60.346,720.857l-2.9-710.9h538.4l1.3,710.9H60.346L60.346,720.857z
			"/>
		<path fill="#FFD0F6" fill-opacity="0.1329" d="M12.746,789.357l-3-691.7l47.7-87.7l2.8,710.9L12.746,789.357z"/>
		<path fill="#FFD0F6" fill-opacity="0.1329" d="M597.246,720.857l-1.3-709.8l61.1,80.7l6.8,701L597.246,720.857z"/>
		<g>
			<path opacity="0.16" fill="#FFFFFF" d="M15.254,795.257c-7,0-16.4-1.8-16.4-17.7v-675.5c0-7.7,9-14.1,20.1-14.1
				c28.7,0,129.7-0.1,246.6-0.3c145.6-0.2,310.7-0.5,369-0.5c9.4,0,17,6.7,17,14.9c0,26.5-0.3,131.5-0.6,253.2
				c-0.5,168.1-1,358.6-1,424.6c0,10.8-9.3,13-17,13c-21.8,0-111.7,0.4-215.8,0.9C267.254,794.457,80.654,795.257,15.254,795.257z"
				/>
			<path fill="#EDD376" d="M644.746,95.157c5.4,0,9,3.6,9,6.9c0,26.4-0.3,131.5-0.6,253.2c-0.5,168.1-1,358.6-1,424.6
				c0,2.4-0.6,2.9-1.1,3.2c-1.2,0.9-3.9,1.8-8,1.8c-21.8,0-111.7,0.4-215.8,0.9c-149.9,0.7-336.5,1.5-402,1.5c-1.8,0-5-0.2-6.4-1.7
				c-1.2-1.3-2-4.3-2-8v-675.5c0-2.4,4.8-6.1,12.1-6.1c28.7,0,129.7-0.1,246.6-0.3C421.446,95.457,586.446,95.157,644.746,95.157
				 M644.746,79.157c-104.3,0-550.5,0.8-615.6,0.8c-15.5,0-28.1,9.6-28.1,22.1c0,61.9,0,556.5,0,675.5c0,16.4,8.8,25.7,24.4,25.7
				c110.8,0,564.5-2.3,617.8-2.3c13.1,0,25-6.1,25-21c0-114.7,1.6-615.5,1.6-677.8C669.746,89.557,658.746,79.157,644.746,79.157
				L644.746,79.157z"/>
		</g>
		<path fill="none" stroke="#EDD376" stroke-width="16" stroke-linecap="round" stroke-miterlimit="10" d="M9.746,97.657
			c0,0,34.8-72.8,41-83.1c1.5-2.4,4.3-4.6,6.7-4.6c26.6,0,477.3,0,533.4,0c3.7,0,7.3,1.7,9.1,3.8c8.2,9.2,57.1,78,57.1,78"/>
	</g>
</g>
</svg>
