<?xml version="1.0" encoding="utf-8"?>
<!-- Generator: Adobe Illustrator 28.4.1, SVG Export Plug-In . SVG Version: 6.00 Build 0)  -->
<svg version="1.1" baseProfile="basic" id="Layer_1"
	 xmlns="http://www.w3.org/2000/svg" xmlns:xlink="http://www.w3.org/1999/xlink" x="0px" y="0px" viewBox="0 0 598.24 413.271"
	 xml:space="preserve">
<path fill="#F6D273" d="M147.18,407.939c-10.377,0.101-20.601-1.698-30.198-5.623c-17.107-7.024-34.751-16.927-45.194-32.055
	c-5.037-7.211-8.24-15.634-13.009-22.985c-5.613-9.128-13.709-16.545-21.894-23.53c-9.895-8.93-18.634-18.138-25.061-30.86
	c-11.265-23.633-16.27-51.329-6.954-76.359c3.391-9.748,7.808-19.246,13.711-27.744c5.676-8.344,13.496-15.185,19.872-22.921
	c6.781-7.901,11.63-17.14,16.915-26.053c7.038-11.564,16.605-21.373,27.549-29.452c7.789-5.666,15.81-11.088,22.663-17.891
	c6.775-6.497,12.587-13.939,18.966-20.848c6.58-7.031,13.512-13.769,20.659-20.178c15.468-13.929,31.736-23.481,50.595-31.072
	c31.87-13.53,68.844-20.776,103.829-20.352c24.351,0.109,48.915,1.545,72.754,6.917c31.719,7.241,62.617,22.153,86.157,45.45
	c9.082,8.953,23.152,17.35,31.582,26.705c9.708,10.445,16.293,18.2,27.324,27.146c11.325,9.5,18.715,22.54,27.766,34.03
	c7.052,9.098,15.273,17.219,22.767,25.951c10.649,12.318,18.319,27.145,23.643,42.362c3.331,9.409,6.162,19.141,6.532,29.175
	c1.119,24.086-8.66,48.274-24.536,66.294c-15.948,18.152-37.724,30.363-52.203,49.976c-8.618,10.703-17.04,21.465-28.064,29.964
	c-9.047,6.885-23.108,16.584-32.537,7.241c-9.586-13.854,8.666-27.611,17.689-36.864c7.076-7.023,13.585-14.554,20.094-22.107
	c8.488-9.856,17.005-19.746,26.647-28.512c16.821-14.853,35.535-27.467,38.399-51.067c3.71-27.979-10.645-56.318-29.301-76.222
	c-5.099-5.422-10.565-10.523-15.367-16.212c-5.373-6.202-9.676-13.318-14.792-19.518c-7.68-9.787-18.608-15.682-28.6-22.995
	c-7.082-5.288-13.155-11.63-18.89-18.296c-14.217-16.533-27.311-35.037-46.293-46.426c-4.594-2.66-9.539-4.698-14.629-6.326
	c-83.829-25.279-190.587-17.324-254.296,52.59c-7.228,8.006-14.334,16.291-22.323,23.463c-6.025,5.521-12.452,10.596-18.502,16.094
	c-22.85,20.771-39.83,46.738-55.72,72.676c-3.402,5.77-6.56,11.818-8.667,18.08c-7.126,19.885,0.429,41.616,13.176,57.551
	c8.973,11.504,20.452,20.674,30.026,30.885c6.132,6.464,11.218,13.654,16.144,21.098c16.556,26.719,33.115,36.685,64.749,39.636
	c7.371,0.744,15.045,0.63,22.219,2.419c12.557,2.684,19.286,15.761,5.608,22.332c-5.294,2.418-11.249,2.741-17.518,3.287
	c-7.746,0.556-15.522,1.127-23.287,1.143L147.18,407.939z"/>
<path fill="#F5CC67" d="M474.819,381.964c7.459,10.604-4.536,18.04-14.907,19.961c-21.156,5.085-45.333-0.723-66.884-3.813
	c-10.942-1.411-21.506,0.697-31.53,4.851c-26.192,11.49-50.728,12.186-79.644,7.848c-7.562-0.961-15.553-2.102-23.029-2.304
	c-9.057-0.324-17.709,1.329-26.532,2.614c-4.603,0.641-9.219,1.058-13.86,0.746c-8.621-0.546-16.804-3.686-25.336-4.477
	c-6.332-0.7-12.7-0.296-19.029,0.422c-10.355,1.182-37.962,4.207-42.757-5.347c-0.574-2.122,1.874-3.976,3.939-4.853
	c9.054-3.995,20.946-1.694,30.961-3.182c12.68-1.133,19.301-12.068,30.838-15.782c9.115-2.61,19.242-1.341,28.717-1.854
	c14.313-0.442,28.663-2.585,42.867-0.498c9.875,1.292,19.58,3.931,29.462,5.123c16.072,2.242,31.776-1.702,46.381-7.777
	c35.947-14.833,42.584-9.493,78.368-2.809c4.781,0.649,9.609,0.914,14.443,0.945c12.89-0.228,29.329-0.536,37.434,10.05
	L474.819,381.964z"/>
<path fill="#FAE79C" d="M270.764,390.082c-11.501-2.466-22.9,0.844-34.884,0.722c-11.234-0.215-22.422-2.685-33.65-3.354
	c-26.341-1.917-54.725,2.772-79.397-9.142c-17.658-8.385-29.792-19.343-37.525-37.343c-5.919-13.814-14.944-20.73-26.648-29.524
	c-14.663-11.846-29.473-29.899-33.581-48.275c-2.106-9.832-2.065-20.923-1.4-31.43c0.624-12.503,3.855-25.083,11.624-35.162
	c7.288-10.114,18.726-17.675,25.891-27.725c5.021-6.941,8.143-14.917,12.531-22.221c8.826-16.181,26.585-24.186,40.177-35.534
	c11.007-9.405,18.635-22.182,29.33-31.921c25.729-23.303,57.498-41.211,91.071-50.465c15.052-4.154,30.72-5.557,46.258-6.417
	c7.297-0.678,14.496-1.757,21.795-2.118c12.262-0.929,24.255,0.923,36.626,1.705c7.943,0.459,16.004,0.507,23.847,1.829
	c14.881,2.475,26.773,12.137,38.547,20.862c18.306,12.623,34.11,27.705,43.254,48.211c7.532,17.57,11.73,26.671,29.079,36.512
	c17.601,9.532,30.763,24.548,43.239,39.756c5.409,6.479,10.852,12.81,15.162,20c14.293,23.886,9.818,59.186-7.369,81.547
	c-8.495,11.025-18.853,20.565-27.127,31.793c-11.34,14.27-18.333,32.539-30.135,45.815c-11.239,12.944-27.044,20.205-43.425,24.702
	c-23.066,7.658-25.984,6.804-49.152,4.503c-6.381-0.41-12.293,1.445-18.027,4.208c-10.16,4.757-20.136,10.028-31.441,11.948
	c-8.459,1.354-17.073,2.208-25.651,2.014c-10.259-0.264-19.196-3.652-28.845-5.464L270.764,390.082z"/>
<path fill="#F9F0C6" d="M404.071,376.582c31.711-34.563,60.429-21.402,78.918-85.044c25.778-18.951,51.349-39.383,47.081-75.166
	c-6.727-35.713-39.334-65.177-72.188-80.001c-27.716-6.386-20.457-39.741-37.265-57.075c-6.257-12.3-55.676-45.991-14.945-38.216
	c65.666,49.603,248.3,175.924,139.767,259.345C500.38,328.622,467.869,404.873,404.071,376.582z"/>
<path fill="#8B7367" d="M171.278,200.22c-0.333-11.626,12.513-18.731,22.719-14.326c11.908,5.308,13.174,19.98,1.885,26.749
	c-10.519,6.853-24.432,0.684-24.602-12.225L171.278,200.22z"/>
<path fill="#F0B198" d="M441.783,221.966c4.643,6.157,1.914,15.977-3.703,19.482c-5.128,3.522-12.367,2.455-17.162-1.217
	c-8.442-6.065-6.575-18.904,2.147-23.045c5.737-2.967,14.64-0.965,18.62,4.644L441.783,221.966z"/>
<path fill="#8B7367" d="M362.777,199.151c0.414-8.362,8.34-14.994,16.623-14.175c16.149,1.138,21.705,22.123,6.474,29.329
	c-10.726,5.022-23.994-2.673-23.11-14.953L362.777,199.151z"/>
<path fill="#F0B198" d="M157.539,221.966c4.643,6.157,1.914,15.977-3.703,19.482c-5.128,3.522-12.367,2.455-17.162-1.217
	c-8.442-6.065-6.575-18.904,2.147-23.045c5.737-2.967,14.64-0.965,18.62,4.644L157.539,221.966z"/>
<path fill="#7E6469" d="M303.516,222.351c-0.972-6.341-10.609-3.648-9.643,2.658c0.5,3.264-3.525,9.271-6.19,9.13
	c-3.861-0.205-6.661-6.688-5.658-9.961c1.889-6.167-7.76-8.804-9.643-2.658c-2.927,9.555,3.658,19.547,13.85,19.872
	C296.217,241.71,305.012,232.109,303.516,222.351z"/>
</svg>
