<?xml version="1.0" encoding="utf-8"?>
<!-- Generator: Adobe Illustrator 28.4.1, SVG Export Plug-In . SVG Version: 6.00 Build 0)  -->
<!DOCTYPE svg PUBLIC "-//W3C//DTD SVG 1.1//EN" "http://www.w3.org/Graphics/SVG/1.1/DTD/svg11.dtd" [
	<!ENTITY ns_extend "http://ns.adobe.com/Extensibility/1.0/">
	<!ENTITY ns_ai "http://ns.adobe.com/AdobeIllustrator/10.0/">
	<!ENTITY ns_graphs "http://ns.adobe.com/Graphs/1.0/">
	<!ENTITY ns_vars "http://ns.adobe.com/Variables/1.0/">
	<!ENTITY ns_imrep "http://ns.adobe.com/ImageReplacement/1.0/">
	<!ENTITY ns_sfw "http://ns.adobe.com/SaveForWeb/1.0/">
	<!ENTITY ns_custom "http://ns.adobe.com/GenericCustomNamespace/1.0/">
	<!ENTITY ns_adobe_xpath "http://ns.adobe.com/XPath/1.0/">
]>
<svg version="1.1" id="Layer_1" xmlns:x="&ns_extend;" xmlns:i="&ns_ai;" xmlns:graph="&ns_graphs;"
	 xmlns="http://www.w3.org/2000/svg" xmlns:xlink="http://www.w3.org/1999/xlink" x="0px" y="0px" viewBox="0 0 294.611 309.611"
	 enable-background="new 0 0 294.611 309.611" xml:space="preserve">
<metadata>
	<sfw  xmlns="&ns_sfw;">
		<slices></slices>
		<sliceSourceBounds  bottomLeftOrigin="true" height="1860.713" width="2201.936" x="-920.789" y="-2081.878"></sliceSourceBounds>
	</sfw>
</metadata>
<g>
	<path fill="#B0881C" d="M278.272,96.081c49.613,89.36-20.294,209.123-121.766,212.906C31.653,320.75-48.049,163.39,32.492,68.917
		c29.076-34.001,73.71-56.519,119.294-54.08c9.545-3.853,18.101-16.814,30.417-14.58C126.318,31.66,233.216-1.68,278.272,96.081z"/>
	<path fill="#F2E8F2" d="M1.187,138.823c0.073,0.113,0.145,0.226,0.218,0.34c-0.073,0.037-0.145,0.074-0.218,0.111
		C1.186,139.123,1.186,138.973,1.187,138.823z"/>
	<path fill="#FAF09B" d="M77.348,39.91c0.309-0.1,0.618-0.2,0.927-0.299c0.54-0.112,0.842-0.559,1.234-0.879
		c0.301-0.088,0.601-0.175,0.902-0.263c0.59-0.038,0.882-0.509,1.254-0.864c0.297-0.08,0.595-0.16,0.892-0.24
		c1.2-0.248,2.028-1.114,2.971-1.788c0.46-0.129,0.919-0.259,1.379-0.388c0.609-0.002,0.901-0.489,1.282-0.841
		c0.31-0.078,0.621-0.155,0.931-0.233c0.578-0.031,0.864-0.505,1.253-0.823c0.298-0.091,0.597-0.181,0.895-0.272
		c1.233-0.451,2.434-0.966,3.511-1.732c0.358-0.089,0.716-0.179,1.074-0.268c1.652-0.613,3.498-0.742,4.907-1.963
		c0.361-0.061,0.721-0.123,1.082-0.184c1.635-0.489,3.424-0.509,4.864-1.594c1.276-0.386,2.553-0.772,3.829-1.158
		c0.418,0.062,0.772-0.099,1.112-0.313c0.361-0.063,0.722-0.126,1.082-0.188c1.04,0.163,1.866-0.4,2.738-0.807
		c0.54-0.088,1.079-0.175,1.619-0.263c6.006-0.673,11.953-1.743,17.918-2.69c0.552-0.028,1.103-0.055,1.655-0.083
		c1.628-0.078,3.306,0.445,4.871-0.402c0.733,0.003,1.467,0.005,2.2,0.008c0.899,0.612,1.799,0.605,2.701,0.008
		c0.365-0.003,0.73-0.007,1.096-0.01c1.127,1.255,0.024,2.254-0.382,3.333c-0.006,0.152-0.05,0.293-0.133,0.421
		c-0.6,0.428-0.654,1.155-0.961,1.745c-0.004,0.15-0.046,0.289-0.128,0.416c-1.94,2.694-2.787,5.711-2.764,9.019
		c0.01,1.386,0.576,2.264,1.922,2.479c1.37,0.219,1.879-0.7,2.143-1.861c0.237-1.041,0.848-1.986,0.797-3.102
		c0.141-0.415,0.282-0.831,0.423-1.246c0.377-0.057,0.607-0.223,0.48-0.651c0.128-0.459,0.255-0.918,0.383-1.377
		c0.673-0.947,1.532-1.783,1.802-2.974c0.102-0.289,0.205-0.577,0.307-0.866c1.601-1.478,2.159-3.858,4.247-4.915
		c1.279,0.027,2.558,0.054,3.838,0.081c0.99,0.815,2.162,0.375,3.257,0.472c0.532,0.047,1.063,0.095,1.595,0.142
		c4.174,0.718,8.324,1.588,12.541,2.042c0.533,0.075,1.066,0.15,1.598,0.226c2.047,1.129,4.305,1.522,6.573,1.877
		c0.736,0.206,1.473,0.412,2.209,0.618c1.452,1.028,3.144,1.336,4.845,1.617c0.362,0.056,0.724,0.112,1.087,0.167
		c2.423,2.091,5.662,2.163,8.428,3.407c0.823,0.304,1.645,0.609,2.468,0.913c0.944,0.999,2.23,1.376,3.439,1.893
		c0.31,0.081,0.62,0.162,0.93,0.243c1.437,0.926,2.83,1.931,4.481,2.467c0.163,0.018,0.312,0.075,0.446,0.171
		c0.447,0.551,1.055,0.809,1.726,0.953c0.152,0.023,0.289,0.08,0.413,0.172c0.683,0.63,1.485,1.068,2.321,1.454
		c0.153,0.021,0.292,0.077,0.416,0.168c0.376,0.348,0.686,0.782,1.222,0.917c0.153,0.012,0.294,0.059,0.423,0.14
		c0.909,0.741,1.785,1.533,2.914,1.944c0.29,0.101,0.581,0.203,0.871,0.304c0.376,0.331,0.732,0.688,1.203,0.891
		c0.499,0.275,0.997,0.55,1.496,0.825c0.603,0.425,1.09,0.991,1.697,1.411l0.016,0.014c0.314,0.418,0.603,0.868,1.192,0.935
		c0.163,0.018,0.311,0.076,0.443,0.174c0.52,0.806,1.296,1.264,2.17,1.588c0.536,0.381,1.073,0.762,1.609,1.142
		c0.358,0.601,1.088,0.68,1.564,1.116c0.382,0.356,0.763,0.712,1.145,1.068c0.34,0.385,0.669,0.783,1.154,1.002
		c0.161,0.045,0.307,0.12,0.437,0.225c0.572,0.664,0.804,1.662,1.837,1.876c0.546,0.159,0.909,0.508,1.085,1.05
		c0.113,0.625,0.468,1.005,1.11,1.092c0.146,0.017,0.276,0.073,0.388,0.168c0.663,0.787,1.306,1.596,2.239,2.095
		c0.175,0.189,0.35,0.378,0.526,0.567c0.388,0.687,0.928,1.223,1.614,1.611l0.039,0.039c0.539,0.876,1.294,1.545,2.09,2.174
		c0.192,0.204,0.384,0.409,0.576,0.613c0.187,0.492,0.543,0.823,1.006,1.051c1.173,0.885,2.29,1.819,2.863,3.235
		c1.266,1.763,3.042,3.098,4.168,4.978c1.523,2.13,3.486,3.958,4.438,6.478c2.58,8.073,5.694,16.034,5.173,24.758
		c-0.049,0.813-0.007,1.639,0.218,2.43c2.529,8.923,1.826,17.871,0.146,26.808c-0.323,1.716-0.387,3.417-0.367,5.134
		c0.067,5.813-0.026,11.603-1.916,17.198c-0.174,0.514-0.273,1.075-0.219,1.61c0.626,6.189-2.027,11.638-3.88,17.266
		c-0.199,0.605-0.394,1.205-0.45,1.842c-0.75,8.515-4.745,15.83-8.676,23.142c-1.092,2.032-3.019,3.24-5.288,4.007
		c-5.663,1.913-9.84,7.468-9.401,13.407c0.445,6.022-2.969,10.122-6.209,14.24c-5.12,6.507-11.983,11.198-18.277,16.478
		c-3.109,2.608-5.986,5.449-9.309,7.856c-4.199,3.042-8.382,5.974-13.246,7.849c-1.437,0.554-2.745,1.395-4.034,2.241
		c-3.696,2.424-6.588,2.342-10.271,0.046c-1.663-1.037-3.342-2.176-5.36-2.54c-5.195-0.938-8.201,2.326-9.952,7.204
		c-1.273,3.548-2.876,5.095-6.583,5.219c-9.678,0.323-19.357,0.053-29.035,0c-0.726-0.004-1.511,0.084-2.15-0.23
		c-4.063-1.994-8.498-1.524-12.784-1.887c-2.342-0.198-4.305-1.331-6.448-1.958c-5.077-1.485-9.987-3.681-15.044-5.098
		c-6.356-1.781-10.558-6.901-16.424-9.199c-5.998-2.349-11.167-6.602-17.312-8.331c-9.152-2.576-16.094-8.138-22.672-14.5
		c-1.577-1.525-3.665-2.318-5.418-3.599c-4.508-6.404-7.808-13.466-10.582-20.718c-2.481-6.487-4.51-13.16-5.914-20.001
		c-1.638-7.984-3.149-15.959-3.136-24.173c0.015-9.603-0.352-19.253,1.369-28.723c1.534-8.437,3.686-16.764,6.535-24.897
		c4.71-13.444,11.641-25.681,19.994-37.13c5.991-8.211,13.098-15.402,20.79-22.063c3.767-3.262,7.713-6.256,11.674-9.251
		c0.606,0.015,0.885-0.485,1.274-0.811c1.589-0.98,3.178-1.96,4.767-2.94c0.847-0.339,1.648-0.753,2.289-1.422
		c0.135-0.089,0.282-0.143,0.443-0.161C76.587,40.532,76.952,40.197,77.348,39.91z"/>
	<path fill="#F5E25F" d="M258.525,247.37c0.236,0.165-23.974,23.994-23.849,24.252c-4.556,3.716-9.547,6.79-14.521,9.898
		c-10.571,6.604-21.868,11.618-33.815,15.066c-16.186,4.672-32.66,6.407-49.55,5.143c-9.443-0.706-18.668-2.253-27.705-4.766
		c-11.791-3.279-22.991-8.057-33.554-14.379c-12.22-7.314-23-16.301-32.63-26.723c-5.535-5.99-10.34-12.549-14.686-19.441
		c-0.665-1.055-1.411-2.119-1.597-3.419c2.582,0.271,4.562,1.527,6.339,3.417c2.652,2.822,5.592,5.188,9.066,7.17
		c2.625,1.498,5.344,3.269,7.728,5.317c0.422,0.362,0.785,0.81,1.362,0.777c2.285-0.127,4.191,0.757,6.278,1.644
		c4.079,1.734,7.589,4.613,11.723,5.96c2.349,0.766,4.024,2.853,6.606,2.879c0.69,0.007,1.067,0.512,1.561,0.928
		c2.899,2.445,5.743,4.697,9.664,5.82c2.515,0.72,5.518,1.24,7.666,3.244c0.126,0.117,0.322,0.237,0.48,0.23
		c3.602-0.168,6.601,1.931,9.839,2.937c4.967,1.544,10.286,0.726,14.867,2.305c5.44,1.876,10.691,0.66,15.965,1.337
		c6.225,0.799,12.431-0.34,18.652-0.062c2.902,0.13,4.711-1.655,5.07-4.536c0.816-6.546,8.308-9.787,14.12-6.665
		c2.424,1.302,4.476,3.788,8.033,3.248c2.438-0.37,3.85-2.022,5.794-2.929c3.532-1.646,7.183-3.07,10.434-5.384
		c1.859-1.323,3.521-2.978,5.377-4.072c2.254-1.328,4.072-2.972,5.986-4.64c3.864-3.366,7.683-6.827,11.841-9.799
		c4.002-2.86,7.146-6.67,10.132-10.262c2.733-3.288,6.452-7.242,4.991-12.666c-1.343-4.988,2.636-7.956,4.856-11.385
		c0.698-1.078,2.831-2.538,4.952-2.838c2.887-0.408,4.615-2.445,5.957-4.93c2.71-5.02,4.594-10.378,6.703-15.65
		c0.515-1.289,0.996-2.469,0.928-3.863c-0.094-1.917,0.782-3.644,1.155-5.415c0.963-4.573,3.916-8.665,3.223-13.64
		c-0.563-4.043,2.101-7.64,1.856-11.677c-0.021-0.344,0.247-0.704,0.236-1.051c-0.388-11.929,3.542-23.821,1.378-35.594
		c-1.061-5.775,0.088-11.833-2.141-17.134c-1.438-3.418,2.425,3.101,0,0c-0.675-0.863-3.434-13.062-3.485-14.414
		c3.44,3.093,5.162,7.337,7.422,11.204c6.753,11.554,11.424,23.974,14.401,36.97c1.585,6.92,2.791,13.944,3.298,21.087
		c0.527,7.421,0.461,14.811-0.128,22.194c-0.746,9.362-2.229,18.613-4.946,27.636c-3.206,10.647-7.142,20.98-12.962,30.513
		c-0.269,0.44-0.72,0.768-1.087,1.149c-0.975,0.698-1.767,0.369-2.219-0.586c-1.526-3.223,16.936-22.428,0.896,4.899"/>
	<path fill="#B0881C" d="M84.624,139.483c17.34-1.414,19.852,24.711,5.649,30.697C66.851,178.363,63.912,140.076,84.624,139.483z"/>
	<path fill="#B0881C" d="M194.256,154.949c-1.188-15.892,20.964-21.991,26.586-7.048
		C232.974,171.401,195.657,182.013,194.256,154.949z"/>
	<path fill="#F5E25F" d="M128.354,217.382c10.132,0.55,15.603,13.135,8.99,20.883c-5.538,7.393-17.965,5.794-21.639-2.589
		c-3.842-8.248,3.219-19.068,12.451-18.306L128.354,217.382z"/>
	<path fill="#B0881C" d="M164.757,177.958c4.146,1.477,8.74,1.892,12.912,0.29c2.237-0.804,4.632-1.82,6.101-1.608
		c0.493,0.054,0.946,0.24,1.197,0.636c1.038,4.079-7.168,6.731-10.604,7.003c-2.846,0.311-5.768,0.244-8.484,1.228
		c-3.255,1.119-6,3.938-9.463,5.194c-6.587,2.296-14.947,2.418-20.852-0.92c-2.848-1.704-5.284-4.297-8.528-5.201
		c-1.73-0.542-3.64-0.618-5.471-0.644c-3.671-0.018-7.536-0.629-10.482-2.498c-1.669-0.867-4.397-4.545-0.998-4.785
		c1.502-0.053,3.42,0.756,4.968,1.319c5.124,2.155,10.559,1.063,15.645-0.708c13.35-4.64,20.666-4.506,33.87,0.632L164.757,177.958z
		"/>
	<path fill="#F5E25F" d="M43.377,194.015c7.444-0.12,13.789,7.673,11.701,14.924c-2.866,10.331-18.37,11.54-22.328,1.161
		c-3.076-7.222,2.372-16.141,10.426-16.083L43.377,194.015z"/>
	<path fill="#F5E25F" d="M229.524,94.997c-0.562-7.057,7.192-13.441,14.06-11.178c11.188,3.801,9.47,19.435-2.016,21.215
		c-5.831,0.92-11.669-4.12-12.032-9.854L229.524,94.997z"/>
	<path fill="#F5E25F" d="M85.572,254.491c-7.619-0.323-11.823-9.39-7.379-15.542c4.117-6.502,14.416-5.335,17.21,1.681
		c3.361,6.788-2.271,14.412-9.64,13.873L85.572,254.491z"/>
	<path fill="#F5E25F" d="M193.985,241.259c-0.033,3.785-4.415,7.158-8.163,6.192c-3.128-0.717-5.66-4.36-4.992-7.535
		c1.889-7.65,12.551-6.489,13.155,1.165L193.985,241.259z"/>
	<path fill="#F5E25F" d="M92.193,61.04c-6.702,0.008-8.077-9.917-1.665-11.688c2.811-0.813,6.368,0.55,7.496,3.007
		c1.892,3.873-1.234,8.905-5.626,8.685L92.193,61.04z"/>
	<path fill="#F5E25F" d="M215.114,217.318c-0.548,6.936-9.991,5.663-10.362-0.608c0.467-6.911,10.121-6.455,10.364,0.414
		L215.114,217.318z"/>
	<path fill="#F5E25F" d="M33.065,124.549c6.257,0.436,5.597,9.51,0.004,10.309c-6.175,0.098-6.193-9.92-0.185-10.305L33.065,124.549
		z"/>
	<path fill="#F5E25F" d="M49.534,93.87c0.336,2.107-0.155,3.154-2.492,3.068c-2.35-0.086-3.445-0.84-3.462-3.318
		c-0.015-2.226,1.043-3.19,3.042-3.198C48.951,90.412,50.142,91.553,49.534,93.87z"/>
	<path fill="#F2E8F2" d="M142.964,179.849c2.508-0.596,5.053-0.405,7.555-0.215c2.503,0.19,4.082,2.863,6.963,2.815
		c-2.829,1.24-4.76,3.846-7.992,3.75c-1.536-0.045-3.077,0.036-4.612-0.022c-1.671-0.063-2.372-0.529-4.462-1.839
		c-2.17-1.359-2.176-2.581-3.757-1.898"/>
</g>
</svg>
