<?xml version="1.0" encoding="utf-8"?>
<!-- Generator: Adobe Illustrator 28.4.1, SVG Export Plug-In . SVG Version: 6.00 Build 0)  -->
<!DOCTYPE svg PUBLIC "-//W3C//DTD SVG 1.1//EN" "http://www.w3.org/Graphics/SVG/1.1/DTD/svg11.dtd" [
	<!ENTITY ns_extend "http://ns.adobe.com/Extensibility/1.0/">
	<!ENTITY ns_ai "http://ns.adobe.com/AdobeIllustrator/10.0/">
	<!ENTITY ns_graphs "http://ns.adobe.com/Graphs/1.0/">
	<!ENTITY ns_vars "http://ns.adobe.com/Variables/1.0/">
	<!ENTITY ns_imrep "http://ns.adobe.com/ImageReplacement/1.0/">
	<!ENTITY ns_sfw "http://ns.adobe.com/SaveForWeb/1.0/">
	<!ENTITY ns_custom "http://ns.adobe.com/GenericCustomNamespace/1.0/">
	<!ENTITY ns_adobe_xpath "http://ns.adobe.com/XPath/1.0/">
]>
<svg version="1.1" id="Layer_1" xmlns:x="&ns_extend;" xmlns:i="&ns_ai;" xmlns:graph="&ns_graphs;"
	 xmlns="http://www.w3.org/2000/svg" xmlns:xlink="http://www.w3.org/1999/xlink" x="0px" y="0px" viewBox="0 0 213.221 235.9"
	 enable-background="new 0 0 213.221 235.9" xml:space="preserve">
<metadata>
	<sfw  xmlns="&ns_sfw;">
		<slices></slices>
		<sliceSourceBounds  bottomLeftOrigin="true" height="1860.713" width="2201.936" x="-920.789" y="-2081.878"></sliceSourceBounds>
	</sfw>
</metadata>
<g>
	<path fill="#B94300" d="M16.262,47.522c4.065-2.897,37.475-22.515,42.667-21.18c1.902,0.617-12.614,12.611-10.786,13.4
		c2.252,1.01,0.468-0.015,2.949,0.008c14.762-1.387,4.2,8.182,15.911,11.812c10.879,2.79,29.269-23.235,39.17-27.838
		c4.855-2.539,7.299,4.81,12.241,7.386c7.766,3.411,10.845,21.82,19.467,21.935c17.868,0.094-11.329-29.563,2.302-25.748
		c5.51,1.328,35.633,21.552,38.891,25.842c8.316,10.851,11.394,24.653,12.421,37.993c3.662,38.099-17.891,71.183-39.615,100.798
		c-12.022,15.545-29.822,27.282-49.821,29.589c-20.855,1.521-41.272-8.835-55.724-23.151c-7.21-6.031-11.683-14.133-16.648-21.919
		c-2.524-4.026-5.101-8.063-7.516-12.123c-1.074-1.822-1.825-3.828-1.825-5.949c-0.05-2.346,0.538-5.079-0.402-6.96
		c-0.96-2.248,2.657,11.119,0.691,9.269c-1.131-1.027-8.658-16.271-9.274-17.648c-2.537-5.78-5.068-11.75-6.499-17.944
		c-4.337-20.232-8.457-42.163,0.303-61.767C7.836,57.439,10.927,51.455,16.262,47.522"/>
	<path fill="#B94300" d="M47.998,200.437c0.824-0.309,1.813,0.549,2.593,0.911c3.736,2.336,7.137,5.4,10.932,7.67
		c6.586,3.972,14.169,6.242,21.485,8.658c13.903,4.404,29.107,1.4,41.571-5.597c10.903-5.149,19.817-13.195,26.972-22.735
		c8.622-10.865,16.065-22.553,22.798-34.632c10.158-16.614,16.469-35.478,16.272-55.034c-0.073-17.684-3.067-43.965-21.526-53.738
		c-1.169-0.647-3.433-2.138-1.175-2.957c1.225-0.472,2.667-0.756,3.926-1.216c2.576-0.875-5.389-7.898-3.159-8.298
		c6.444-0.635,25.681,12.654,30.44,16.894c14.762,14.837,16.236,38.384,12.073,57.83c-3.015,25.558-15.131,49.083-29.776,70.018
		c-15.21,23.6-40.57,48.719-69.855,56.921c-7.626,2.107-15.364-0.492-22.559-3.196c-4.849-1.646-8.438-3.435-12.732-6.112
		c-9.343-5.625-18.382-13.632-25.843-21.573c-0.84-0.819-8.667-8.737-8.308-9.686L47.998,200.437z"/>
	<path fill="#C3C9AC" d="M48.46,29.006c-0.099,0.164-0.424,0.347-0.67,0.311c-0.002-0.059,0.547-0.271,0.644-0.329L48.46,29.006z"/>
	<path fill="#C3C9AC" d="M52.464,27.09c-0.176,0.07-0.606,0.242-0.842,0.336C51.691,27.399,52.269,27.168,52.464,27.09L52.464,27.09
		z"/>
	<path fill="#FB604B" d="M21.184,50.199c3.881-2.813,35.779-21.862,40.736-20.565c1.816,0.599-12.043,12.245-10.298,13.011
		c2.15,0.981,0.446-0.015,2.816,0.008c14.094-1.346,4.01,7.944,15.191,11.469c10.386,2.709,27.944-22.561,37.397-27.03
		c4.635-2.465,6.968,4.67,11.687,7.172c7.414,3.312,10.354,21.186,18.586,21.298c17.059,0.091-10.816-28.705,2.198-25.001
		c5.26,1.29,34.02,20.927,37.131,25.092c7.94,10.536,10.878,23.937,11.859,36.89c3.496,36.993-17.081,69.117-37.822,97.872
		c-11.478,15.094-28.472,26.49-47.566,28.73c-19.911,1.477-39.404-8.579-53.201-22.479c-6.883-5.856-11.154-13.723-15.895-21.283
		c-2.41-3.909-4.87-7.829-7.176-11.771c-1.025-1.77-1.742-3.716-1.742-5.777c-0.048-2.278,0.513-4.931-0.384-6.758
		c-0.917-2.183,2.537,10.796,0.659,9c-1.08-0.997-8.266-15.798-8.855-17.136c-2.422-5.612-4.839-11.409-6.205-17.424
		c-4.141-19.645-8.074-40.939,0.289-59.974C13.14,59.828,16.091,54.018,21.184,50.199"/>
	<path fill="#FA2D24" d="M51.485,198.421c0.786-0.3,1.731,0.532,2.476,0.883c3.567,2.264,6.814,5.234,10.437,7.434
		c6.287,3.85,13.528,6.05,20.513,8.392c13.274,4.269,27.789,1.357,39.69-5.425c10.41-4.991,18.92-12.79,25.751-22.036
		c8.232-10.532,15.338-21.86,21.766-33.568c9.698-16.103,15.724-34.388,15.536-53.343c-0.07-17.141-2.928-42.614-20.551-52.086
		c-1.116-0.627-3.277-2.072-1.122-2.867c1.169-0.457,2.546-0.733,3.749-1.179c2.46-0.849-5.145-7.655-3.016-8.043
		c6.153-0.616,24.519,12.265,29.062,16.375c14.093,14.381,15.501,37.204,11.526,56.053c-2.879,24.772-14.446,47.575-28.428,67.867
		c-14.522,22.875-38.734,47.222-66.692,55.172c-7.281,2.042-14.669-0.476-21.538-3.098c-4.63-1.595-8.056-3.33-12.156-5.925
		c-8.92-5.452-17.55-13.213-24.673-20.91c-0.802-0.794-8.274-8.469-7.932-9.389L51.485,198.421z"/>
	<path fill="#F9B368" d="M20.315,147.284c0.363-1.562,2.316-2.122,3.672-1.449c3.332,1.545,4.302,8.746,2.02,11.34
		c-1.646,0.908-2.705-1.598-3.344-2.845c-0.827-2.096-2.712-4.728-2.385-6.881L20.315,147.284z"/>
	<path fill="#8C2112" d="M68.324,107.789c1.696,2.896,3.407,6.031,5.904,8.336c2.146,2.112,4.602,3.829,7.318,5.287
		c2.561,1.251,4.472,3.048,3.582,6.31c-0.804,3.923-3.004,7.318-7.018,8.209c-6.194,1.621-10.271-2.782-12.804-7.541
		c-1.891-3.586-1.689-7.707-1.664-11.637c-0.167-3.922-0.197-7.931,4.552-9.003L68.324,107.789z"/>
	<path fill="#8C2112" d="M146.101,107.801c2.557,1.276,4.201,3.835,4.218,6.7c0.155,5.797-0.256,11.482-3.276,16.573
		c-2.076,3.308-6.512,5.391-10.396,5.038c-4.194-0.55-7.822-4.943-7.983-9.192c-0.161-2.16,0.733-3.889,2.646-4.686
		c3.213-1.571,6.132-3.476,8.487-6.038c2.372-2.501,3.584-5.937,6.201-8.384L146.101,107.801z"/>
	<path fill="#8E2E1E" d="M107.72,134.382c4.137,0.06,8.788,1.086,11.477,4.395c1.932,2.33,2.405,6.01,0.35,8.397
		c-1.955,2.382-5.854,3.083-9.451,3.348c-5.91,0.227-16.505,0.69-17.403-6.813c-0.23-7.667,8.585-9.602,14.822-9.329L107.72,134.382
		z"/>
	<path fill="#F9B368" d="M175.518,133.899c-1.082-0.144-1.673-1.558-2.084-2.535c-1.463-3.771-3.35-13.383,2.085-14.397
		c5.783-0.011,4.192,15.574,0.11,16.934L175.518,133.899z"/>
	<path fill="#F9B368" d="M151.187,101.892c-1.202,0.27-2.291-0.902-3.034-1.766c-2.452-3.185-5.526-9.416-1.685-12.588
		c6.085-2.88,7.036,7.012,6.413,11.037c-0.196,1.645-0.719,2.976-1.577,3.278L151.187,101.892z"/>
	<path fill="#F9B368" d="M168.657,70.189c-0.907,0.3-1.861-0.603-2.52-1.232c-2.828-3.014-6.023-8.268-3.974-12.394
		c1.946-2.855,5.404-0.271,6.221,2.227c1.028,2.267,2.434,9.446,0.371,11.354L168.657,70.189z"/>
	<path fill="#F9B368" d="M17.879,95.288c-2.813-1.97-2.625-11.495,0.258-13.725c0.93-0.867,2.285-1.218,3.228-0.255
		c2.632,2.769,0.445,13.971-3.38,14.016L17.879,95.288z"/>
	<path fill="#F9B368" d="M144.696,184.718c0.054,2.438-1.695,5.359-3.525,6.963c-2.325,2.16-5.629,0.785-5.527-2.391
		c0.026-3.055,2.201-6.803,4.988-7.594c1.964-0.697,4.033,0.713,4.055,2.832L144.696,184.718z"/>
	<path fill="#F9B368" d="M108.649,208.871c0.045,2.47-1.032,7.097-4.323,5.811c-3.743-1.923-4.183-9.744-0.23-11.006
		c2.929-0.826,4.615,2.35,4.55,4.982L108.649,208.871z"/>
	<path fill="#F9B368" d="M57.789,161.556c-0.738-0.085-1.423-1.082-1.954-2.406c-1.36-3.21-2.409-9.514,2.169-10.384
		c5.657,0.144,4.19,8.166,1.775,11.303c-0.437,0.656-1.07,1.505-1.873,1.497L57.789,161.556z"/>
	<path fill="#F9B368" d="M105.961,76.572c-2.887-0.027-4.88-7.886-3.445-10.16c0.975-2.014,4.178-2.723,5.415-0.687
		c1.584,2.456,0.646,9.324-1.848,10.814L105.961,76.572z"/>
	<path fill="#F9B368" d="M75.109,190.157c-0.738,6.911-7.712,4.315-7.541-1.449c-0.036-2.336,2.763-4.923,4.756-4.19
		c1.953,0.857,2.782,3.535,2.792,5.456L75.109,190.157z"/>
	<path fill="#F9B368" d="M39.422,138.305c-1.642-0.043-2.385-2.11-2.965-3.437c-1.36-3.237-1.295-8.176,2.748-8.75
		c4.513-0.396,3.202,11.224,0.346,12.166L39.422,138.305z"/>
	<path fill="#F9B368" d="M147.383,157.311c-0.867,0.31-1.874-0.626-2.492-1.262c-2.685-2.865-3.873-7.093-1-9.615
		c2.575-1.89,4.888,1.534,4.79,4.001c-0.097,1.821,0.202,5.663-1.189,6.824L147.383,157.311z"/>
	<path fill="#F9B368" d="M109.82,160.292c-0.382,1.765-2.331,4.24-4.287,4.134c-1.584-0.211-3.083-3.265-2.631-5.511
		c1.083-5.06,7.234-3.692,6.946,1.178L109.82,160.292z"/>
	<path fill="#FB604B" d="M182.376,162.873c-0.868-0.299-1.181-1.568-1.386-2.444c-0.783-3.806-0.617-11.657,4.611-11.4
		c1.45,0.411,2.09,2.092,2.247,3.516c0.415,3.269-1.035,6.079-2.973,8.61c-0.593,0.743-1.418,1.84-2.392,1.742L182.376,162.873z"/>
	<path fill="#FB604B" d="M196.031,91.328c-0.812,0.238-1.683-0.404-2.294-0.957c-2.431-2.021-4.096-7.494-0.877-9.315
		c0.996-0.354,2.109,0.169,2.872,0.849c2.012,1.785,2.004,4.716,1.53,7.371c-0.146,0.74-0.414,1.683-1.108,2.006L196.031,91.328z"/>
	<path fill="#E1DFEE" d="M115.648,144.317c-2.268,2.206-7.798,1.059-11.038,1.334c-3.086,0.22-8.917-0.292-6.691-4.591
		c1.476-2.371,5.393-2.62,9.077-2.596c3.622,0.062,7.353,0.363,8.776,2.71c0.597,0.926,0.687,2.167-0.035,3.038L115.648,144.317z"/>
	<g>
		<path fill="#A9C054" d="M40.071,38.803c2.144-9.195,31.186-15.079,40.025-18.699c5.017-2.034,11.011-1.642,15.497-4.483
			c1.893-1.315,3.095-3.457,4.323-5.84c1.831-4.211,6.004-6.99,9.426-2.448c2.381,3.353,3.771,7.853,7.268,10.097
			c6.479,3.927,14.585,4.338,21.776,6.43c6.819,1.69,13.404,4.206,19.977,6.626c3.618,1.423,7.673,2.973,10.221,5.973
			c1.471,1.827,1.898,3.838,0.485,5.538c-3.95,3.718-11.348,2.312-16.031,0.768c-1.258-0.408-2.961-1.229-4.117-1.328
			c-0.739-0.023-0.929,0.535-0.996,1.679c0.317,6.866-4.278,10.062-10.857,10.467c-8.29,0.544-16.09-2.82-23.623-6.06
			c-2.333-0.915-5.01-2.764-6.904-3.968c-1.875-1.12-2.951-1.099-4.762,0.145c-1.412,0.979-3.068,2.367-4.734,3.284
			c-9.09,4.461-19.811,8.584-29.764,5.193c-4.011-1.632-6.028-6.082-10.122-7.53c-4.288-1.622-9.992,0.299-14.446-1.872
			c-1.553-0.705-2.862-2.073-2.657-3.841L40.071,38.803z"/>
		<path fill="#616E30" d="M105.463,5c1.293,0,2.635,0.684,3.879,2.334c2.381,3.353,3.771,7.853,7.268,10.097
			c6.479,3.927,14.585,4.338,21.776,6.43c6.819,1.69,13.404,4.206,19.977,6.626c3.618,1.423,7.673,2.973,10.221,5.973
			c1.471,1.827,1.898,3.839,0.485,5.538c-1.858,1.749-4.481,2.364-7.224,2.364c-3.087,0-6.327-0.779-8.807-1.596
			c-1.258-0.408-2.961-1.229-4.117-1.328c-0.015,0-0.03-0.001-0.044-0.001c-0.703,0-0.887,0.559-0.952,1.679
			c0.317,6.866-4.278,10.062-10.857,10.467c-0.6,0.039-1.197,0.058-1.791,0.058c-7.626,0-14.843-3.112-21.832-6.119
			c-2.333-0.915-5.01-2.764-6.904-3.968c-0.905-0.54-1.623-0.815-2.328-0.815c-0.756,0-1.497,0.316-2.434,0.96
			c-1.412,0.979-3.068,2.367-4.734,3.284c-6.752,3.313-14.404,6.441-21.971,6.441c-2.621,0-5.232-0.375-7.792-1.247
			c-4.011-1.632-6.028-6.082-10.122-7.53c-1.758-0.665-3.755-0.734-5.806-0.734c-0.539,0-1.082,0.005-1.625,0.005
			c-2.43,0-4.867-0.096-7.015-1.143c-1.553-0.705-2.862-2.073-2.657-3.841l0.016-0.132c2.144-9.195,31.186-15.079,40.025-18.699
			c5.017-2.034,11.011-1.642,15.497-4.483c1.893-1.315,3.095-3.457,4.323-5.84C101.081,7.101,103.197,5,105.463,5 M105.463,0
			L105.463,0c-4.114,0.001-7.956,2.917-10.061,7.624c-0.852,1.649-1.694,3.166-2.588,3.838c-1.752,1.067-4.241,1.525-6.872,2.009
			c-2.515,0.463-5.115,0.942-7.725,2c-2.011,0.824-5.382,1.839-9.285,3.014c-17.829,5.369-31.634,10.191-33.731,19.183l-0.062,0.267
			l-0.033,0.272l-0.016,0.132c-0.43,3.722,1.724,7.223,5.491,8.961c3.101,1.493,6.345,1.619,9.145,1.619l0.838-0.002l0.787-0.002
			c1.428,0,3.035,0.032,4.037,0.411l0.051,0.019l0.052,0.018c1.05,0.371,2.125,1.432,3.369,2.661
			c1.632,1.612,3.663,3.617,6.536,4.786l0.134,0.055l0.137,0.047c2.95,1.005,6.114,1.515,9.405,1.515
			c8.87,0,17.578-3.715,24.174-6.952l0.105-0.051l0.102-0.056c1.431-0.787,2.732-1.756,3.879-2.612
			c0.328-0.244,0.647-0.483,0.955-0.704c0.168,0.108,0.34,0.22,0.518,0.335c1.934,1.253,4.336,2.808,6.732,3.761
			c7.428,3.195,15.109,6.496,23.74,6.496c0.708,0,1.421-0.023,2.119-0.069c8.037-0.495,13.464-4.485,15.058-10.748
			c2.499,0.757,5.92,1.537,9.392,1.537c4.442,0,8.026-1.253,10.651-3.723l0.223-0.209l0.195-0.235
			c2.858-3.438,2.691-7.986-0.435-11.87l-0.041-0.051l-0.043-0.05c-3.307-3.893-8.11-5.781-11.97-7.298l-0.232-0.091l-0.051-0.02
			l-0.052-0.019l-1.803-0.665c-5.985-2.211-12.173-4.497-18.602-6.098c-2.511-0.725-5.069-1.251-7.544-1.761
			c-4.763-0.981-9.262-1.907-12.876-4.077c-1.27-0.844-2.317-2.74-3.425-4.746c-0.728-1.32-1.482-2.684-2.422-4.009l-0.041-0.058
			l-0.042-0.056C110.5,0.562,107.186,0,105.463,0L105.463,0z"/>
	</g>
	<path fill="#79A835" d="M101.493,44.165c-0.845-0.577,0.96-10.743,2.106-7.208c3.359,10.356,3.418,6.257-1.306,7.691
		L101.493,44.165z"/>
	<path fill="#79A835" d="M147.27,43.754c0.084,2.668-3.357-2.952-4.78-4.258c-0.793-0.998-2.373-1.996-2.246-3.359
		c1.243-1.012,5.851,3.839,7.286,4.653c3.621,2.056,0.062,1.175-0.11,2.986L147.27,43.754z"/>
	<path fill="#79A835" d="M155.488,31.321c-1.234,0.231-3.919-0.69-5.483-1.045c-9.856-2.656-19.951-4.838-29.743-7.731
		c-2.406-0.759-7.029-0.689-7.181-3.151c-0.212-3.454-1.072-4.278,1.182-3.373c2.082,0.836,4.973,0.648,7.156,1.512
		c9.422,3.695,23.37,8.677,32.919,12.24c1.517,0.687,7.719,2.274,1.161,1.53L155.488,31.321z"/>
	<path fill="#79A835" d="M95.651,18.4c-0.773,1.238-2.637,1.894-4.107,2.221c-3.94,0.828-7.987,1.513-11.965,2.271
		c-3.931,0.777-9.809-0.024-3.09-1.34c2.275-0.445,22.707-8.486,19.227-3.267L95.651,18.4z"/>
	<path fill="#F9B368" d="M73.935,110.607c0.894,0.201,1.703-0.671,2.256-1.313c1.823-2.368,4.109-7.001,1.253-9.359
		c-4.524-2.141-5.232,5.213-4.768,8.207c0.146,1.223,0.535,2.212,1.173,2.437L73.935,110.607z"/>
	<path fill="#F9B368" d="M52.227,81.591c1.257,0.283,2.396-0.943,3.173-1.847c2.565-3.331,5.779-9.848,1.762-13.165
		c-6.364-3.012-7.359,7.333-6.707,11.544c0.205,1.721,0.752,3.112,1.649,3.428L52.227,81.591z"/>
	<path fill="#F9B368" d="M73.935,110.607c0.894,0.201,1.703-0.671,2.256-1.313c1.823-2.368,4.109-7.001,1.253-9.359
		c-4.524-2.141-5.232,5.213-4.768,8.207c0.146,1.223,0.535,2.212,1.173,2.437L73.935,110.607z"/>
</g>
</svg>
